<?xml version="1.0" encoding="UTF-8"?>
<svg id="Capa_2" data-name="Capa 2" xmlns="http://www.w3.org/2000/svg" viewBox="0 0 27.7 27.7">
  <defs>
    <style>
      .cls-1 {
        fill: #fff;
      }

      .cls-2 {
        fill: #5865ef;
      }
    </style>
  </defs>
  <g id="Capa_1-2" data-name="Capa 1">
    <g>
      <rect class="cls-2" width="27.7" height="27.7" rx="1.61" ry="1.61"/>
      <path class="cls-1" d="m21.13,8.64c-2.38-1.79-4.65-1.74-4.65-1.74l-.23.26c2.81.86,4.12,2.1,4.12,2.1-3.93-2.15-8.55-2.15-12.36-.48-.61.28-.98.48-.98.48,0,0,1.37-1.31,4.35-2.17l-.16-.2s-2.27-.05-4.65,1.74c0,0-2.38,4.32-2.38,9.65,0,0,1.39,2.4,5.05,2.52,0,0,.61-.75,1.11-1.37-2.1-.63-2.9-1.95-2.9-1.95.24.17.64.39.68.41,2.79,1.56,6.76,2.08,10.33.58.58-.21,1.23-.53,1.9-.98,0,0-.83,1.36-3,1.97.5.63,1.09,1.34,1.09,1.34,3.66-.12,5.06-2.52,5.06-2.52,0-5.33-2.38-9.65-2.38-9.65Zm-8.69,6.27c0,1.01-.75,1.84-1.69,1.84s-1.69-.83-1.69-1.84.75-1.84,1.69-1.84,1.71.83,1.69,1.84Zm4.35,1.84c-.93,0-1.69-.83-1.69-1.84s.75-1.84,1.69-1.84,1.69.83,1.69,1.84-.74,1.84-1.69,1.84Z"/>
    </g>
  </g>
</svg>