<?xml version="1.0" encoding="UTF-8"?>
<svg id="Capa_2" data-name="Capa 2" xmlns="http://www.w3.org/2000/svg" viewBox="0 0 53.56 52.03">
  <defs>
    <style>
      .cls-1 {
        fill: #fff;
      }
    </style>
  </defs>
  <g id="Capa_1-2" data-name="Capa 1">
    <g>
      <path class="cls-1" d="m35.54,22.96h-17.52c-.42,0-.77-.34-.77-.77v-4.25c0-.42.34-.77.77-.77s.77.34.77.77v3.48h15.99V6.42l-4.88-4.88h-11.11v3.48c0,.42-.34.77-.77.77s-.77-.34-.77-.77V.77c0-.42.34-.77.77-.77h12.19c.2,0,.4.08.54.22l5.33,5.33c.14.14.22.34.22.54v16.09c0,.42-.34.77-.77.77Z"/>
      <path class="cls-1" d="m18.02,13.35c-.42,0-.77-.34-.77-.77v-2.22c0-.42.34-.77.77-.77s.77.34.77.77v2.22c0,.42-.34.77-.77.77Z"/>
      <path class="cls-1" d="m35.54,6.86h-5.33c-.42,0-.77-.34-.77-.77V.77c0-.42.34-.77.77-.77s.77.34.77.77v4.57h4.57c.42,0,.77.34.77.77s-.34.77-.77.77Z"/>
      <path class="cls-1" d="m31.71,18.46h-9.86c-.42,0-.77-.34-.77-.77s.34-.77.77-.77h9.86c.42,0,.77.34.77.77s-.34.77-.77.77Z"/>
      <path class="cls-1" d="m31.71,14.63h-9.86c-.42,0-.77-.34-.77-.77s.34-.77.77-.77h9.86c.42,0,.77.34.77.77s-.34.77-.77.77Z"/>
      <path class="cls-1" d="m31.71,10.81h-9.86c-.42,0-.77-.34-.77-.77s.34-.77.77-.77h9.86c.42,0,.77.34.77.77s-.34.77-.77.77Z"/>
      <path class="cls-1" d="m52.8,52.03h-17.52c-.42,0-.77-.34-.77-.77v-21.43c0-.42.34-.77.77-.77h12.19c.2,0,.4.08.54.22l5.33,5.33c.14.14.22.34.22.54v16.09c0,.42-.34.77-.77.77Zm-16.76-1.53h15.99v-15.01l-4.89-4.89h-11.11v19.89Z"/>
      <path class="cls-1" d="m52.8,35.94h-5.33c-.42,0-.77-.34-.77-.77v-5.33c0-.42.34-.77.77-.77s.77.34.77.77v4.57h4.57c.42,0,.77.34.77.77s-.34.77-.77.77Z"/>
      <path class="cls-1" d="m48.97,47.53h-9.86c-.42,0-.77-.34-.77-.77s.34-.77.77-.77h9.86c.42,0,.77.34.77.77s-.34.77-.77.77Z"/>
      <path class="cls-1" d="m48.97,43.71h-9.86c-.42,0-.77-.34-.77-.77s.34-.77.77-.77h9.86c.42,0,.77.34.77.77s-.34.77-.77.77Z"/>
      <path class="cls-1" d="m48.97,39.89h-9.86c-.42,0-.77-.34-.77-.77s.34-.77.77-.77h9.86c.42,0,.77.34.77.77s-.34.77-.77.77Z"/>
      <path class="cls-1" d="m18.29,52.03H.77c-.42,0-.77-.34-.77-.77v-21.43c0-.42.34-.77.77-.77h12.19c.2,0,.4.08.54.22l5.33,5.33c.14.14.22.34.22.54v16.09c0,.42-.34.77-.77.77,0,0,0,0,0,0Zm-16.76-1.53h15.99v-15.01l-4.88-4.89H1.53v19.89Z"/>
      <path class="cls-1" d="m18.29,35.94h-5.33c-.42,0-.77-.34-.77-.77v-5.33c0-.42.34-.77.77-.77s.77.34.77.77v4.57h4.57c.42,0,.77.34.77.77s-.34.77-.77.77Z"/>
      <path class="cls-1" d="m14.46,47.53H4.6c-.42,0-.77-.34-.77-.77s.34-.77.77-.77h9.86c.42,0,.77.34.77.77s-.34.77-.77.77Z"/>
      <path class="cls-1" d="m14.46,43.71H4.6c-.42,0-.77-.34-.77-.77s.34-.77.77-.77h9.86c.42,0,.77.34.77.77s-.34.77-.77.77Z"/>
      <path class="cls-1" d="m14.46,39.89H4.6c-.42,0-.77-.34-.77-.77s.34-.77.77-.77h9.86c.42,0,.77.34.77.77s-.34.77-.77.77Z"/>
    </g>
  </g>
</svg>