<?xml version="1.0" encoding="UTF-8"?>
<svg id="Capa_2" data-name="Capa 2" xmlns="http://www.w3.org/2000/svg" viewBox="0 0 61.66 48.97">
  <defs>
    <style>
      .cls-1 {
        fill: #fff;
      }
    </style>
  </defs>
  <g id="Capa_1-2" data-name="Capa 1">
    <path class="cls-1" d="m56.84,0H4.82C2.16,0,0,2.16,0,4.82v39.33c0,2.66,2.16,4.82,4.82,4.82h52.03c2.66,0,4.82-2.16,4.82-4.82V4.82C61.66,2.16,59.5,0,56.84,0ZM1.23,11.66h59.2v25.65H1.23V11.66Zm0-6.84c0-1.98,1.61-3.59,3.59-3.59h52.03c1.98,0,3.59,1.61,3.59,3.59v5.61H1.23v-5.61Zm59.2,39.33c0,1.98-1.61,3.59-3.59,3.59H4.82c-1.98,0-3.59-1.61-3.59-3.59v-5.61h59.2v5.61ZM7.23,3.01c-1.56,0-2.82,1.27-2.82,2.82s1.27,2.82,2.82,2.82,2.82-1.27,2.82-2.82-1.27-2.82-2.82-2.82Zm0,4.41c-.88,0-1.59-.71-1.59-1.59s.71-1.59,1.59-1.59,1.59.71,1.59,1.59-.71,1.59-1.59,1.59ZM15.24,3.01c-1.56,0-2.82,1.27-2.82,2.82s1.27,2.82,2.82,2.82,2.82-1.27,2.82-2.82-1.27-2.82-2.82-2.82Zm0,4.41c-.88,0-1.59-.71-1.59-1.59s.71-1.59,1.59-1.59,1.59.71,1.59,1.59-.71,1.59-1.59,1.59Zm8-4.41c-1.56,0-2.82,1.27-2.82,2.82s1.27,2.82,2.82,2.82,2.82-1.27,2.82-2.82-1.27-2.82-2.82-2.82Zm0,4.41c-.88,0-1.59-.71-1.59-1.59s.71-1.59,1.59-1.59,1.59.71,1.59,1.59-.71,1.59-1.59,1.59Zm31.4-4.41h-22.8c-1.56,0-2.82,1.27-2.82,2.82s1.27,2.82,2.82,2.82h22.8c1.56,0,2.82-1.27,2.82-2.82s-1.27-2.82-2.82-2.82Zm0,4.41h-22.8c-.88,0-1.59-.71-1.59-1.59s.71-1.59,1.59-1.59h22.8c.88,0,1.59.71,1.59,1.59s-.71,1.59-1.59,1.59Zm-4.95,9.24c0-.34.28-.62.62-.62h5.59c.34,0,.62.28.62.62s-.28.62-.62.62h-5.59c-.34,0-.62-.28-.62-.62Zm6.83,5.21c0,.34-.28.62-.62.62h-29.16c-.34,0-.62-.28-.62-.62s.28-.62.62-.62h29.16c.34,0,.62.28.62.62h0Zm0,10.43c0,.34-.28.62-.62.62h-29.16c-.34,0-.62-.28-.62-.62s.28-.62.62-.62h29.16c.34,0,.62.28.62.62h0Zm-30.39-15.64c0-.34.28-.62.62-.62h20.11c.34,0,.62.28.62.62s-.28.62-.62.62h-20.11c-.34,0-.62-.28-.62-.62h0Zm0,10.43c0-.34.28-.62.62-.62h5.59c.34,0,.62.28.62.62s-.28.62-.62.62h-5.59c-.34,0-.62-.28-.62-.62Zm30.39,0c0,.34-.28.62-.62.62h-20.11c-.34,0-.62-.28-.62-.62s.28-.62.62-.62h20.11c.34,0,.62.28.62.62h0Zm-34.92-4.28l-1.69-.55c-.08-.23-.17-.45-.28-.67l.81-1.59c.12-.24.08-.53-.11-.72l-1.54-1.54c-.19-.19-.48-.23-.72-.11l-1.59.81c-.22-.11-.44-.2-.67-.28l-.55-1.69c-.08-.25-.32-.43-.59-.43h-2.17c-.27,0-.5.17-.59.43l-.55,1.69c-.23.08-.45.17-.67.28l-1.59-.81c-.24-.12-.53-.08-.72.11l-1.54,1.54c-.19.19-.23.48-.11.72l.81,1.59c-.11.22-.2.44-.28.67l-1.69.55c-.25.08-.43.32-.43.59v2.17c0,.27.17.5.43.59l1.69.55c.08.23.17.45.28.67l-.81,1.59c-.12.24-.08.53.11.72l1.54,1.54c.19.19.48.23.72.11l1.59-.81c.22.11.44.2.67.28l.55,1.69c.08.25.32.43.59.43h2.17c.27,0,.5-.17.59-.43l.55-1.69c.23-.08.45-.17.67-.28l1.59.81c.24.12.53.08.72-.11l1.54-1.54c.19-.19.23-.48.11-.72l-.81-1.59c.11-.22.2-.44.28-.67l1.69-.55c.25-.08.43-.32.43-.59v-2.17c0-.27-.17-.5-.43-.59h0Zm-.81,2.31l-1.57.51c-.19.06-.34.22-.4.41-.11.36-.25.71-.43,1.04-.1.18-.1.39,0,.57l.75,1.47-.9.9-1.47-.75c-.18-.09-.4-.09-.57,0-.33.18-.68.33-1.04.43-.19.06-.35.21-.41.4l-.51,1.56h-1.28l-.51-1.57c-.06-.19-.22-.34-.41-.4-.36-.11-.71-.25-1.04-.43-.18-.1-.39-.1-.57,0l-1.47.75-.9-.9.75-1.47c.09-.18.09-.4,0-.57-.18-.33-.33-.68-.43-1.04-.06-.19-.21-.35-.4-.41l-1.56-.51v-1.28l1.56-.51c.19-.06.34-.22.4-.41.11-.36.25-.71.43-1.04.1-.18.1-.39,0-.57l-.75-1.47.9-.9,1.47.75c.18.09.4.09.57,0,.33-.18.68-.33,1.04-.43.19-.06.35-.21.41-.4l.51-1.57h1.28l.51,1.57c.06.19.22.34.41.4.36.11.71.25,1.04.43.18.1.39.1.57,0l1.47-.75.9.9-.75,1.47c-.09.18-.09.4,0,.57.18.33.33.68.43,1.04.06.19.21.35.4.41l1.56.51v1.28h0Zm-7.2-4.64c-2.21,0-4,1.8-4,4s1.8,4,4,4,4-1.8,4-4-1.8-4-4-4Zm0,6.77c-1.53,0-2.77-1.24-2.77-2.77s1.24-2.77,2.77-2.77,2.77,1.24,2.77,2.77-1.24,2.77-2.77,2.77Z"/>
  </g>
</svg>