<?xml version="1.0" encoding="UTF-8"?>
<svg id="Capa_2" data-name="Capa 2" xmlns="http://www.w3.org/2000/svg" viewBox="0 0 44.43 47.72">
  <defs>
    <style>
      .cls-1 {
        fill: #fff;
      }
    </style>
  </defs>
  <g id="Capa_1-2" data-name="Capa 1">
    <path class="cls-1" d="m41.96,0H2.47C1.11,0,0,1.11,0,2.47v31.26c0,1.36,1.11,2.47,2.47,2.47h14.01l-1.51,6.58h-2.63c-.38,0-.71.26-.8.63l-.82,3.29c-.06.25,0,.51.15.71.16.2.39.31.65.31h21.39c.26,0,.49-.12.65-.31s.21-.46.15-.71l-.82-3.29c-.09-.37-.42-.63-.8-.63h-2.63l-1.51-6.58h14.01c1.36,0,2.47-1.11,2.47-2.47V2.47c0-1.36-1.11-2.47-2.47-2.47Zm.82,2.47v27.15h-19.75V1.65h18.92c.45,0,.82.37.82.82ZM2.47,1.65h18.92v27.97H1.65V2.47c0-.45.37-.82.82-.82Zm29.39,44.43H12.57l.41-1.65h18.46l.41,1.65Zm-4.09-3.29h-11.1l1.51-6.58h8.09l1.51,6.58Zm14.19-8.23H2.47c-.45,0-.82-.37-.82-.82v-2.47h41.14v2.47c0,.45-.37.82-.82.82ZM3.62,16.29c-.21-.16-.33-.39-.33-.66s.12-.5.33-.66l3.29-2.47c.36-.27.88-.2,1.15.16s.2.88-.16,1.15l-2.41,1.81,2.41,1.81c.36.27.44.79.16,1.15-.16.21-.41.33-.66.33-.17,0-.35-.05-.49-.16l-3.29-2.47Zm11.52,1.15l2.41-1.81-2.41-1.81c-.36-.27-.44-.79-.16-1.15s.79-.44,1.15-.16l3.29,2.47c.21.16.33.39.33.66s-.12.5-.33.66l-3.29,2.47c-.15.12-.32.16-.49.16-.25,0-.49-.12-.66-.33-.27-.36-.2-.88.16-1.15h0Zm-5.25,2.14l1.65-8.23c.09-.44.52-.73.97-.64.44.09.73.53.64.97l-1.65,8.23c-.07.39-.42.66-.81.66-.05,0-.11,0-.16-.02-.44-.09-.73-.53-.64-.97h0Zm14.79-13.82c0-.45.37-.82.82-.82h1.65c.45,0,.82.37.82.82s-.37.82-.82.82h-1.65c-.45,0-.82-.37-.82-.82Zm16.45,4.94c0,.45-.37.82-.82.82h-1.65c-.45,0-.82-.37-.82-.82s.37-.82.82-.82h1.65c.45,0,.82.37.82.82Zm-11.52-4.94c0-.45.37-.82.82-.82h9.87c.45,0,.82.37.82.82s-.37.82-.82.82h-9.87c-.45,0-.82-.37-.82-.82Zm-4.94,4.94c0-.45.37-.82.82-.82h9.87c.45,0,.82.37.82.82s-.37.82-.82.82h-9.87c-.45,0-.82-.37-.82-.82Zm0,4.94c0-.45.37-.82.82-.82h3.29c.45,0,.82.37.82.82s-.37.82-.82.82h-3.29c-.45,0-.82-.37-.82-.82Zm8.23,4.11h3.29c.45,0,.82.37.82.82s-.37.82-.82.82h-3.29c-.45,0-.82-.37-.82-.82s.37-.82.82-.82Zm8.23,4.94c0,.45-.37.82-.82.82h-3.29c-.45,0-.82-.37-.82-.82s.37-.82.82-.82h3.29c.45,0,.82.37.82.82Zm-7.4-9.05c0,.45-.37.82-.82.82h-.82c-.45,0-.82-.37-.82-.82s.37-.82.82-.82h.82c.45,0,.82.37.82.82Zm7.4,4.94c0,.45-.37.82-.82.82h-.82c-.45,0-.82-.37-.82-.82s.37-.82.82-.82h.82c.45,0,.82.37.82.82Zm-13.99,4.11c0,.45-.37.82-.82.82h-.82c-.45,0-.82-.37-.82-.82s.37-.82.82-.82h.82c.45,0,.82.37.82.82Zm13.99-9.05c0,.45-.37.82-.82.82h-4.04c-.45,0-.82-.37-.82-.82s.37-.82.82-.82h4.04c.45,0,.82.37.82.82Zm-16.38,4.94c0-.45.37-.82.82-.82h4.04c.45,0,.82.37.82.82s-.37.82-.82.82h-4.04c-.45,0-.82-.37-.82-.82Zm9.8,4.11c0,.45-.37.82-.82.82h-4.04c-.45,0-.82-.37-.82-.82s.37-.82.82-.82h4.04c.45,0,.82.37.82.82Z"/>
  </g>
</svg>