<svg 
   id="Capa_1"
   enable-background="new 0 0 512 512" 
   height="512" 
   viewBox="0 0 512 512" 
   width="512" 
   xmlns="http://www.w3.org/2000/svg"
   fill= "#fff"
>
   <path 
      id="XMLID_1785_" 
      stroke-width="1"
      d="m482 0h-452c-16.542 0-30 13.458-30 30v175c0 5.522 4.478 10 10 10s10-4.478 10-10v-105h472v290c0 5.514-4.486 10-10 10h-90v-73.454c27.295-16.195 44-45.298 44-77.369 0-40.769-27.497-76.537-66.867-86.983-2.998-.796-6.2-.154-8.662 1.739-2.46 1.893-3.902 4.821-3.902 7.926v62.836c0 5.874-4.778 10.652-10.652 10.652-5.873 0-10.651-4.778-10.651-10.652v-62.789c0-3.108-1.445-6.04-3.911-7.933-2.465-1.892-5.669-2.528-8.675-1.728-19.43 5.201-36.783 16.986-48.866 33.185-12.337 16.538-18.631 37.059-17.724 57.779 1.328 30.342 17.981 57.904 43.911 73.339v73.452h-116.001v-12.864c0-12.774-10.393-23.167-23.167-23.167h-.833v-99.677l11.002-22.742c1.076-2.224 1.29-4.767.603-7.139l-16-55.195c-1.24-4.275-5.155-7.216-9.605-7.216h-32c-4.45 0-8.365 2.941-9.604 7.216l-16 55.195c-.688 2.372-.474 4.915.603 7.139l11.001 22.742v99.677h-.833c-12.774 0-23.167 10.392-23.167 23.167v12.864h-46c-5.514 0-10-4.486-10-10v-95c0-5.522-4.478-10-10-10s-10 4.478-10 10v95c0 16.542 13.458 30 30 30h46v82c0 5.522 4.478 10 10 10s10-4.478 10-10v-114.864c0-1.746 1.421-3.167 3.167-3.167h10.833 40 10.833c1.746 0 3.167 1.421 3.167 3.167v114.864c0 5.522 4.478 10 10 10s10-4.478 10-10v-82h116v82c0 5.522 4.478 10 10 10s10-4.478 10-10v-181.362c0-3.774-2.125-7.227-5.494-8.928-22.604-11.408-37.333-34.16-38.437-59.376-1.25-28.545 14.398-54.107 39.195-66.097v48.457c0 16.901 13.75 30.652 30.651 30.652s30.652-13.751 30.652-30.652v-48.508c23.745 11.519 39.433 35.828 39.433 62.991 0 26.578-14.755 50.537-38.507 62.527-3.368 1.7-5.493 5.153-5.493 8.927v181.369c0 5.522 4.478 10 10 10s10-4.478 10-10v-82h90c16.542 0 30-13.458 30-30v-360c0-16.542-13.458-30-30-30zm-360.487 192h16.975l12.84 44.294-7.599 15.706h-27.459l-7.598-15.706zm-1.513 171.969v-91.969h20v91.969zm-100-283.969v-50c0-5.514 4.486-10 10-10h452c5.514 0 10 4.486 10 10v50z"
   />
   <path 
      id="XMLID_1814_" 
      stroke-width="1"
      d="m448 40h-216c-5.522 0-10 4.478-10 10s4.478 10 10 10h216c5.522 0 10-4.478 10-10s-4.478-10-10-10z"
   />
   <path 
      id="XMLID_1825_"
      stroke-width="1"
      d="m108 40c-2.63 0-5.21 1.069-7.07 2.93s-2.93 4.44-2.93 7.07 1.069 5.21 2.93 7.069c1.86 1.861 4.44 2.931 7.07 2.931s5.2-1.07 7.069-2.931c1.861-1.859 2.931-4.439 2.931-7.069s-1.07-5.21-2.931-7.07c-1.859-1.861-4.439-2.93-7.069-2.93z"
   />
   <path 
      id="XMLID_1826_" 
      stroke-width="1"
      d="m64 40c-2.63 0-5.21 1.069-7.07 2.93s-2.93 4.429-2.93 7.07c0 2.63 1.069 5.21 2.93 7.069 1.86 1.861 4.44 2.931 7.07 2.931s5.21-1.07 7.069-2.931c1.861-1.859 2.931-4.439 2.931-7.069s-1.07-5.21-2.931-7.07c-1.859-1.861-4.439-2.93-7.069-2.93z"
   />
   <path 
      id="XMLID_1827_" 
      stroke-width="1"
      d="m152 40c-2.63 0-5.21 1.069-7.07 2.93s-2.93 4.44-2.93 7.07 1.069 5.21 2.93 7.069c1.86 1.861 4.44 2.931 7.07 2.931s5.21-1.07 7.069-2.931c1.861-1.859 2.931-4.439 2.931-7.069s-1.07-5.21-2.931-7.07c-1.859-1.861-4.439-2.93-7.069-2.93z"
   />
   <path 
      id="XMLID_1918_" 
      stroke-width="1"
      d="m10 260c2.63 0 5.21-1.07 7.069-2.931 1.861-1.859 2.931-4.439 2.931-7.069s-1.07-5.21-2.931-7.07c-1.859-1.861-4.429-2.93-7.069-2.93-2.63 0-5.21 1.069-7.07 2.93s-2.93 4.44-2.93 7.07 1.069 5.21 2.93 7.069c1.86 1.861 4.44 2.931 7.07 2.931z"
   />
</svg>