<svg width="1520" height="334" viewBox="0 0 1520 334" fill="none" xmlns="http://www.w3.org/2000/svg">
   <g filter="url(#filter0_d_9_276)">
      <rect x="770.821" y="140.575" width="260.724" height="45.6567" rx="8" fill="url(#paint0_linear_9_276)"
         shape-rendering="crispEdges" />
      <rect x="771.821" y="141.575" width="258.724" height="43.6567" rx="7" stroke="url(#paint1_linear_9_276)"
         stroke-width="2" shape-rendering="crispEdges" />
   </g>
   <path
      d="M811.844 154.128C815.293 154.128 817.694 154.743 819.046 155.974C820.398 157.187 821.074 158.903 821.074 161.122C821.074 162.647 820.805 163.947 820.268 165.022C819.731 166.079 818.786 166.911 817.434 167.518C816.082 168.107 814.219 168.402 811.844 168.402H806.436V172.978H800.04C800.179 169.615 800.248 166.469 800.248 163.54C800.248 160.61 800.179 157.464 800.04 154.102H806.436V154.128H811.844ZM810.024 163.384C811.463 163.384 812.537 163.332 813.248 163.228C813.976 163.106 814.479 162.898 814.756 162.604C815.051 162.309 815.198 161.876 815.198 161.304C815.198 160.732 815.059 160.307 814.782 160.03C814.522 159.735 814.028 159.536 813.3 159.432C812.589 159.328 811.497 159.276 810.024 159.276H806.436V163.384H810.024ZM844.023 160.394C844.023 161.902 843.651 163.176 842.905 164.216C842.177 165.256 840.921 166.01 839.135 166.478C839.343 166.755 839.491 166.972 839.577 167.128L843.789 172.978H836.717C835.955 171.556 834.75 169.546 833.103 166.946H829.281V172.978H823.145C823.284 169.615 823.353 166.469 823.353 163.54C823.353 160.61 823.284 157.464 823.145 154.102H829.281V154.128H834.611C838.113 154.128 840.557 154.691 841.943 155.818C843.33 156.944 844.023 158.47 844.023 160.394ZM829.281 159.12V162.084H832.791C834.265 162.084 835.374 162.04 836.119 161.954C836.882 161.85 837.411 161.694 837.705 161.486C838 161.278 838.147 160.974 838.147 160.576C838.147 160.194 838.009 159.9 837.731 159.692C837.454 159.484 836.934 159.336 836.171 159.25C835.409 159.163 834.282 159.12 832.791 159.12H829.281ZM857.669 173.238C853.699 173.238 850.779 172.38 848.907 170.664C847.035 168.93 846.099 166.504 846.099 163.384C846.099 160.298 847.026 157.889 848.881 156.156C850.753 154.422 853.682 153.556 857.669 153.556C861.673 153.556 864.602 154.422 866.457 156.156C868.329 157.889 869.265 160.298 869.265 163.384C869.265 166.521 868.337 168.948 866.483 170.664C864.628 172.38 861.69 173.238 857.669 173.238ZM857.669 167.934C859.593 167.934 860.979 167.57 861.829 166.842C862.678 166.096 863.103 164.944 863.103 163.384C863.103 161.858 862.678 160.723 861.829 159.978C860.979 159.232 859.593 158.86 857.669 158.86C855.762 158.86 854.384 159.232 853.535 159.978C852.685 160.723 852.261 161.858 852.261 163.384C852.261 164.926 852.685 166.07 853.535 166.816C854.384 167.561 855.762 167.934 857.669 167.934ZM892.376 159.562C889.655 159.475 887.011 159.423 884.446 159.406V172.978H877.946V159.406C875.363 159.423 872.729 159.475 870.042 159.562V154.102H892.376V159.562ZM904.489 173.238C900.52 173.238 897.599 172.38 895.727 170.664C893.855 168.93 892.919 166.504 892.919 163.384C892.919 160.298 893.846 157.889 895.701 156.156C897.573 154.422 900.502 153.556 904.489 153.556C908.493 153.556 911.422 154.422 913.277 156.156C915.149 157.889 916.085 160.298 916.085 163.384C916.085 166.521 915.158 168.948 913.303 170.664C911.448 172.38 908.51 173.238 904.489 173.238ZM904.489 167.934C906.413 167.934 907.8 167.57 908.649 166.842C909.498 166.096 909.923 164.944 909.923 163.384C909.923 161.858 909.498 160.723 908.649 159.978C907.8 159.232 906.413 158.86 904.489 158.86C902.582 158.86 901.204 159.232 900.355 159.978C899.506 160.723 899.081 161.858 899.081 163.384C899.081 164.926 899.506 166.07 900.355 166.816C901.204 167.561 902.582 167.934 904.489 167.934ZM939.196 159.562C936.475 159.475 933.832 159.423 931.266 159.406V172.978H924.766V159.406C922.184 159.423 919.549 159.475 916.862 159.562V154.102H939.196V159.562ZM956.394 159.276C954.331 159.172 952.806 159.111 951.818 159.094V167.986C952.823 167.968 954.349 167.908 956.394 167.804V172.978H941.288V167.804C943.281 167.908 944.798 167.968 945.838 167.986V159.094C944.798 159.111 943.281 159.172 941.288 159.276V154.102H956.394V159.276ZM970.282 154.128C973.731 154.128 976.132 154.743 977.484 155.974C978.836 157.187 979.512 158.903 979.512 161.122C979.512 162.647 979.243 163.947 978.706 165.022C978.168 166.079 977.224 166.911 975.872 167.518C974.52 168.107 972.656 168.402 970.282 168.402H964.874V172.978H958.478C958.616 169.615 958.686 166.469 958.686 163.54C958.686 160.61 958.616 157.464 958.478 154.102H964.874V154.128H970.282ZM968.462 163.384C969.9 163.384 970.975 163.332 971.686 163.228C972.414 163.106 972.916 162.898 973.194 162.604C973.488 162.309 973.636 161.876 973.636 161.304C973.636 160.732 973.497 160.307 973.22 160.03C972.96 159.735 972.466 159.536 971.738 159.432C971.027 159.328 969.935 159.276 968.462 159.276H964.874V163.384H968.462ZM993.153 173.238C989.184 173.238 986.263 172.38 984.391 170.664C982.519 168.93 981.583 166.504 981.583 163.384C981.583 160.298 982.51 157.889 984.365 156.156C986.237 154.422 989.166 153.556 993.153 153.556C997.157 153.556 1000.09 154.422 1001.94 156.156C1003.81 157.889 1004.75 160.298 1004.75 163.384C1004.75 166.521 1003.82 168.948 1001.97 170.664C1000.11 172.38 997.174 173.238 993.153 173.238ZM993.153 167.934C995.077 167.934 996.464 167.57 997.313 166.842C998.162 166.096 998.587 164.944 998.587 163.384C998.587 161.858 998.162 160.723 997.313 159.978C996.464 159.232 995.077 158.86 993.153 158.86C991.246 158.86 989.868 159.232 989.019 159.978C988.17 160.723 987.745 161.858 987.745 163.384C987.745 164.926 988.17 166.07 989.019 166.816C989.868 167.561 991.246 167.934 993.153 167.934Z"
      fill="white" />
   <path d="M437.407 164.604H478.683C489.729 164.604 498.683 173.559 498.683 184.604V267.933"
      stroke="url(#paint2_linear_9_276)" stroke-width="2" stroke-linecap="round" stroke-linejoin="round" />
   <path d="M493.276 165.806H587.418C598.464 165.806 607.418 174.76 607.418 185.806V208.459"
      stroke="url(#paint3_linear_9_276)" stroke-width="2" stroke-linecap="round" stroke-linejoin="round" />
   <path d="M605.616 166.406H682.336C693.382 166.406 702.336 157.452 702.336 146.406V106.933"
      stroke="url(#paint4_linear_9_276)" stroke-width="2" stroke-linecap="round" stroke-linejoin="round" />
   <path d="M711.948 166.407H772.022" stroke="url(#paint5_linear_9_276)" stroke-width="2" stroke-linecap="round"
      stroke-linejoin="round" />
   <path d="M1109.64 166.407H1169.72" stroke="url(#paint6_linear_9_276)" stroke-width="2" stroke-linecap="round"
      stroke-linejoin="round" />
   <g filter="url(#filter1_d_9_276)">
      <rect x="1173.32" y="140.575" width="334.015" height="45.6567" rx="8" fill="url(#paint7_linear_9_276)"
         shape-rendering="crispEdges" />
      <rect x="1174.32" y="141.575" width="332.015" height="43.6567" rx="7" stroke="url(#paint8_linear_9_276)"
         stroke-width="2" shape-rendering="crispEdges" />
   </g>
   <path
      d="M1208.18 168.22C1214.76 168.185 1219.54 168.09 1222.5 167.934C1222.38 168.644 1222.3 169.381 1222.27 170.144C1222.25 170.889 1222.24 171.834 1222.24 172.978H1202.04C1202.18 169.615 1202.25 166.469 1202.25 163.54C1202.25 160.61 1202.18 157.464 1202.04 154.102H1222.24V158.808H1208.18V161.304C1209.01 161.321 1210.24 161.33 1211.87 161.33C1214.62 161.33 1217.48 161.278 1220.42 161.174V165.646C1217.48 165.542 1214.62 165.49 1211.87 165.49C1210.24 165.49 1209.01 165.498 1208.18 165.516V168.22ZM1246.4 154.128C1246.28 157.057 1246.22 160.194 1246.22 163.54C1246.22 166.902 1246.28 170.048 1246.4 172.978H1237.09L1230.8 158.782L1231.27 172.978H1224.59C1224.73 169.615 1224.79 166.469 1224.79 163.54C1224.79 160.628 1224.73 157.49 1224.59 154.128H1234.15L1240.47 168.714L1240.03 154.128H1246.4ZM1270.81 159.562C1268.09 159.475 1265.45 159.423 1262.88 159.406V172.978H1256.38V159.406C1253.8 159.423 1251.17 159.475 1248.48 159.562V154.102H1270.81V159.562ZM1293.78 160.394C1293.78 161.902 1293.41 163.176 1292.67 164.216C1291.94 165.256 1290.68 166.01 1288.9 166.478C1289.1 166.755 1289.25 166.972 1289.34 167.128L1293.55 172.978H1286.48C1285.71 171.556 1284.51 169.546 1282.86 166.946H1279.04V172.978H1272.91C1273.04 169.615 1273.11 166.469 1273.11 163.54C1273.11 160.61 1273.04 157.464 1272.91 154.102H1279.04V154.128H1284.37C1287.87 154.128 1290.32 154.691 1291.7 155.818C1293.09 156.944 1293.78 158.47 1293.78 160.394ZM1279.04 159.12V162.084H1282.55C1284.02 162.084 1285.13 162.04 1285.88 161.954C1286.64 161.85 1287.17 161.694 1287.47 161.486C1287.76 161.278 1287.91 160.974 1287.91 160.576C1287.91 160.194 1287.77 159.9 1287.49 159.692C1287.21 159.484 1286.69 159.336 1285.93 159.25C1285.17 159.163 1284.04 159.12 1282.55 159.12H1279.04ZM1301.99 168.22C1308.58 168.185 1313.36 168.09 1316.32 167.934C1316.2 168.644 1316.12 169.381 1316.09 170.144C1316.07 170.889 1316.06 171.834 1316.06 172.978H1295.86C1296 169.615 1296.07 166.469 1296.07 163.54C1296.07 160.61 1296 157.464 1295.86 154.102H1316.06V158.808H1301.99V161.304C1302.83 161.321 1304.06 161.33 1305.69 161.33C1308.44 161.33 1311.29 161.278 1314.24 161.174V165.646C1311.29 165.542 1308.44 165.49 1305.69 165.49C1304.06 165.49 1302.83 165.498 1301.99 165.516V168.22ZM1329.12 162.214H1340.22V172.978H1335.64L1335.1 168.376C1334.58 170.022 1333.65 171.244 1332.32 172.042C1330.98 172.839 1329.35 173.238 1327.43 173.238C1325.68 173.238 1324.12 172.848 1322.75 172.068C1321.4 171.288 1320.33 170.17 1319.55 168.714C1318.79 167.258 1318.41 165.559 1318.41 163.618C1318.41 160.515 1319.33 158.062 1321.19 156.26C1323.04 154.457 1325.93 153.556 1329.85 153.556C1332.08 153.556 1334.05 153.92 1335.75 154.648C1337.46 155.376 1338.92 156.502 1340.12 158.028C1339.34 158.426 1337.81 159.224 1335.54 160.42L1334.89 160.784C1334.21 160.108 1333.42 159.605 1332.52 159.276C1331.62 158.929 1330.67 158.756 1329.66 158.756C1328 158.756 1326.76 159.198 1325.95 160.082C1325.13 160.948 1324.72 162.023 1324.72 163.306C1324.72 164.692 1325.16 165.81 1326.02 166.66C1326.91 167.509 1328.25 167.934 1330.05 167.934C1330.83 167.934 1331.59 167.821 1332.32 167.596C1333.06 167.37 1333.68 166.98 1334.19 166.426H1329.12V162.214ZM1358.7 172.978C1358.37 171.99 1357.93 170.75 1357.38 169.26H1349.08L1347.78 172.978H1341.26L1348.54 154.102H1358.11L1365.44 172.978H1358.7ZM1355.9 165.204C1355.24 163.384 1354.56 161.564 1353.87 159.744L1353.24 158.054C1352.64 159.631 1351.74 162.014 1350.57 165.204H1355.9ZM1392.31 158.964H1378.17V161.694C1379.05 161.711 1380.38 161.72 1382.14 161.72C1385.19 161.72 1388.3 161.668 1391.45 161.564V166.66C1388.3 166.538 1384.97 166.478 1381.47 166.478C1380.01 166.478 1378.91 166.486 1378.17 166.504V172.978H1372.03C1372.17 169.615 1372.24 166.469 1372.24 163.54C1372.24 160.61 1372.17 157.464 1372.03 154.102H1392.31V158.964ZM1409.51 159.276C1407.44 159.172 1405.92 159.111 1404.93 159.094V167.986C1405.93 167.968 1407.46 167.908 1409.51 167.804V172.978H1394.4V167.804C1396.39 167.908 1397.91 167.968 1398.95 167.986V159.094C1397.91 159.111 1396.39 159.172 1394.4 159.276V154.102H1409.51V159.276ZM1433.4 154.128C1433.28 157.057 1433.22 160.194 1433.22 163.54C1433.22 166.902 1433.28 170.048 1433.4 172.978H1424.09L1417.8 158.782L1418.27 172.978H1411.59C1411.73 169.615 1411.8 166.469 1411.8 163.54C1411.8 160.628 1411.73 157.49 1411.59 154.128H1421.16L1427.47 168.714L1427.03 154.128H1433.4ZM1451.89 172.978C1451.56 171.99 1451.12 170.75 1450.56 169.26H1442.27L1440.97 172.978H1434.44L1441.72 154.102H1451.29L1458.62 172.978H1451.89ZM1449.08 165.204C1448.42 163.384 1447.74 161.564 1447.05 159.744L1446.43 158.054C1445.82 159.631 1444.93 162.014 1443.75 165.204H1449.08ZM1465.84 167.726C1470.87 167.691 1475.03 167.604 1478.32 167.466C1478.1 168.35 1477.96 169.199 1477.91 170.014C1477.86 170.828 1477.83 171.816 1477.83 172.978H1459.5C1459.64 169.615 1459.71 166.469 1459.71 163.54C1459.71 160.61 1459.64 157.464 1459.5 154.102H1465.84V167.726Z"
      fill="white" />
   <path d="M255.381 105.731V145.806C255.381 156.852 246.426 165.806 235.381 165.806H180.888"
      stroke="url(#paint9_linear_9_276)" stroke-width="2" stroke-linecap="round" stroke-linejoin="round" />
   <path
      d="M248.772 165.806H316.481C327.527 165.806 336.481 174.76 336.481 185.806V228.284M340.687 165.806H416.205C427.251 165.806 436.205 156.852 436.205 145.806V39.6494"
      stroke="url(#paint10_linear_9_276)" stroke-width="2" stroke-linecap="round" stroke-linejoin="round" />
   <g filter="url(#filter2_d_9_276)">
      <rect x="0.664185" y="140.575" width="181.425" height="45.6567" rx="8" fill="url(#paint11_linear_9_276)"
         shape-rendering="crispEdges" />
      <rect x="1.66418" y="141.575" width="179.425" height="43.6567" rx="7" stroke="url(#paint12_linear_9_276)"
         stroke-width="2" shape-rendering="crispEdges" />
   </g>
   <path
      d="M48.146 158.074C46.0833 157.97 44.558 157.91 43.57 157.892V166.784C44.5753 166.767 46.1007 166.706 48.146 166.602V171.776H33.04V166.602C35.0333 166.706 36.55 166.767 37.59 166.784V157.892C36.55 157.91 35.0333 157.97 33.04 158.074V152.9H48.146V158.074ZM72.0435 152.926C71.9221 155.856 71.8615 158.993 71.8615 162.338C71.8615 165.701 71.9221 168.847 72.0435 171.776H62.7355L56.4435 157.58L56.9115 171.776H50.2295C50.3681 168.414 50.4375 165.268 50.4375 162.338C50.4375 159.426 50.3681 156.289 50.2295 152.926H59.7975L66.1155 167.512L65.6735 152.926H72.0435ZM89.228 158.074C87.1654 157.97 85.64 157.91 84.652 157.892V166.784C85.6574 166.767 87.1827 166.706 89.228 166.602V171.776H74.122V166.602C76.1154 166.706 77.632 166.767 78.672 166.784V157.892C77.632 157.91 76.1154 157.97 74.122 158.074V152.9H89.228V158.074ZM102.751 172.036C98.8342 172.036 95.9482 171.204 94.0935 169.54C92.2388 167.876 91.3115 165.502 91.3115 162.416C91.3115 159.314 92.2388 156.861 94.0935 155.058C95.9482 153.256 98.8342 152.354 102.751 152.354C108.229 152.354 111.895 154.235 113.749 157.996C112.189 158.534 110.361 159.34 108.263 160.414C107.761 159.444 106.963 158.724 105.871 158.256C104.797 157.788 103.696 157.554 102.569 157.554C100.905 157.554 99.6662 157.996 98.8515 158.88C98.0368 159.747 97.6295 160.822 97.6295 162.104C97.6295 163.491 98.0628 164.626 98.9295 165.51C99.8135 166.377 101.157 166.81 102.959 166.81C104.398 166.81 105.542 166.576 106.391 166.108C107.241 165.623 107.865 164.86 108.263 163.82C109.685 164.583 111.505 165.441 113.723 166.394C112.857 168.492 111.409 169.956 109.381 170.788C107.353 171.62 105.143 172.036 102.751 172.036ZM130.945 158.074C128.882 157.97 127.357 157.91 126.369 157.892V166.784C127.374 166.767 128.899 166.706 130.945 166.602V171.776H115.839V166.602C117.832 166.706 119.349 166.767 120.389 166.784V157.892C119.349 157.91 117.832 157.97 115.839 158.074V152.9H130.945V158.074ZM144.598 172.036C140.629 172.036 137.708 171.178 135.836 169.462C133.964 167.729 133.028 165.302 133.028 162.182C133.028 159.097 133.956 156.688 135.81 154.954C137.682 153.221 140.612 152.354 144.598 152.354C148.602 152.354 151.532 153.221 153.386 154.954C155.258 156.688 156.194 159.097 156.194 162.182C156.194 165.32 155.267 167.746 153.412 169.462C151.558 171.178 148.62 172.036 144.598 172.036ZM144.598 166.732C146.522 166.732 147.909 166.368 148.758 165.64C149.608 164.895 150.032 163.742 150.032 162.182C150.032 160.657 149.608 159.522 148.758 158.776C147.909 158.031 146.522 157.658 144.598 157.658C142.692 157.658 141.314 158.031 140.464 158.776C139.615 159.522 139.19 160.657 139.19 162.182C139.19 163.725 139.615 164.869 140.464 165.614C141.314 166.36 142.692 166.732 144.598 166.732Z"
      fill="white" />
   <g filter="url(#filter3_d_9_276)">
      <rect x="173.679" y="50.4629" width="162.201" height="55.2687" rx="8" fill="url(#paint13_linear_9_276)"
         shape-rendering="crispEdges" />
      <rect x="174.679" y="51.4629" width="160.201" height="53.2687" rx="7" stroke="url(#paint14_linear_9_276)"
         stroke-width="2" shape-rendering="crispEdges" />
   </g>
   <path
      d="M210.482 61.1328H214.259C215.874 61.1328 217.097 61.3597 217.927 61.8135C218.758 62.2673 219.173 63.0641 219.173 64.2041C219.173 64.6634 219.098 65.0785 218.948 65.4492C218.805 65.82 218.594 66.1243 218.318 66.3623C218.041 66.6003 217.703 66.7552 217.305 66.8271V66.9102C217.709 66.9932 218.074 67.137 218.401 67.3418C218.727 67.541 218.987 67.8343 219.181 68.2217C219.38 68.6035 219.48 69.1126 219.48 69.749C219.48 70.485 219.3 71.1159 218.94 71.6416C218.58 72.1673 218.066 72.5713 217.396 72.8535C216.732 73.1302 215.941 73.2686 215.022 73.2686H210.482V61.1328ZM213.055 65.939H214.549C215.296 65.939 215.814 65.8228 216.101 65.5903C216.389 65.3524 216.533 65.0037 216.533 64.5444C216.533 64.0796 216.361 63.7476 216.018 63.5483C215.681 63.3436 215.144 63.2412 214.408 63.2412H213.055V65.939ZM213.055 67.981V71.1436H214.732C215.506 71.1436 216.046 70.9941 216.35 70.6953C216.655 70.3965 216.807 69.9953 216.807 69.4917C216.807 69.1929 216.74 68.93 216.608 68.7031C216.475 68.4762 216.251 68.2992 215.935 68.1719C215.625 68.0446 215.197 67.981 214.649 67.981H213.055ZM225.44 61.1328C226.541 61.1328 227.448 61.2656 228.162 61.5312C228.882 61.7969 229.416 62.1981 229.764 62.7349C230.113 63.2716 230.287 63.9495 230.287 64.7686C230.287 65.3219 230.182 65.8062 229.972 66.2212C229.762 66.6362 229.485 66.9876 229.142 67.2754C228.799 67.5632 228.428 67.7983 228.03 67.981L231.599 73.2686H228.743L225.846 68.6118H224.477V73.2686H221.904V61.1328H225.44ZM225.257 63.2412H224.477V66.52H225.307C226.159 66.52 226.768 66.3789 227.133 66.0967C227.504 65.8089 227.689 65.3883 227.689 64.835C227.689 64.2594 227.49 63.8499 227.092 63.6064C226.699 63.363 226.087 63.2412 225.257 63.2412ZM233.126 73.2686V61.1328H235.699V73.2686H233.126ZM245.743 73.2686H238.754V61.1328H245.743V63.2412H241.327V65.9058H245.436V68.0142H241.327V71.1436H245.743V73.2686ZM250.815 73.2686H248.283V61.1328H255.239V63.2412H250.815V66.3706H254.932V68.4707H250.815V73.2686ZM257.614 73.2686V61.1328H260.187V73.2686H257.614ZM274.008 73.2686H270.737L265.458 64.0879H265.383C265.405 64.4697 265.425 64.8543 265.441 65.2417C265.458 65.6291 265.474 66.0164 265.491 66.4038C265.508 66.7856 265.524 67.1702 265.541 67.5576V73.2686H263.241V61.1328H266.487L271.758 70.2222H271.816C271.805 69.8459 271.791 69.4723 271.775 69.1016C271.758 68.7308 271.741 68.36 271.725 67.9893C271.714 67.6185 271.703 67.2477 271.692 66.877V61.1328H274.008V73.2686ZM281.677 66.4536H286.492V72.7456C285.856 72.9559 285.194 73.1247 284.508 73.252C283.822 73.3737 283.044 73.4346 282.176 73.4346C280.969 73.4346 279.945 73.1966 279.104 72.7207C278.263 72.2448 277.624 71.542 277.187 70.6123C276.75 69.6826 276.531 68.5399 276.531 67.1841C276.531 65.9113 276.774 64.8101 277.261 63.8804C277.754 62.9507 278.471 62.2313 279.411 61.7222C280.358 61.2131 281.511 60.9585 282.873 60.9585C283.515 60.9585 284.148 61.0277 284.774 61.166C285.399 61.3044 285.966 61.4842 286.475 61.7056L285.62 63.7642C285.25 63.576 284.826 63.4183 284.35 63.291C283.874 63.1637 283.376 63.1001 282.856 63.1001C282.109 63.1001 281.459 63.2716 280.906 63.6147C280.358 63.9578 279.932 64.4393 279.627 65.0591C279.328 65.6733 279.179 66.3983 279.179 67.2339C279.179 68.0252 279.287 68.728 279.503 69.3423C279.718 69.951 280.059 70.4297 280.524 70.7783C280.989 71.1214 281.594 71.293 282.342 71.293C282.707 71.293 283.014 71.2764 283.263 71.2432C283.517 71.2044 283.755 71.1657 283.977 71.127V68.5952H281.677V66.4536ZM300.794 73.2686H293.805V61.1328H300.794V63.2412H296.378V65.9058H300.487V68.0142H296.378V71.1436H300.794V73.2686ZM190.527 96.2686V84.1328H193.1V96.2686H190.527ZM206.921 96.2686H203.65L198.371 87.0879H198.296C198.318 87.4697 198.338 87.8543 198.354 88.2417C198.371 88.6291 198.387 89.0164 198.404 89.4038C198.421 89.7856 198.437 90.1702 198.454 90.5576V96.2686H196.155V84.1328H199.4L204.671 93.2222H204.729C204.718 92.8459 204.704 92.4723 204.688 92.1016C204.671 91.7308 204.655 91.36 204.638 90.9893C204.627 90.6185 204.616 90.2477 204.605 89.877V84.1328H206.921V96.2686ZM219.505 84.1328L215.379 96.2686H212.573L208.456 84.1328H211.054L213.337 91.3545C213.376 91.4762 213.44 91.7059 213.528 92.0435C213.617 92.3755 213.705 92.7297 213.794 93.106C213.888 93.4767 213.951 93.7839 213.985 94.0273C214.018 93.7839 214.076 93.4767 214.159 93.106C214.247 92.7352 214.333 92.3838 214.416 92.0518C214.505 91.7142 214.568 91.4818 214.607 91.3545L216.906 84.1328H219.505ZM228.03 96.2686H221.04V84.1328H228.03V86.2412H223.614V88.9058H227.722V91.0142H223.614V94.1436H228.03V96.2686ZM237.733 92.8984C237.733 93.6178 237.559 94.2432 237.21 94.7744C236.862 95.3057 236.352 95.7152 235.683 96.0029C235.019 96.2907 234.211 96.4346 233.259 96.4346C232.838 96.4346 232.426 96.4069 232.022 96.3516C231.624 96.2962 231.239 96.216 230.868 96.1108C230.503 96.0002 230.155 95.8646 229.822 95.7041V93.3135C230.398 93.568 230.996 93.7977 231.615 94.0024C232.235 94.2072 232.85 94.3096 233.458 94.3096C233.879 94.3096 234.216 94.2542 234.471 94.1436C234.731 94.0329 234.919 93.8807 235.035 93.687C235.152 93.4933 235.21 93.272 235.21 93.0229C235.21 92.7186 235.107 92.4585 234.903 92.2427C234.698 92.0269 234.416 91.8249 234.056 91.6367C233.702 91.4486 233.301 91.2466 232.852 91.0308C232.57 90.8979 232.263 90.7375 231.931 90.5493C231.599 90.3556 231.283 90.1204 230.985 89.8438C230.686 89.5671 230.44 89.2323 230.246 88.8394C230.058 88.4409 229.964 87.965 229.964 87.4116C229.964 86.6867 230.13 86.0669 230.462 85.5522C230.794 85.0376 231.267 84.6447 231.881 84.3735C232.501 84.0968 233.231 83.9585 234.072 83.9585C234.703 83.9585 235.304 84.0332 235.874 84.1826C236.449 84.3265 237.05 84.5368 237.675 84.8135L236.845 86.814C236.286 86.5871 235.785 86.4128 235.343 86.291C234.9 86.1637 234.449 86.1001 233.989 86.1001C233.669 86.1001 233.395 86.1527 233.168 86.2578C232.941 86.3574 232.769 86.5013 232.653 86.6895C232.537 86.8721 232.479 87.0851 232.479 87.3286C232.479 87.6164 232.562 87.8599 232.728 88.0591C232.899 88.2528 233.154 88.4409 233.491 88.6235C233.835 88.8062 234.261 89.0192 234.77 89.2627C235.39 89.556 235.918 89.8631 236.355 90.1841C236.798 90.4995 237.138 90.873 237.376 91.3047C237.614 91.7308 237.733 92.262 237.733 92.8984ZM244.614 96.2686H242.041V86.2744H238.746V84.1328H247.91V86.2744H244.614V96.2686ZM249.778 96.2686V84.1328H252.351V96.2686H249.778ZM260.012 89.4536H264.827V95.7456C264.19 95.9559 263.529 96.1247 262.843 96.252C262.157 96.3737 261.379 96.4346 260.51 96.4346C259.304 96.4346 258.28 96.1966 257.439 95.7207C256.598 95.2448 255.959 94.542 255.522 93.6123C255.085 92.6826 254.866 91.5399 254.866 90.1841C254.866 88.9113 255.109 87.8101 255.596 86.8804C256.089 85.9507 256.806 85.2313 257.746 84.7222C258.693 84.2131 259.846 83.9585 261.208 83.9585C261.85 83.9585 262.483 84.0277 263.109 84.166C263.734 84.3044 264.301 84.4842 264.81 84.7056L263.955 86.7642C263.585 86.576 263.161 86.4183 262.685 86.291C262.209 86.1637 261.711 86.1001 261.191 86.1001C260.444 86.1001 259.794 86.2716 259.24 86.6147C258.693 86.9578 258.267 87.4393 257.962 88.0591C257.663 88.6733 257.514 89.3983 257.514 90.2339C257.514 91.0252 257.622 91.728 257.838 92.3423C258.053 92.951 258.394 93.4297 258.859 93.7783C259.323 94.1214 259.929 94.293 260.676 94.293C261.042 94.293 261.349 94.2764 261.598 94.2432C261.852 94.2044 262.09 94.1657 262.312 94.127V91.5952H260.012V89.4536ZM275.153 96.2686L274.273 93.3799H269.849L268.969 96.2686H266.197L270.48 84.083H273.626L277.926 96.2686H275.153ZM273.659 91.2217L272.779 88.3994C272.724 88.2113 272.649 87.9705 272.555 87.6772C272.466 87.3784 272.375 87.0768 272.281 86.7725C272.192 86.4626 272.121 86.1942 272.065 85.9673C272.01 86.1942 271.932 86.4764 271.833 86.814C271.739 87.146 271.647 87.4614 271.559 87.7603C271.47 88.0591 271.407 88.2721 271.368 88.3994L270.496 91.2217H273.659ZM284.616 86.1001C284.123 86.1001 283.686 86.1969 283.304 86.3906C282.928 86.5788 282.61 86.8527 282.35 87.2124C282.095 87.5721 281.902 88.0065 281.769 88.5156C281.636 89.0247 281.57 89.5975 281.57 90.2339C281.57 91.0916 281.675 91.8249 281.885 92.4336C282.101 93.0368 282.433 93.4989 282.881 93.8198C283.329 94.1353 283.908 94.293 284.616 94.293C285.108 94.293 285.601 94.2376 286.093 94.127C286.592 94.0163 287.131 93.8586 287.712 93.6538V95.812C287.175 96.0334 286.647 96.1911 286.127 96.2852C285.607 96.3848 285.023 96.4346 284.375 96.4346C283.125 96.4346 282.095 96.1772 281.287 95.6626C280.485 95.1424 279.89 94.4175 279.503 93.4878C279.115 92.5526 278.922 91.4624 278.922 90.2173C278.922 89.2987 279.046 88.4575 279.295 87.6938C279.544 86.9302 279.909 86.2689 280.391 85.71C280.872 85.151 281.467 84.7194 282.176 84.415C282.884 84.1107 283.697 83.9585 284.616 83.9585C285.219 83.9585 285.822 84.036 286.426 84.1909C287.034 84.3403 287.615 84.5479 288.169 84.8135L287.339 86.9053C286.885 86.6895 286.428 86.5013 285.969 86.3408C285.51 86.1803 285.059 86.1001 284.616 86.1001ZM290.302 96.2686V84.1328H292.875V96.2686H290.302ZM306.945 90.1841C306.945 91.1193 306.829 91.9715 306.596 92.7407C306.364 93.5044 306.01 94.1629 305.534 94.7163C305.064 95.2697 304.466 95.6958 303.741 95.9946C303.016 96.2879 302.158 96.4346 301.168 96.4346C300.177 96.4346 299.319 96.2879 298.594 95.9946C297.87 95.6958 297.269 95.2697 296.793 94.7163C296.323 94.1629 295.971 93.5016 295.739 92.7324C295.507 91.9632 295.39 91.1082 295.39 90.1675C295.39 88.9113 295.595 87.8184 296.005 86.8887C296.42 85.9535 297.056 85.2285 297.914 84.7139C298.772 84.1992 299.862 83.9419 301.184 83.9419C302.501 83.9419 303.583 84.1992 304.43 84.7139C305.282 85.2285 305.913 85.9535 306.322 86.8887C306.738 87.8239 306.945 88.9224 306.945 90.1841ZM298.088 90.1841C298.088 91.0308 298.193 91.7612 298.404 92.3755C298.619 92.9842 298.954 93.4546 299.408 93.7866C299.862 94.1131 300.448 94.2764 301.168 94.2764C301.898 94.2764 302.49 94.1131 302.944 93.7866C303.398 93.4546 303.727 92.9842 303.932 92.3755C304.142 91.7612 304.247 91.0308 304.247 90.1841C304.247 88.9113 304.009 87.9097 303.533 87.1792C303.058 86.4487 302.274 86.0835 301.184 86.0835C300.459 86.0835 299.867 86.2495 299.408 86.5815C298.954 86.908 298.619 87.3784 298.404 87.9927C298.193 88.6014 298.088 89.3319 298.088 90.1841ZM304.43 80.3892V80.5635C304.269 80.7184 304.059 80.9093 303.799 81.1362C303.539 81.3631 303.26 81.6011 302.961 81.8501C302.662 82.0936 302.369 82.3288 302.081 82.5557C301.793 82.777 301.541 82.9624 301.325 83.1118H299.64V82.8877C299.823 82.6774 300.033 82.4284 300.271 82.1406C300.515 81.8473 300.755 81.5457 300.993 81.2358C301.231 80.9259 301.431 80.6437 301.591 80.3892H304.43ZM320.226 96.2686H316.956L311.676 87.0879H311.602C311.624 87.4697 311.643 87.8543 311.66 88.2417C311.676 88.6291 311.693 89.0164 311.71 89.4038C311.726 89.7856 311.743 90.1702 311.76 90.5576V96.2686H309.46V84.1328H312.706L317.977 93.2222H318.035C318.024 92.8459 318.01 92.4723 317.993 92.1016C317.977 91.7308 317.96 91.36 317.944 90.9893C317.933 90.6185 317.921 90.2477 317.91 89.877V84.1328H320.226V96.2686Z"
      fill="white" />
   <path d="M1109.64 105.731V145.806C1109.64 156.852 1100.69 165.806 1089.64 165.806H1035.15"
      stroke="url(#paint15_linear_9_276)" stroke-width="2" stroke-linecap="round" stroke-linejoin="round" />
   <g filter="url(#filter4_d_9_276)">
      <rect x="1027.94" y="50.4629" width="162.201" height="55.2687" rx="8" fill="url(#paint16_linear_9_276)"
         shape-rendering="crispEdges" />
      <rect x="1028.94" y="51.4629" width="160.201" height="53.2687" rx="7" stroke="url(#paint17_linear_9_276)"
         stroke-width="2" shape-rendering="crispEdges" />
   </g>
   <path
      d="M1074.84 73.2686H1072.27V68.0308H1067.47V73.2686H1064.89V61.1328H1067.47V65.8892H1072.27V61.1328H1074.84V73.2686ZM1088.92 67.1841C1088.92 68.1193 1088.81 68.9715 1088.57 69.7407C1088.34 70.5044 1087.99 71.1629 1087.51 71.7163C1087.04 72.2697 1086.44 72.6958 1085.72 72.9946C1084.99 73.2879 1084.14 73.4346 1083.15 73.4346C1082.16 73.4346 1081.3 73.2879 1080.57 72.9946C1079.85 72.6958 1079.25 72.2697 1078.77 71.7163C1078.3 71.1629 1077.95 70.5016 1077.72 69.7324C1077.48 68.9632 1077.37 68.1082 1077.37 67.1675C1077.37 65.9113 1077.57 64.8184 1077.98 63.8887C1078.4 62.9535 1079.03 62.2285 1079.89 61.7139C1080.75 61.1992 1081.84 60.9419 1083.16 60.9419C1084.48 60.9419 1085.56 61.1992 1086.41 61.7139C1087.26 62.2285 1087.89 62.9535 1088.3 63.8887C1088.72 64.8239 1088.92 65.9224 1088.92 67.1841ZM1080.07 67.1841C1080.07 68.0308 1080.17 68.7612 1080.38 69.3755C1080.6 69.9842 1080.93 70.4546 1081.39 70.7866C1081.84 71.1131 1082.43 71.2764 1083.15 71.2764C1083.88 71.2764 1084.47 71.1131 1084.92 70.7866C1085.38 70.4546 1085.71 69.9842 1085.91 69.3755C1086.12 68.7612 1086.23 68.0308 1086.23 67.1841C1086.23 65.9113 1085.99 64.9097 1085.51 64.1792C1085.04 63.4487 1084.25 63.0835 1083.16 63.0835C1082.44 63.0835 1081.85 63.2495 1081.39 63.5815C1080.93 63.908 1080.6 64.3784 1080.38 64.9927C1080.17 65.6014 1080.07 66.3319 1080.07 67.1841ZM1098.6 69.8984C1098.6 70.6178 1098.43 71.2432 1098.08 71.7744C1097.73 72.3057 1097.22 72.7152 1096.55 73.0029C1095.89 73.2907 1095.08 73.4346 1094.13 73.4346C1093.71 73.4346 1093.29 73.4069 1092.89 73.3516C1092.49 73.2962 1092.11 73.216 1091.74 73.1108C1091.37 73.0002 1091.02 72.8646 1090.69 72.7041V70.3135C1091.27 70.568 1091.86 70.7977 1092.48 71.0024C1093.1 71.2072 1093.72 71.3096 1094.33 71.3096C1094.75 71.3096 1095.08 71.2542 1095.34 71.1436C1095.6 71.0329 1095.79 70.8807 1095.9 70.687C1096.02 70.4933 1096.08 70.272 1096.08 70.0229C1096.08 69.7186 1095.98 69.4585 1095.77 69.2427C1095.57 69.0269 1095.28 68.8249 1094.92 68.6367C1094.57 68.4486 1094.17 68.2466 1093.72 68.0308C1093.44 67.8979 1093.13 67.7375 1092.8 67.5493C1092.47 67.3556 1092.15 67.1204 1091.85 66.8438C1091.55 66.5671 1091.31 66.2323 1091.11 65.8394C1090.93 65.4409 1090.83 64.965 1090.83 64.4116C1090.83 63.6867 1091 63.0669 1091.33 62.5522C1091.66 62.0376 1092.14 61.6447 1092.75 61.3735C1093.37 61.0968 1094.1 60.9585 1094.94 60.9585C1095.57 60.9585 1096.17 61.0332 1096.74 61.1826C1097.32 61.3265 1097.92 61.5368 1098.54 61.8135L1097.71 63.814C1097.15 63.5871 1096.65 63.4128 1096.21 63.291C1095.77 63.1637 1095.32 63.1001 1094.86 63.1001C1094.54 63.1001 1094.26 63.1527 1094.04 63.2578C1093.81 63.3574 1093.64 63.5013 1093.52 63.6895C1093.41 63.8721 1093.35 64.0851 1093.35 64.3286C1093.35 64.6164 1093.43 64.8599 1093.6 65.0591C1093.77 65.2528 1094.02 65.4409 1094.36 65.6235C1094.7 65.8062 1095.13 66.0192 1095.64 66.2627C1096.26 66.556 1096.79 66.8631 1097.22 67.1841C1097.67 67.4995 1098.01 67.873 1098.24 68.3047C1098.48 68.7308 1098.6 69.262 1098.6 69.8984ZM1105.48 73.2686H1102.91V63.2744H1099.61V61.1328H1108.78V63.2744H1105.48V73.2686ZM1110.65 73.2686V61.1328H1113.22V73.2686H1110.65ZM1127.04 73.2686H1123.77L1118.49 64.0879H1118.42C1118.44 64.4697 1118.46 64.8543 1118.47 65.2417C1118.49 65.6291 1118.51 66.0164 1118.52 66.4038C1118.54 66.7856 1118.56 67.1702 1118.57 67.5576V73.2686H1116.27V61.1328H1119.52L1124.79 70.2222H1124.85C1124.84 69.8459 1124.82 69.4723 1124.81 69.1016C1124.79 68.7308 1124.77 68.36 1124.76 67.9893C1124.75 67.6185 1124.74 67.2477 1124.72 66.877V61.1328H1127.04V73.2686ZM1134.71 66.4536H1139.52V72.7456C1138.89 72.9559 1138.23 73.1247 1137.54 73.252C1136.85 73.3737 1136.08 73.4346 1135.21 73.4346C1134 73.4346 1132.98 73.1966 1132.14 72.7207C1131.3 72.2448 1130.66 71.542 1130.22 70.6123C1129.78 69.6826 1129.56 68.5399 1129.56 67.1841C1129.56 65.9113 1129.81 64.8101 1130.29 63.8804C1130.79 62.9507 1131.5 62.2313 1132.44 61.7222C1133.39 61.2131 1134.54 60.9585 1135.91 60.9585C1136.55 60.9585 1137.18 61.0277 1137.81 61.166C1138.43 61.3044 1139 61.4842 1139.51 61.7056L1138.65 63.7642C1138.28 63.576 1137.86 63.4183 1137.38 63.291C1136.91 63.1637 1136.41 63.1001 1135.89 63.1001C1135.14 63.1001 1134.49 63.2716 1133.94 63.6147C1133.39 63.9578 1132.96 64.4393 1132.66 65.0591C1132.36 65.6733 1132.21 66.3983 1132.21 67.2339C1132.21 68.0252 1132.32 68.728 1132.54 69.3423C1132.75 69.951 1133.09 70.4297 1133.56 70.7783C1134.02 71.1214 1134.63 71.293 1135.37 71.293C1135.74 71.293 1136.05 71.2764 1136.3 71.2432C1136.55 71.2044 1136.79 71.1657 1137.01 71.127V68.5952H1134.71V66.4536ZM1150.61 66.1299L1153.15 61.1328H1155.92L1151.89 68.5454V73.2686H1149.34V68.6284L1145.31 61.1328H1148.1L1150.61 66.1299ZM1080.85 90.0845C1080.85 91.4513 1080.59 92.5941 1080.07 93.5127C1079.55 94.4258 1078.79 95.1147 1077.8 95.5796C1076.81 96.0389 1075.62 96.2686 1074.22 96.2686H1070.79V84.1328H1074.6C1075.87 84.1328 1076.97 84.3597 1077.91 84.8135C1078.84 85.2617 1079.57 85.9285 1080.08 86.814C1080.6 87.6938 1080.85 88.784 1080.85 90.0845ZM1078.18 90.1509C1078.18 89.2544 1078.05 88.5184 1077.78 87.9429C1077.52 87.3618 1077.14 86.9329 1076.62 86.6562C1076.11 86.3796 1075.48 86.2412 1074.73 86.2412H1073.36V94.1436H1074.46C1075.72 94.1436 1076.65 93.8088 1077.26 93.1392C1077.87 92.4696 1078.18 91.4735 1078.18 90.1509ZM1094.38 90.1841C1094.38 91.1193 1094.27 91.9715 1094.04 92.7407C1093.8 93.5044 1093.45 94.1629 1092.97 94.7163C1092.5 95.2697 1091.91 95.6958 1091.18 95.9946C1090.46 96.2879 1089.6 96.4346 1088.61 96.4346C1087.62 96.4346 1086.76 96.2879 1086.03 95.9946C1085.31 95.6958 1084.71 95.2697 1084.23 94.7163C1083.76 94.1629 1083.41 93.5016 1083.18 92.7324C1082.95 91.9632 1082.83 91.1082 1082.83 90.1675C1082.83 88.9113 1083.03 87.8184 1083.44 86.8887C1083.86 85.9535 1084.5 85.2285 1085.35 84.7139C1086.21 84.1992 1087.3 83.9419 1088.62 83.9419C1089.94 83.9419 1091.02 84.1992 1091.87 84.7139C1092.72 85.2285 1093.35 85.9535 1093.76 86.8887C1094.18 87.8239 1094.38 88.9224 1094.38 90.1841ZM1085.53 90.1841C1085.53 91.0308 1085.63 91.7612 1085.84 92.3755C1086.06 92.9842 1086.39 93.4546 1086.85 93.7866C1087.3 94.1131 1087.89 94.2764 1088.61 94.2764C1089.34 94.2764 1089.93 94.1131 1090.38 93.7866C1090.84 93.4546 1091.17 92.9842 1091.37 92.3755C1091.58 91.7612 1091.69 91.0308 1091.69 90.1841C1091.69 88.9113 1091.45 87.9097 1090.97 87.1792C1090.5 86.4487 1089.71 86.0835 1088.62 86.0835C1087.9 86.0835 1087.31 86.2495 1086.85 86.5815C1086.39 86.908 1086.06 87.3784 1085.84 87.9927C1085.63 88.6014 1085.53 89.3319 1085.53 90.1841ZM1102.04 96.2686L1099.12 86.7476H1099.04C1099.05 86.9744 1099.07 87.3175 1099.09 87.7769C1099.12 88.2306 1099.14 88.7148 1099.17 89.2295C1099.19 89.7441 1099.2 90.209 1099.2 90.624V96.2686H1096.9V84.1328H1100.4L1103.28 93.4131H1103.32L1106.37 84.1328H1109.87V96.2686H1107.48V90.5244C1107.48 90.1426 1107.48 89.7026 1107.49 89.2046C1107.51 88.7065 1107.53 88.2334 1107.55 87.7852C1107.57 87.3314 1107.59 86.991 1107.6 86.7642H1107.53L1104.4 96.2686H1102.04ZM1112.94 96.2686V84.1328H1115.51V96.2686H1112.94ZM1129.33 96.2686H1126.06L1120.78 87.0879H1120.71C1120.73 87.4697 1120.75 87.8543 1120.76 88.2417C1120.78 88.6291 1120.8 89.0164 1120.81 89.4038C1120.83 89.7856 1120.85 90.1702 1120.86 90.5576V96.2686H1118.57V84.1328H1121.81L1127.08 93.2222H1127.14C1127.13 92.8459 1127.11 92.4723 1127.1 92.1016C1127.08 91.7308 1127.07 91.36 1127.05 90.9893C1127.04 90.6185 1127.03 90.2477 1127.02 89.877V84.1328H1129.33V96.2686ZM1132.39 96.2686V84.1328H1134.97V96.2686H1132.39ZM1149.04 90.1841C1149.04 91.1193 1148.92 91.9715 1148.69 92.7407C1148.46 93.5044 1148.1 94.1629 1147.63 94.7163C1147.16 95.2697 1146.56 95.6958 1145.83 95.9946C1145.11 96.2879 1144.25 96.4346 1143.26 96.4346C1142.27 96.4346 1141.41 96.2879 1140.69 95.9946C1139.96 95.6958 1139.36 95.2697 1138.89 94.7163C1138.42 94.1629 1138.06 93.5016 1137.83 92.7324C1137.6 91.9632 1137.48 91.1082 1137.48 90.1675C1137.48 88.9113 1137.69 87.8184 1138.1 86.8887C1138.51 85.9535 1139.15 85.2285 1140.01 84.7139C1140.86 84.1992 1141.95 83.9419 1143.28 83.9419C1144.59 83.9419 1145.68 84.1992 1146.52 84.7139C1147.37 85.2285 1148.01 85.9535 1148.41 86.8887C1148.83 87.8239 1149.04 88.9224 1149.04 90.1841ZM1140.18 90.1841C1140.18 91.0308 1140.29 91.7612 1140.5 92.3755C1140.71 92.9842 1141.05 93.4546 1141.5 93.7866C1141.95 94.1131 1142.54 94.2764 1143.26 94.2764C1143.99 94.2764 1144.58 94.1131 1145.04 93.7866C1145.49 93.4546 1145.82 92.9842 1146.02 92.3755C1146.23 91.7612 1146.34 91.0308 1146.34 90.1841C1146.34 88.9113 1146.1 87.9097 1145.63 87.1792C1145.15 86.4487 1144.37 86.0835 1143.28 86.0835C1142.55 86.0835 1141.96 86.2495 1141.5 86.5815C1141.05 86.908 1140.71 87.3784 1140.5 87.9927C1140.29 88.6014 1140.18 89.3319 1140.18 90.1841Z"
      fill="white" />
   <g filter="url(#filter5_d_9_276)">
      <rect x="267.396" y="227.082" width="135.769" height="39.6493" rx="8" fill="url(#paint18_linear_9_276)"
         shape-rendering="crispEdges" />
      <rect x="268.396" y="228.082" width="133.769" height="37.6493" rx="7" stroke="url(#paint19_linear_9_276)"
         stroke-width="2" shape-rendering="crispEdges" />
   </g>
   <path
      d="M298.378 241.357H302.155C303.77 241.357 304.993 241.584 305.823 242.038C306.654 242.491 307.069 243.288 307.069 244.428C307.069 244.888 306.994 245.303 306.844 245.673C306.701 246.044 306.49 246.348 306.214 246.586C305.937 246.824 305.599 246.979 305.201 247.051V247.134C305.605 247.217 305.97 247.361 306.297 247.566C306.623 247.765 306.883 248.058 307.077 248.446C307.276 248.828 307.376 249.337 307.376 249.973C307.376 250.709 307.196 251.34 306.836 251.866C306.476 252.391 305.962 252.795 305.292 253.078C304.628 253.354 303.837 253.493 302.918 253.493H298.378V241.357ZM300.951 246.163H302.445C303.192 246.163 303.71 246.047 303.997 245.814C304.285 245.576 304.429 245.228 304.429 244.769C304.429 244.304 304.257 243.972 303.914 243.772C303.577 243.568 303.04 243.465 302.304 243.465H300.951V246.163ZM300.951 248.205V251.368H302.628C303.402 251.368 303.942 251.218 304.246 250.919C304.551 250.621 304.703 250.219 304.703 249.716C304.703 249.417 304.636 249.154 304.504 248.927C304.371 248.7 304.147 248.523 303.831 248.396C303.521 248.269 303.093 248.205 302.545 248.205H300.951ZM320.815 247.408C320.815 248.343 320.698 249.196 320.466 249.965C320.234 250.729 319.879 251.387 319.404 251.94C318.933 252.494 318.336 252.92 317.611 253.219C316.886 253.512 316.028 253.659 315.037 253.659C314.047 253.659 313.189 253.512 312.464 253.219C311.739 252.92 311.139 252.494 310.663 251.94C310.192 251.387 309.841 250.726 309.609 249.957C309.376 249.187 309.26 248.332 309.26 247.392C309.26 246.135 309.465 245.042 309.874 244.113C310.289 243.178 310.926 242.453 311.783 241.938C312.641 241.423 313.731 241.166 315.054 241.166C316.371 241.166 317.453 241.423 318.3 241.938C319.152 242.453 319.783 243.178 320.192 244.113C320.607 245.048 320.815 246.146 320.815 247.408ZM311.958 247.408C311.958 248.255 312.063 248.985 312.273 249.6C312.489 250.208 312.824 250.679 313.278 251.011C313.731 251.337 314.318 251.5 315.037 251.5C315.768 251.5 316.36 251.337 316.814 251.011C317.267 250.679 317.597 250.208 317.801 249.6C318.012 248.985 318.117 248.255 318.117 247.408C318.117 246.135 317.879 245.134 317.403 244.403C316.927 243.673 316.144 243.308 315.054 243.308C314.329 243.308 313.737 243.474 313.278 243.806C312.824 244.132 312.489 244.603 312.273 245.217C312.063 245.826 311.958 246.556 311.958 247.408ZM328.485 243.324C327.992 243.324 327.555 243.421 327.173 243.615C326.797 243.803 326.479 244.077 326.218 244.437C325.964 244.796 325.77 245.231 325.637 245.74C325.505 246.249 325.438 246.822 325.438 247.458C325.438 248.316 325.543 249.049 325.754 249.658C325.969 250.261 326.301 250.723 326.75 251.044C327.198 251.359 327.776 251.517 328.485 251.517C328.977 251.517 329.47 251.462 329.962 251.351C330.46 251.24 331 251.083 331.581 250.878V253.036C331.044 253.257 330.516 253.415 329.995 253.509C329.475 253.609 328.891 253.659 328.244 253.659C326.993 253.659 325.964 253.401 325.156 252.887C324.354 252.367 323.759 251.642 323.371 250.712C322.984 249.777 322.79 248.687 322.79 247.441C322.79 246.523 322.915 245.682 323.164 244.918C323.413 244.154 323.778 243.493 324.26 242.934C324.741 242.375 325.336 241.944 326.044 241.639C326.753 241.335 327.566 241.183 328.485 241.183C329.088 241.183 329.691 241.26 330.294 241.415C330.903 241.564 331.484 241.772 332.037 242.038L331.207 244.129C330.753 243.914 330.297 243.725 329.838 243.565C329.378 243.404 328.927 243.324 328.485 243.324ZM341.16 253.493H334.171V241.357H341.16V243.465H336.744V246.13H340.853V248.238H336.744V251.368H341.16V253.493ZM348.382 253.493H345.808V243.499H342.513V241.357H351.677V243.499H348.382V253.493ZM364.56 247.408C364.56 248.343 364.444 249.196 364.211 249.965C363.979 250.729 363.625 251.387 363.149 251.94C362.678 252.494 362.081 252.92 361.356 253.219C360.631 253.512 359.773 253.659 358.782 253.659C357.792 253.659 356.934 253.512 356.209 253.219C355.484 252.92 354.884 252.494 354.408 251.94C353.938 251.387 353.586 250.726 353.354 249.957C353.121 249.187 353.005 248.332 353.005 247.392C353.005 246.135 353.21 245.042 353.619 244.113C354.034 243.178 354.671 242.453 355.529 241.938C356.386 241.423 357.476 241.166 358.799 241.166C360.116 241.166 361.198 241.423 362.045 241.938C362.897 242.453 363.528 243.178 363.937 244.113C364.352 245.048 364.56 246.146 364.56 247.408ZM355.703 247.408C355.703 248.255 355.808 248.985 356.018 249.6C356.234 250.208 356.569 250.679 357.023 251.011C357.476 251.337 358.063 251.5 358.782 251.5C359.513 251.5 360.105 251.337 360.559 251.011C361.013 250.679 361.342 250.208 361.547 249.6C361.757 248.985 361.862 248.255 361.862 247.408C361.862 246.135 361.624 245.134 361.148 244.403C360.672 243.673 359.889 243.308 358.799 243.308C358.074 243.308 357.482 243.474 357.023 243.806C356.569 244.132 356.234 244.603 356.018 245.217C355.808 245.826 355.703 246.556 355.703 247.408ZM374.239 250.123C374.239 250.842 374.064 251.467 373.716 251.999C373.367 252.53 372.858 252.939 372.188 253.227C371.524 253.515 370.716 253.659 369.764 253.659C369.344 253.659 368.932 253.631 368.528 253.576C368.129 253.52 367.745 253.44 367.374 253.335C367.009 253.224 366.66 253.089 366.328 252.928V250.538C366.903 250.792 367.501 251.022 368.121 251.227C368.741 251.431 369.355 251.534 369.964 251.534C370.384 251.534 370.722 251.478 370.976 251.368C371.236 251.257 371.425 251.105 371.541 250.911C371.657 250.717 371.715 250.496 371.715 250.247C371.715 249.943 371.613 249.683 371.408 249.467C371.203 249.251 370.921 249.049 370.561 248.861C370.207 248.673 369.806 248.471 369.358 248.255C369.075 248.122 368.768 247.962 368.436 247.773C368.104 247.58 367.789 247.345 367.49 247.068C367.191 246.791 366.945 246.456 366.751 246.063C366.563 245.665 366.469 245.189 366.469 244.636C366.469 243.911 366.635 243.291 366.967 242.776C367.299 242.262 367.772 241.869 368.386 241.598C369.006 241.321 369.737 241.183 370.578 241.183C371.209 241.183 371.809 241.257 372.379 241.407C372.955 241.551 373.555 241.761 374.18 242.038L373.35 244.038C372.791 243.811 372.291 243.637 371.848 243.515C371.405 243.388 370.954 243.324 370.495 243.324C370.174 243.324 369.9 243.377 369.673 243.482C369.446 243.582 369.275 243.725 369.158 243.914C369.042 244.096 368.984 244.309 368.984 244.553C368.984 244.84 369.067 245.084 369.233 245.283C369.405 245.477 369.659 245.665 369.997 245.848C370.34 246.03 370.766 246.243 371.275 246.487C371.895 246.78 372.423 247.087 372.861 247.408C373.303 247.724 373.644 248.097 373.882 248.529C374.12 248.955 374.239 249.486 374.239 250.123Z"
      fill="white" />
   <g filter="url(#filter6_d_9_276)">
      <rect x="542.537" y="207.858" width="135.769" height="39.6493" rx="8" fill="url(#paint20_linear_9_276)"
         shape-rendering="crispEdges" />
      <rect x="543.537" y="208.858" width="133.769" height="37.6493" rx="7" stroke="url(#paint21_linear_9_276)"
         stroke-width="2" shape-rendering="crispEdges" />
   </g>
   <path
      d="M579.355 222.133V229.985C579.355 230.821 579.17 231.576 578.799 232.251C578.434 232.921 577.877 233.452 577.13 233.845C576.389 234.238 575.454 234.435 574.325 234.435C572.72 234.435 571.497 234.025 570.656 233.206C569.815 232.387 569.394 231.302 569.394 229.952V222.133H571.959V229.562C571.959 230.564 572.164 231.266 572.573 231.67C572.983 232.074 573.589 232.276 574.391 232.276C574.955 232.276 575.412 232.18 575.761 231.986C576.115 231.792 576.375 231.493 576.541 231.089C576.707 230.685 576.79 230.171 576.79 229.545V222.133H579.355ZM582.327 234.269V222.133H584.9V234.269H582.327ZM602.439 228.084C602.439 229.451 602.177 230.594 601.651 231.513C601.131 232.426 600.375 233.115 599.385 233.58C598.394 234.039 597.202 234.269 595.807 234.269H592.371V222.133H596.181C597.453 222.133 598.557 222.36 599.493 222.813C600.428 223.262 601.153 223.929 601.667 224.814C602.182 225.694 602.439 226.784 602.439 228.084ZM599.767 228.151C599.767 227.254 599.634 226.518 599.368 225.943C599.108 225.362 598.721 224.933 598.206 224.656C597.697 224.38 597.066 224.241 596.313 224.241H594.944V232.144H596.048C597.304 232.144 598.236 231.809 598.845 231.139C599.459 230.47 599.767 229.473 599.767 228.151ZM611.944 234.269H604.955V222.133H611.944V224.241H607.528V226.906H611.637V229.014H607.528V232.144H611.944V234.269ZM621.647 230.898C621.647 231.618 621.473 232.243 621.124 232.774C620.776 233.306 620.267 233.715 619.597 234.003C618.933 234.291 618.125 234.435 617.173 234.435C616.753 234.435 616.34 234.407 615.936 234.352C615.538 234.296 615.153 234.216 614.783 234.111C614.417 234 614.069 233.865 613.737 233.704V231.313C614.312 231.568 614.91 231.798 615.53 232.002C616.149 232.207 616.764 232.31 617.372 232.31C617.793 232.31 618.131 232.254 618.385 232.144C618.645 232.033 618.833 231.881 618.95 231.687C619.066 231.493 619.124 231.272 619.124 231.023C619.124 230.719 619.022 230.458 618.817 230.243C618.612 230.027 618.33 229.825 617.97 229.637C617.616 229.449 617.215 229.247 616.767 229.031C616.484 228.898 616.177 228.737 615.845 228.549C615.513 228.356 615.198 228.12 614.899 227.844C614.6 227.567 614.354 227.232 614.16 226.839C613.972 226.441 613.878 225.965 613.878 225.412C613.878 224.687 614.044 224.067 614.376 223.552C614.708 223.038 615.181 222.645 615.795 222.374C616.415 222.097 617.146 221.958 617.987 221.958C618.618 221.958 619.218 222.033 619.788 222.183C620.364 222.326 620.964 222.537 621.589 222.813L620.759 224.814C620.2 224.587 619.699 224.413 619.257 224.291C618.814 224.164 618.363 224.1 617.904 224.1C617.583 224.1 617.309 224.153 617.082 224.258C616.855 224.357 616.684 224.501 616.567 224.689C616.451 224.872 616.393 225.085 616.393 225.329C616.393 225.616 616.476 225.86 616.642 226.059C616.814 226.253 617.068 226.441 617.406 226.624C617.749 226.806 618.175 227.019 618.684 227.263C619.304 227.556 619.832 227.863 620.269 228.184C620.712 228.5 621.052 228.873 621.29 229.305C621.528 229.731 621.647 230.262 621.647 230.898ZM623.847 234.269V222.133H626.42V234.269H623.847ZM634.082 227.454H638.896V233.746C638.26 233.956 637.599 234.125 636.913 234.252C636.226 234.374 635.449 234.435 634.58 234.435C633.374 234.435 632.35 234.197 631.509 233.721C630.668 233.245 630.028 232.542 629.591 231.612C629.154 230.683 628.935 229.54 628.935 228.184C628.935 226.911 629.179 225.81 629.666 224.88C630.158 223.951 630.875 223.231 631.816 222.722C632.762 222.213 633.916 221.958 635.277 221.958C635.919 221.958 636.553 222.028 637.178 222.166C637.803 222.304 638.371 222.484 638.88 222.706L638.025 224.764C637.654 224.576 637.231 224.418 636.755 224.291C636.279 224.164 635.781 224.1 635.261 224.1C634.514 224.1 633.863 224.272 633.31 224.615C632.762 224.958 632.336 225.439 632.032 226.059C631.733 226.673 631.583 227.398 631.583 228.234C631.583 229.025 631.691 229.728 631.907 230.342C632.123 230.951 632.463 231.43 632.928 231.778C633.393 232.121 633.999 232.293 634.746 232.293C635.111 232.293 635.418 232.276 635.667 232.243C635.922 232.204 636.16 232.166 636.381 232.127V229.595H634.082V227.454ZM652.559 234.269H649.289L644.01 225.088H643.935C643.957 225.47 643.976 225.854 643.993 226.242C644.01 226.629 644.026 227.016 644.043 227.404C644.059 227.786 644.076 228.17 644.093 228.558V234.269H641.793V222.133H645.039L650.31 231.222H650.368C650.357 230.846 650.343 230.472 650.327 230.102C650.31 229.731 650.293 229.36 650.277 228.989C650.266 228.618 650.255 228.248 650.244 227.877V222.133H652.559V234.269Z"
      fill="white" />
   <g filter="url(#filter7_d_9_276)">
      <rect x="635.052" y="66.082" width="135.769" height="39.6493" rx="8" fill="url(#paint22_linear_9_276)"
         shape-rendering="crispEdges" />
      <rect x="636.052" y="67.082" width="133.769" height="37.6493" rx="7" stroke="url(#paint23_linear_9_276)"
         stroke-width="2" shape-rendering="crispEdges" />
   </g>
   <path
      d="M656.738 80.3569C657.839 80.3569 658.746 80.4897 659.46 80.7554C660.18 81.021 660.714 81.4222 661.062 81.959C661.411 82.4958 661.585 83.1737 661.585 83.9927C661.585 84.5461 661.48 85.0303 661.27 85.4453C661.059 85.8604 660.783 86.2118 660.44 86.4995C660.097 86.7873 659.726 87.0225 659.327 87.2051L662.897 92.4927H660.041L657.144 87.8359H655.775V92.4927H653.201V80.3569H656.738ZM656.555 82.4653H655.775V85.7441H656.605C657.457 85.7441 658.066 85.603 658.431 85.3208C658.802 85.033 658.987 84.6125 658.987 84.0591C658.987 83.4836 658.788 83.0741 658.389 82.8306C657.996 82.5871 657.385 82.4653 656.555 82.4653ZM671.413 92.4927H664.424V80.3569H671.413V82.4653H666.997V85.1299H671.106V87.2383H666.997V90.3677H671.413V92.4927ZM681.117 89.1226C681.117 89.842 680.943 90.4673 680.594 90.9985C680.245 91.5298 679.736 91.9393 679.067 92.2271C678.403 92.5148 677.595 92.6587 676.643 92.6587C676.222 92.6587 675.81 92.631 675.406 92.5757C675.008 92.5203 674.623 92.4401 674.252 92.335C673.887 92.2243 673.538 92.0887 673.206 91.9282V89.5376C673.782 89.7922 674.379 90.0218 674.999 90.2266C675.619 90.4313 676.233 90.5337 676.842 90.5337C677.263 90.5337 677.6 90.4784 677.855 90.3677C678.115 90.257 678.303 90.1048 678.419 89.9111C678.535 89.7174 678.593 89.4961 678.593 89.2471C678.593 88.9427 678.491 88.6826 678.286 88.4668C678.082 88.251 677.799 88.049 677.44 87.8608C677.086 87.6727 676.684 87.4707 676.236 87.2549C675.954 87.1221 675.647 86.9616 675.315 86.7734C674.983 86.5798 674.667 86.3446 674.368 86.0679C674.07 85.7912 673.823 85.4564 673.63 85.0635C673.441 84.665 673.347 84.1891 673.347 83.6357C673.347 82.9108 673.513 82.291 673.845 81.7764C674.177 81.2617 674.651 80.8688 675.265 80.5977C675.885 80.321 676.615 80.1826 677.456 80.1826C678.087 80.1826 678.688 80.2573 679.258 80.4067C679.833 80.5506 680.433 80.7609 681.059 81.0376L680.229 83.0381C679.67 82.8112 679.169 82.6369 678.726 82.5151C678.284 82.3879 677.833 82.3242 677.373 82.3242C677.052 82.3242 676.778 82.3768 676.551 82.4819C676.325 82.5815 676.153 82.7254 676.037 82.9136C675.921 83.0962 675.863 83.3092 675.863 83.5527C675.863 83.8405 675.946 84.084 676.112 84.2832C676.283 84.4769 676.538 84.665 676.875 84.8477C677.218 85.0303 677.644 85.2433 678.154 85.4868C678.773 85.7801 679.302 86.0872 679.739 86.4082C680.182 86.7236 680.522 87.0972 680.76 87.5288C680.998 87.9549 681.117 88.4862 681.117 89.1226ZM687.193 80.3569C688.759 80.3569 689.902 80.6945 690.621 81.3696C691.341 82.0392 691.7 82.9634 691.7 84.1421C691.7 84.6733 691.62 85.1825 691.46 85.6694C691.299 86.1509 691.036 86.5798 690.671 86.9561C690.311 87.3324 689.83 87.6312 689.227 87.8525C688.624 88.0684 687.879 88.1763 686.994 88.1763H685.89V92.4927H683.317V80.3569H687.193ZM687.06 82.4653H685.89V86.0679H686.737C687.218 86.0679 687.636 86.0042 687.99 85.877C688.344 85.7497 688.618 85.5505 688.812 85.2793C689.005 85.0081 689.102 84.6595 689.102 84.2334C689.102 83.6357 688.936 83.193 688.604 82.9053C688.272 82.612 687.758 82.4653 687.06 82.4653ZM705.007 86.4082C705.007 87.3434 704.89 88.1956 704.658 88.9648C704.426 89.7285 704.071 90.387 703.595 90.9404C703.125 91.4938 702.527 91.9199 701.802 92.2188C701.078 92.512 700.22 92.6587 699.229 92.6587C698.239 92.6587 697.381 92.512 696.656 92.2188C695.931 91.9199 695.331 91.4938 694.855 90.9404C694.384 90.387 694.033 89.7257 693.801 88.9565C693.568 88.1873 693.452 87.3324 693.452 86.3916C693.452 85.1354 693.657 84.0425 694.066 83.1128C694.481 82.1776 695.118 81.4526 695.975 80.938C696.833 80.4233 697.923 80.166 699.246 80.166C700.563 80.166 701.645 80.4233 702.491 80.938C703.344 81.4526 703.975 82.1776 704.384 83.1128C704.799 84.048 705.007 85.1465 705.007 86.4082ZM696.15 86.4082C696.15 87.2549 696.255 87.9854 696.465 88.5996C696.681 89.2083 697.016 89.6787 697.469 90.0107C697.923 90.3372 698.51 90.5005 699.229 90.5005C699.96 90.5005 700.552 90.3372 701.006 90.0107C701.459 89.6787 701.789 89.2083 701.993 88.5996C702.204 87.9854 702.309 87.2549 702.309 86.4082C702.309 85.1354 702.071 84.1338 701.595 83.4033C701.119 82.6729 700.336 82.3076 699.246 82.3076C698.521 82.3076 697.929 82.4736 697.469 82.8057C697.016 83.1322 696.681 83.6025 696.465 84.2168C696.255 84.8255 696.15 85.556 696.15 86.4082ZM718.288 92.4927H715.017L709.738 83.312H709.663C709.685 83.6938 709.705 84.0785 709.721 84.4658C709.738 84.8532 709.755 85.2406 709.771 85.6279C709.788 86.0098 709.804 86.3944 709.821 86.7817V92.4927H707.522V80.3569H710.767L716.038 89.4463H716.096C716.085 89.07 716.072 88.6965 716.055 88.3257C716.038 87.9549 716.022 87.5841 716.005 87.2134C715.994 86.8426 715.983 86.4718 715.972 86.1011V80.3569H718.288V92.4927ZM728.514 89.1226C728.514 89.842 728.34 90.4673 727.991 90.9985C727.643 91.5298 727.134 91.9393 726.464 92.2271C725.8 92.5148 724.992 92.6587 724.04 92.6587C723.62 92.6587 723.207 92.631 722.803 92.5757C722.405 92.5203 722.02 92.4401 721.65 92.335C721.284 92.2243 720.936 92.0887 720.604 91.9282V89.5376C721.179 89.7922 721.777 90.0218 722.397 90.2266C723.017 90.4313 723.631 90.5337 724.239 90.5337C724.66 90.5337 724.998 90.4784 725.252 90.3677C725.512 90.257 725.7 90.1048 725.817 89.9111C725.933 89.7174 725.991 89.4961 725.991 89.2471C725.991 88.9427 725.889 88.6826 725.684 88.4668C725.479 88.251 725.197 88.049 724.837 87.8608C724.483 87.6727 724.082 87.4707 723.634 87.2549C723.351 87.1221 723.044 86.9616 722.712 86.7734C722.38 86.5798 722.065 86.3446 721.766 86.0679C721.467 85.7912 721.221 85.4564 721.027 85.0635C720.839 84.665 720.745 84.1891 720.745 83.6357C720.745 82.9108 720.911 82.291 721.243 81.7764C721.575 81.2617 722.048 80.8688 722.662 80.5977C723.282 80.321 724.013 80.1826 724.854 80.1826C725.485 80.1826 726.085 80.2573 726.655 80.4067C727.231 80.5506 727.831 80.7609 728.456 81.0376L727.626 83.0381C727.067 82.8112 726.566 82.6369 726.124 82.5151C725.681 82.3879 725.23 82.3242 724.771 82.3242C724.45 82.3242 724.176 82.3768 723.949 82.4819C723.722 82.5815 723.551 82.7254 723.434 82.9136C723.318 83.0962 723.26 83.3092 723.26 83.5527C723.26 83.8405 723.343 84.084 723.509 84.2832C723.681 84.4769 723.935 84.665 724.273 84.8477C724.616 85.0303 725.042 85.2433 725.551 85.4868C726.171 85.7801 726.699 86.0872 727.136 86.4082C727.579 86.7236 727.919 87.0972 728.157 87.5288C728.395 87.9549 728.514 88.4862 728.514 89.1226ZM730.714 92.4927V80.3569H733.287V92.4927H730.714ZM745.863 80.3569L741.738 92.4927H738.932L734.815 80.3569H737.413L739.696 87.5786C739.734 87.7004 739.798 87.93 739.886 88.2676C739.975 88.5996 740.064 88.9538 740.152 89.3301C740.246 89.7008 740.31 90.008 740.343 90.2515C740.376 90.008 740.434 89.7008 740.517 89.3301C740.606 88.9593 740.692 88.6079 740.775 88.2759C740.863 87.9383 740.927 87.7059 740.966 87.5786L743.265 80.3569H745.863ZM754.388 92.4927H747.399V80.3569H754.388V82.4653H749.972V85.1299H754.081V87.2383H749.972V90.3677H754.388V92.4927Z"
      fill="white" />
   <g filter="url(#filter8_d_9_276)">
      <rect x="422.388" y="266.731" width="162.201" height="55.2687" rx="8" fill="url(#paint24_linear_9_276)"
         shape-rendering="crispEdges" />
      <rect x="423.388" y="267.731" width="160.201" height="53.2687" rx="7" stroke="url(#paint25_linear_9_276)"
         stroke-width="2" shape-rendering="crispEdges" />
   </g>
   <path
      d="M459.473 289.537H456.9V279.543H453.604V277.401H462.768V279.543H459.473V289.537ZM464.636 289.537V277.401H467.209V289.537H464.636ZM474.14 277.401C475.706 277.401 476.849 277.739 477.569 278.414C478.288 279.084 478.648 280.008 478.648 281.187C478.648 281.718 478.567 282.227 478.407 282.714C478.246 283.195 477.984 283.624 477.618 284C477.259 284.377 476.777 284.676 476.174 284.897C475.571 285.113 474.827 285.221 473.941 285.221H472.837V289.537H470.264V277.401H474.14ZM474.008 279.51H472.837V283.112H473.684C474.165 283.112 474.583 283.049 474.937 282.921C475.291 282.794 475.565 282.595 475.759 282.324C475.953 282.053 476.05 281.704 476.05 281.278C476.05 280.68 475.883 280.237 475.551 279.95C475.219 279.656 474.705 279.51 474.008 279.51ZM491.954 283.453C491.954 284.388 491.838 285.24 491.605 286.009C491.373 286.773 491.019 287.431 490.543 287.985C490.072 288.538 489.475 288.964 488.75 289.263C488.025 289.556 487.167 289.703 486.176 289.703C485.186 289.703 484.328 289.556 483.603 289.263C482.878 288.964 482.278 288.538 481.802 287.985C481.332 287.431 480.98 286.77 480.748 286.001C480.515 285.232 480.399 284.377 480.399 283.436C480.399 282.18 480.604 281.087 481.013 280.157C481.428 279.222 482.065 278.497 482.923 277.982C483.78 277.468 484.87 277.21 486.193 277.21C487.51 277.21 488.592 277.468 489.439 277.982C490.291 278.497 490.922 279.222 491.331 280.157C491.746 281.092 491.954 282.191 491.954 283.453ZM483.097 283.453C483.097 284.299 483.202 285.03 483.412 285.644C483.628 286.253 483.963 286.723 484.417 287.055C484.87 287.382 485.457 287.545 486.176 287.545C486.907 287.545 487.499 287.382 487.953 287.055C488.407 286.723 488.736 286.253 488.941 285.644C489.151 285.03 489.256 284.299 489.256 283.453C489.256 282.18 489.018 281.178 488.542 280.448C488.066 279.717 487.283 279.352 486.193 279.352C485.468 279.352 484.876 279.518 484.417 279.85C483.963 280.177 483.628 280.647 483.412 281.261C483.202 281.87 483.097 282.6 483.097 283.453ZM499.076 282.722H503.89V289.014C503.254 289.224 502.593 289.393 501.906 289.521C501.22 289.642 500.443 289.703 499.574 289.703C498.368 289.703 497.344 289.465 496.503 288.989C495.661 288.513 495.022 287.811 494.585 286.881C494.148 285.951 493.929 284.808 493.929 283.453C493.929 282.18 494.173 281.079 494.66 280.149C495.152 279.219 495.869 278.5 496.81 277.991C497.756 277.482 498.91 277.227 500.271 277.227C500.913 277.227 501.547 277.296 502.172 277.435C502.797 277.573 503.365 277.753 503.874 277.974L503.019 280.033C502.648 279.845 502.225 279.687 501.749 279.56C501.273 279.432 500.775 279.369 500.255 279.369C499.508 279.369 498.857 279.54 498.304 279.883C497.756 280.226 497.33 280.708 497.026 281.328C496.727 281.942 496.577 282.667 496.577 283.502C496.577 284.294 496.685 284.997 496.901 285.611C497.117 286.22 497.457 286.698 497.922 287.047C498.387 287.39 498.993 287.562 499.74 287.562C500.105 287.562 500.412 287.545 500.661 287.512C500.916 287.473 501.154 287.434 501.375 287.396V284.864H499.076V282.722ZM510.323 277.401C511.425 277.401 512.332 277.534 513.046 277.8C513.765 278.065 514.3 278.467 514.648 279.003C514.997 279.54 515.171 280.218 515.171 281.037C515.171 281.59 515.066 282.075 514.856 282.49C514.645 282.905 514.369 283.256 514.026 283.544C513.682 283.832 513.312 284.067 512.913 284.25L516.483 289.537H513.627L510.73 284.88H509.361V289.537H506.787V277.401H510.323ZM510.141 279.51H509.361V282.789H510.191C511.043 282.789 511.652 282.647 512.017 282.365C512.388 282.077 512.573 281.657 512.573 281.104C512.573 280.528 512.374 280.118 511.975 279.875C511.582 279.632 510.971 279.51 510.141 279.51ZM525.439 289.537L524.559 286.648H520.135L519.255 289.537H516.483L520.766 277.352H523.912L528.212 289.537H525.439ZM523.945 284.49L523.065 281.668C523.01 281.48 522.935 281.239 522.841 280.946C522.752 280.647 522.661 280.345 522.567 280.041C522.479 279.731 522.407 279.463 522.351 279.236C522.296 279.463 522.218 279.745 522.119 280.083C522.025 280.415 521.933 280.73 521.845 281.029C521.756 281.328 521.693 281.541 521.654 281.668L520.782 284.49H523.945ZM532.279 289.537H529.747V277.401H536.703V279.51H532.279V282.639H536.396V284.739H532.279V289.537ZM539.077 289.537V277.401H541.651V289.537H539.077ZM543.95 273.658V273.832C543.789 273.987 543.579 274.178 543.319 274.405C543.059 274.632 542.779 274.87 542.481 275.119C542.182 275.362 541.889 275.597 541.601 275.824C541.313 276.046 541.061 276.231 540.845 276.38H539.16V276.156C539.343 275.946 539.553 275.697 539.791 275.409C540.035 275.116 540.275 274.814 540.513 274.504C540.751 274.194 540.951 273.912 541.111 273.658H543.95ZM552.134 289.537L551.255 286.648H546.83L545.95 289.537H543.178L547.461 277.352H550.607L554.907 289.537H552.134ZM550.64 284.49L549.76 281.668C549.705 281.48 549.63 281.239 549.536 280.946C549.448 280.647 549.356 280.345 549.262 280.041C549.174 279.731 549.102 279.463 549.047 279.236C548.991 279.463 548.914 279.745 548.814 280.083C548.72 280.415 548.629 280.73 548.54 281.029C548.452 281.328 548.388 281.541 548.349 281.668L547.478 284.49H550.64ZM463.067 305.398L465.599 300.401H468.371L464.345 307.814V312.537H461.789V307.897L457.763 300.401H460.552L463.067 305.398ZM479.469 302.369C478.977 302.369 478.54 302.465 478.158 302.659C477.782 302.847 477.463 303.121 477.203 303.481C476.949 303.841 476.755 304.275 476.622 304.784C476.489 305.293 476.423 305.866 476.423 306.502C476.423 307.36 476.528 308.093 476.738 308.702C476.954 309.305 477.286 309.767 477.735 310.088C478.183 310.404 478.761 310.562 479.469 310.562C479.962 310.562 480.454 310.506 480.947 310.396C481.445 310.285 481.985 310.127 482.566 309.922V312.081C482.029 312.302 481.5 312.46 480.98 312.554C480.46 312.653 479.876 312.703 479.229 312.703C477.978 312.703 476.949 312.446 476.141 311.931C475.338 311.411 474.744 310.686 474.356 309.756C473.969 308.821 473.775 307.731 473.775 306.486C473.775 305.567 473.9 304.726 474.149 303.962C474.398 303.199 474.763 302.537 475.244 301.979C475.726 301.42 476.321 300.988 477.029 300.684C477.737 300.379 478.551 300.227 479.469 300.227C480.073 300.227 480.676 300.305 481.279 300.459C481.888 300.609 482.469 300.816 483.022 301.082L482.192 303.174C481.738 302.958 481.282 302.77 480.822 302.609C480.363 302.449 479.912 302.369 479.469 302.369ZM496.171 306.453C496.171 307.388 496.054 308.24 495.822 309.009C495.59 309.773 495.235 310.431 494.759 310.985C494.289 311.538 493.691 311.964 492.967 312.263C492.242 312.556 491.384 312.703 490.393 312.703C489.403 312.703 488.545 312.556 487.82 312.263C487.095 311.964 486.495 311.538 486.019 310.985C485.548 310.431 485.197 309.77 484.965 309.001C484.732 308.232 484.616 307.377 484.616 306.436C484.616 305.18 484.821 304.087 485.23 303.157C485.645 302.222 486.282 301.497 487.139 300.982C487.997 300.468 489.087 300.21 490.41 300.21C491.727 300.21 492.809 300.468 493.655 300.982C494.508 301.497 495.139 302.222 495.548 303.157C495.963 304.092 496.171 305.191 496.171 306.453ZM487.314 306.453C487.314 307.299 487.419 308.03 487.629 308.644C487.845 309.253 488.18 309.723 488.633 310.055C489.087 310.382 489.674 310.545 490.393 310.545C491.124 310.545 491.716 310.382 492.17 310.055C492.623 309.723 492.953 309.253 493.157 308.644C493.368 308.03 493.473 307.299 493.473 306.453C493.473 305.18 493.235 304.178 492.759 303.448C492.283 302.717 491.5 302.352 490.41 302.352C489.685 302.352 489.093 302.518 488.633 302.85C488.18 303.177 487.845 303.647 487.629 304.261C487.419 304.87 487.314 305.6 487.314 306.453ZM498.686 312.537V300.401H501.259V310.412H506.181V312.537H498.686ZM519.313 306.453C519.313 307.388 519.197 308.24 518.965 309.009C518.732 309.773 518.378 310.431 517.902 310.985C517.432 311.538 516.834 311.964 516.109 312.263C515.384 312.556 514.526 312.703 513.536 312.703C512.545 312.703 511.688 312.556 510.963 312.263C510.238 311.964 509.637 311.538 509.161 310.985C508.691 310.431 508.34 309.77 508.107 309.001C507.875 308.232 507.758 307.377 507.758 306.436C507.758 305.18 507.963 304.087 508.373 303.157C508.788 302.222 509.424 301.497 510.282 300.982C511.14 300.468 512.23 300.21 513.552 300.21C514.87 300.21 515.951 300.468 516.798 300.982C517.65 301.497 518.281 302.222 518.691 303.157C519.106 304.092 519.313 305.191 519.313 306.453ZM510.456 306.453C510.456 307.299 510.561 308.03 510.772 308.644C510.988 309.253 511.322 309.723 511.776 310.055C512.23 310.382 512.816 310.545 513.536 310.545C514.266 310.545 514.858 310.382 515.312 310.055C515.766 309.723 516.095 309.253 516.3 308.644C516.51 308.03 516.615 307.299 516.615 306.453C516.615 305.18 516.377 304.178 515.902 303.448C515.426 302.717 514.643 302.352 513.552 302.352C512.828 302.352 512.235 302.518 511.776 302.85C511.322 303.177 510.988 303.647 510.772 304.261C510.561 304.87 510.456 305.6 510.456 306.453ZM525.364 300.401C526.466 300.401 527.373 300.534 528.087 300.8C528.807 301.065 529.341 301.467 529.689 302.003C530.038 302.54 530.212 303.218 530.212 304.037C530.212 304.59 530.107 305.075 529.897 305.49C529.686 305.905 529.41 306.256 529.067 306.544C528.724 306.832 528.353 307.067 527.954 307.25L531.524 312.537H528.668L525.771 307.88H524.402V312.537H521.828V300.401H525.364ZM525.182 302.51H524.402V305.789H525.232C526.084 305.789 526.693 305.647 527.058 305.365C527.429 305.077 527.614 304.657 527.614 304.104C527.614 303.528 527.415 303.118 527.016 302.875C526.623 302.632 526.012 302.51 525.182 302.51ZM540.04 312.537H533.051V300.401H540.04V302.51H535.624V305.174H539.733V307.283H535.624V310.412H540.04V312.537ZM549.744 309.167C549.744 309.886 549.57 310.512 549.221 311.043C548.872 311.574 548.363 311.984 547.694 312.271C547.029 312.559 546.222 312.703 545.27 312.703C544.849 312.703 544.437 312.675 544.033 312.62C543.634 312.565 543.25 312.485 542.879 312.379C542.514 312.269 542.165 312.133 541.833 311.973V309.582C542.409 309.837 543.006 310.066 543.626 310.271C544.246 310.476 544.86 310.578 545.469 310.578C545.89 310.578 546.227 310.523 546.482 310.412C546.742 310.301 546.93 310.149 547.046 309.956C547.162 309.762 547.22 309.541 547.22 309.292C547.22 308.987 547.118 308.727 546.913 308.511C546.709 308.295 546.426 308.093 546.067 307.905C545.712 307.717 545.311 307.515 544.863 307.299C544.581 307.167 544.274 307.006 543.942 306.818C543.61 306.624 543.294 306.389 542.995 306.112C542.696 305.836 542.45 305.501 542.257 305.108C542.068 304.709 541.974 304.234 541.974 303.68C541.974 302.955 542.14 302.335 542.472 301.821C542.804 301.306 543.278 300.913 543.892 300.642C544.512 300.365 545.242 300.227 546.083 300.227C546.714 300.227 547.314 300.302 547.884 300.451C548.46 300.595 549.06 300.805 549.686 301.082L548.856 303.083C548.297 302.856 547.796 302.681 547.353 302.56C546.911 302.432 546.46 302.369 546 302.369C545.679 302.369 545.405 302.421 545.178 302.526C544.952 302.626 544.78 302.77 544.664 302.958C544.548 303.141 544.489 303.354 544.489 303.597C544.489 303.885 544.572 304.128 544.738 304.328C544.91 304.521 545.165 304.709 545.502 304.892C545.845 305.075 546.271 305.288 546.78 305.531C547.4 305.825 547.929 306.132 548.366 306.453C548.809 306.768 549.149 307.142 549.387 307.573C549.625 307.999 549.744 308.531 549.744 309.167Z"
      fill="white" />
   <g filter="url(#filter9_d_9_276)">
      <rect x="358" width="156" height="40" rx="8" fill="url(#paint26_linear_9_276)" shape-rendering="crispEdges" />
      <rect x="359" y="1" width="154" height="38" rx="7" stroke="url(#paint27_linear_9_276)" stroke-width="2"
         shape-rendering="crispEdges" />
   </g>
   <path
      d="M391.977 13.8643L388.889 26H385.958L384.315 19.625C384.282 19.5033 384.237 19.3179 384.182 19.0688C384.127 18.8198 384.069 18.5487 384.008 18.2554C383.947 17.9565 383.892 17.6771 383.842 17.417C383.798 17.1514 383.767 16.9411 383.75 16.7861C383.734 16.9411 383.701 17.1486 383.651 17.4087C383.607 17.6688 383.554 17.9455 383.493 18.2388C383.438 18.5321 383.382 18.806 383.327 19.0605C383.272 19.3151 383.228 19.5088 383.194 19.6416L381.559 26H378.637L375.541 13.8643H378.073L379.625 20.4883C379.669 20.6875 379.719 20.9255 379.774 21.2021C379.835 21.4788 379.893 21.7694 379.949 22.0737C380.01 22.3726 380.062 22.6631 380.106 22.9453C380.156 23.222 380.192 23.4627 380.214 23.6675C380.242 23.4572 380.278 23.2137 380.322 22.937C380.367 22.6548 380.414 22.3698 380.463 22.082C380.519 21.7887 380.574 21.5176 380.629 21.2686C380.685 21.0195 380.735 20.8175 380.779 20.6626L382.547 13.8643H384.979L386.747 20.6626C386.786 20.812 386.83 21.014 386.88 21.2686C386.935 21.5176 386.991 21.7887 387.046 22.082C387.101 22.3753 387.151 22.6631 387.195 22.9453C387.245 23.222 387.281 23.4627 387.303 23.6675C387.342 23.3908 387.395 23.056 387.461 22.6631C387.533 22.2646 387.608 21.869 387.685 21.4761C387.768 21.0832 387.84 20.7539 387.901 20.4883L389.445 13.8643H391.977ZM393.504 26V13.8643H396.077V26H393.504ZM402.668 13.8643C403.769 13.8643 404.677 13.9971 405.391 14.2627C406.11 14.5283 406.644 14.9295 406.993 15.4663C407.341 16.0031 407.516 16.681 407.516 17.5C407.516 18.0534 407.41 18.5376 407.2 18.9526C406.99 19.3677 406.713 19.7191 406.37 20.0068C406.027 20.2946 405.656 20.5298 405.258 20.7124L408.827 26H405.972L403.075 21.3433H401.705V26H399.132V13.8643H402.668ZM402.485 15.9727H401.705V19.2515H402.535C403.387 19.2515 403.996 19.1104 404.361 18.8281C404.732 18.5404 404.917 18.1198 404.917 17.5664C404.917 16.9909 404.718 16.5814 404.32 16.3379C403.927 16.0944 403.315 15.9727 402.485 15.9727ZM417.344 26H410.354V13.8643H417.344V15.9727H412.928V18.6372H417.037V20.7456H412.928V23.875H417.344V26ZM422.416 26H419.884V13.8643H426.84V15.9727H422.416V19.1021H426.533V21.2021H422.416V26ZM432.75 13.8643C433.851 13.8643 434.759 13.9971 435.473 14.2627C436.192 14.5283 436.726 14.9295 437.075 15.4663C437.423 16.0031 437.598 16.681 437.598 17.5C437.598 18.0534 437.493 18.5376 437.282 18.9526C437.072 19.3677 436.795 19.7191 436.452 20.0068C436.109 20.2946 435.738 20.5298 435.34 20.7124L438.909 26H436.054L433.157 21.3433H431.787V26H429.214V13.8643H432.75ZM432.567 15.9727H431.787V19.2515H432.617C433.469 19.2515 434.078 19.1104 434.443 18.8281C434.814 18.5404 435 18.1198 435 17.5664C435 16.9909 434.8 16.5814 434.402 16.3379C434.009 16.0944 433.397 15.9727 432.567 15.9727ZM447.866 26L446.986 23.1113H442.562L441.682 26H438.909L443.192 13.8145H446.338L450.638 26H447.866ZM446.372 20.9531L445.492 18.1309C445.436 17.9427 445.362 17.702 445.268 17.4087C445.179 17.1099 445.088 16.8083 444.994 16.5039C444.905 16.194 444.833 15.9256 444.778 15.6987C444.722 15.9256 444.645 16.2078 444.545 16.5454C444.451 16.8774 444.36 17.1929 444.271 17.4917C444.183 17.7905 444.119 18.0036 444.081 18.1309L443.209 20.9531H446.372ZM457.312 26L454.39 16.479H454.315C454.326 16.7059 454.343 17.049 454.365 17.5083C454.393 17.9621 454.418 18.4463 454.44 18.9609C454.462 19.4756 454.473 19.9404 454.473 20.3555V26H452.174V13.8643H455.677L458.549 23.1445H458.599L461.645 13.8643H465.148V26H462.749V20.2559C462.749 19.874 462.755 19.4341 462.766 18.936C462.782 18.438 462.802 17.9648 462.824 17.5166C462.846 17.0628 462.862 16.7225 462.874 16.4956H462.799L459.669 26H457.312ZM468.211 26V13.8643H470.784V26H468.211ZM484.605 26H481.334L476.055 16.8193H475.98C476.003 17.2012 476.022 17.5858 476.039 17.9731C476.055 18.3605 476.072 18.7479 476.088 19.1353C476.105 19.5171 476.122 19.9017 476.138 20.2891V26H473.839V13.8643H477.084L482.355 22.9536H482.414C482.403 22.5773 482.389 22.2038 482.372 21.833C482.355 21.4622 482.339 21.0915 482.322 20.7207C482.311 20.3499 482.3 19.9792 482.289 19.6084V13.8643H484.605V26ZM492.275 19.1851H497.089V25.4771C496.453 25.6873 495.792 25.8561 495.105 25.9834C494.419 26.1051 493.642 26.166 492.773 26.166C491.567 26.166 490.543 25.9281 489.702 25.4521C488.861 24.9762 488.221 24.2734 487.784 23.3438C487.347 22.4141 487.128 21.2713 487.128 19.9155C487.128 18.6427 487.372 17.5415 487.859 16.6118C488.351 15.6821 489.068 14.9627 490.009 14.4536C490.955 13.9445 492.109 13.6899 493.47 13.6899C494.112 13.6899 494.746 13.7591 495.371 13.8975C495.996 14.0358 496.564 14.2157 497.073 14.437L496.218 16.4956C495.847 16.3075 495.424 16.1497 494.948 16.0225C494.472 15.8952 493.974 15.8315 493.454 15.8315C492.707 15.8315 492.056 16.0031 491.503 16.3462C490.955 16.6893 490.529 17.1707 490.225 17.7905C489.926 18.4048 489.776 19.1297 489.776 19.9653C489.776 20.7567 489.884 21.4595 490.1 22.0737C490.316 22.6825 490.656 23.1611 491.121 23.5098C491.586 23.8529 492.192 24.0244 492.939 24.0244C493.304 24.0244 493.611 24.0078 493.86 23.9746C494.115 23.9359 494.353 23.8971 494.574 23.8584V21.3267H492.275V19.1851Z"
      fill="white" />
   <defs>
      <filter id="filter0_d_9_276" x="770.821" y="140.575" width="272.424" height="57.3567" filterUnits="userSpaceOnUse"
         color-interpolation-filters="sRGB">
         <feFlood flood-opacity="0" result="BackgroundImageFix" />
         <feColorMatrix in="SourceAlpha" type="matrix" values="0 0 0 0 0 0 0 0 0 0 0 0 0 0 0 0 0 0 127 0"
            result="hardAlpha" />
         <feOffset dx="6" dy="6" />
         <feGaussianBlur stdDeviation="2.85" />
         <feComposite in2="hardAlpha" operator="out" />
         <feColorMatrix type="matrix" values="0 0 0 0 0 0 0 0 0 0 0 0 0 0 0 0 0 0 0.25 0" />
         <feBlend mode="normal" in2="BackgroundImageFix" result="effect1_dropShadow_9_276" />
         <feBlend mode="normal" in="SourceGraphic" in2="effect1_dropShadow_9_276" result="shape" />
      </filter>
      <filter id="filter1_d_9_276" x="1173.32" y="140.575" width="345.715" height="57.3567" filterUnits="userSpaceOnUse"
         color-interpolation-filters="sRGB">
         <feFlood flood-opacity="0" result="BackgroundImageFix" />
         <feColorMatrix in="SourceAlpha" type="matrix" values="0 0 0 0 0 0 0 0 0 0 0 0 0 0 0 0 0 0 127 0"
            result="hardAlpha" />
         <feOffset dx="6" dy="6" />
         <feGaussianBlur stdDeviation="2.85" />
         <feComposite in2="hardAlpha" operator="out" />
         <feColorMatrix type="matrix" values="0 0 0 0 0 0 0 0 0 0 0 0 0 0 0 0 0 0 0.25 0" />
         <feBlend mode="normal" in2="BackgroundImageFix" result="effect1_dropShadow_9_276" />
         <feBlend mode="normal" in="SourceGraphic" in2="effect1_dropShadow_9_276" result="shape" />
      </filter>
      <filter id="filter2_d_9_276" x="0.664185" y="140.575" width="193.125" height="57.3567"
         filterUnits="userSpaceOnUse" color-interpolation-filters="sRGB">
         <feFlood flood-opacity="0" result="BackgroundImageFix" />
         <feColorMatrix in="SourceAlpha" type="matrix" values="0 0 0 0 0 0 0 0 0 0 0 0 0 0 0 0 0 0 127 0"
            result="hardAlpha" />
         <feOffset dx="6" dy="6" />
         <feGaussianBlur stdDeviation="2.85" />
         <feComposite in2="hardAlpha" operator="out" />
         <feColorMatrix type="matrix" values="0 0 0 0 0 0 0 0 0 0 0 0 0 0 0 0 0 0 0.25 0" />
         <feBlend mode="normal" in2="BackgroundImageFix" result="effect1_dropShadow_9_276" />
         <feBlend mode="normal" in="SourceGraphic" in2="effect1_dropShadow_9_276" result="shape" />
      </filter>
      <filter id="filter3_d_9_276" x="173.679" y="50.4629" width="173.902" height="66.9686" filterUnits="userSpaceOnUse"
         color-interpolation-filters="sRGB">
         <feFlood flood-opacity="0" result="BackgroundImageFix" />
         <feColorMatrix in="SourceAlpha" type="matrix" values="0 0 0 0 0 0 0 0 0 0 0 0 0 0 0 0 0 0 127 0"
            result="hardAlpha" />
         <feOffset dx="6" dy="6" />
         <feGaussianBlur stdDeviation="2.85" />
         <feComposite in2="hardAlpha" operator="out" />
         <feColorMatrix type="matrix" values="0 0 0 0 0 0 0 0 0 0 0 0 0 0 0 0 0 0 0.25 0" />
         <feBlend mode="normal" in2="BackgroundImageFix" result="effect1_dropShadow_9_276" />
         <feBlend mode="normal" in="SourceGraphic" in2="effect1_dropShadow_9_276" result="shape" />
      </filter>
      <filter id="filter4_d_9_276" x="1027.94" y="50.4629" width="173.902" height="66.9686" filterUnits="userSpaceOnUse"
         color-interpolation-filters="sRGB">
         <feFlood flood-opacity="0" result="BackgroundImageFix" />
         <feColorMatrix in="SourceAlpha" type="matrix" values="0 0 0 0 0 0 0 0 0 0 0 0 0 0 0 0 0 0 127 0"
            result="hardAlpha" />
         <feOffset dx="6" dy="6" />
         <feGaussianBlur stdDeviation="2.85" />
         <feComposite in2="hardAlpha" operator="out" />
         <feColorMatrix type="matrix" values="0 0 0 0 0 0 0 0 0 0 0 0 0 0 0 0 0 0 0.25 0" />
         <feBlend mode="normal" in2="BackgroundImageFix" result="effect1_dropShadow_9_276" />
         <feBlend mode="normal" in="SourceGraphic" in2="effect1_dropShadow_9_276" result="shape" />
      </filter>
      <filter id="filter5_d_9_276" x="267.396" y="227.082" width="147.469" height="51.3494" filterUnits="userSpaceOnUse"
         color-interpolation-filters="sRGB">
         <feFlood flood-opacity="0" result="BackgroundImageFix" />
         <feColorMatrix in="SourceAlpha" type="matrix" values="0 0 0 0 0 0 0 0 0 0 0 0 0 0 0 0 0 0 127 0"
            result="hardAlpha" />
         <feOffset dx="6" dy="6" />
         <feGaussianBlur stdDeviation="2.85" />
         <feComposite in2="hardAlpha" operator="out" />
         <feColorMatrix type="matrix" values="0 0 0 0 0 0 0 0 0 0 0 0 0 0 0 0 0 0 0.25 0" />
         <feBlend mode="normal" in2="BackgroundImageFix" result="effect1_dropShadow_9_276" />
         <feBlend mode="normal" in="SourceGraphic" in2="effect1_dropShadow_9_276" result="shape" />
      </filter>
      <filter id="filter6_d_9_276" x="542.537" y="207.858" width="147.469" height="51.3494" filterUnits="userSpaceOnUse"
         color-interpolation-filters="sRGB">
         <feFlood flood-opacity="0" result="BackgroundImageFix" />
         <feColorMatrix in="SourceAlpha" type="matrix" values="0 0 0 0 0 0 0 0 0 0 0 0 0 0 0 0 0 0 127 0"
            result="hardAlpha" />
         <feOffset dx="6" dy="6" />
         <feGaussianBlur stdDeviation="2.85" />
         <feComposite in2="hardAlpha" operator="out" />
         <feColorMatrix type="matrix" values="0 0 0 0 0 0 0 0 0 0 0 0 0 0 0 0 0 0 0.25 0" />
         <feBlend mode="normal" in2="BackgroundImageFix" result="effect1_dropShadow_9_276" />
         <feBlend mode="normal" in="SourceGraphic" in2="effect1_dropShadow_9_276" result="shape" />
      </filter>
      <filter id="filter7_d_9_276" x="635.052" y="66.082" width="147.469" height="51.3494" filterUnits="userSpaceOnUse"
         color-interpolation-filters="sRGB">
         <feFlood flood-opacity="0" result="BackgroundImageFix" />
         <feColorMatrix in="SourceAlpha" type="matrix" values="0 0 0 0 0 0 0 0 0 0 0 0 0 0 0 0 0 0 127 0"
            result="hardAlpha" />
         <feOffset dx="6" dy="6" />
         <feGaussianBlur stdDeviation="2.85" />
         <feComposite in2="hardAlpha" operator="out" />
         <feColorMatrix type="matrix" values="0 0 0 0 0 0 0 0 0 0 0 0 0 0 0 0 0 0 0.25 0" />
         <feBlend mode="normal" in2="BackgroundImageFix" result="effect1_dropShadow_9_276" />
         <feBlend mode="normal" in="SourceGraphic" in2="effect1_dropShadow_9_276" result="shape" />
      </filter>
      <filter id="filter8_d_9_276" x="422.388" y="266.731" width="173.901" height="66.9686" filterUnits="userSpaceOnUse"
         color-interpolation-filters="sRGB">
         <feFlood flood-opacity="0" result="BackgroundImageFix" />
         <feColorMatrix in="SourceAlpha" type="matrix" values="0 0 0 0 0 0 0 0 0 0 0 0 0 0 0 0 0 0 127 0"
            result="hardAlpha" />
         <feOffset dx="6" dy="6" />
         <feGaussianBlur stdDeviation="2.85" />
         <feComposite in2="hardAlpha" operator="out" />
         <feColorMatrix type="matrix" values="0 0 0 0 0 0 0 0 0 0 0 0 0 0 0 0 0 0 0.25 0" />
         <feBlend mode="normal" in2="BackgroundImageFix" result="effect1_dropShadow_9_276" />
         <feBlend mode="normal" in="SourceGraphic" in2="effect1_dropShadow_9_276" result="shape" />
      </filter>
      <filter id="filter9_d_9_276" x="358" y="0" width="167.7" height="51.7" filterUnits="userSpaceOnUse"
         color-interpolation-filters="sRGB">
         <feFlood flood-opacity="0" result="BackgroundImageFix" />
         <feColorMatrix in="SourceAlpha" type="matrix" values="0 0 0 0 0 0 0 0 0 0 0 0 0 0 0 0 0 0 127 0"
            result="hardAlpha" />
         <feOffset dx="6" dy="6" />
         <feGaussianBlur stdDeviation="2.85" />
         <feComposite in2="hardAlpha" operator="out" />
         <feColorMatrix type="matrix" values="0 0 0 0 0 0 0 0 0 0 0 0 0 0 0 0 0 0 0.25 0" />
         <feBlend mode="normal" in2="BackgroundImageFix" result="effect1_dropShadow_9_276" />
         <feBlend mode="normal" in="SourceGraphic" in2="effect1_dropShadow_9_276" result="shape" />
      </filter>
      <linearGradient id="paint0_linear_9_276" x1="770.821" y1="163.818" x2="1023.18" y2="161.575"
         gradientUnits="userSpaceOnUse">
         <stop stop-color="white" stop-opacity="0.2" />
         <stop offset="0.471" stop-color="white" stop-opacity="0.4" />
         <stop offset="1" stop-color="white" stop-opacity="0.2" />
      </linearGradient>
      <linearGradient id="paint1_linear_9_276" x1="770.821" y1="163.403" x2="1031.54" y2="163.403"
         gradientUnits="userSpaceOnUse">
         <stop stop-color="#E2E2E2" />
         <stop offset="0.535" stop-color="#003566" />
         <stop offset="1" stop-color="white" />
      </linearGradient>
      <linearGradient id="paint2_linear_9_276" x1="520.483" y1="226.799" x2="434.674" y2="169.606"
         gradientUnits="userSpaceOnUse">
         <stop stop-color="white" />
         <stop offset="1" stop-color="#003566" />
      </linearGradient>
      <linearGradient id="paint3_linear_9_276" x1="641.614" y1="191.479" x2="539.844" y2="246.532"
         gradientUnits="userSpaceOnUse">
         <stop stop-color="white" />
         <stop offset="1" stop-color="#003566" />
      </linearGradient>
      <linearGradient id="paint4_linear_9_276" x1="736.746" y1="142.731" x2="621.878" y2="187.572"
         gradientUnits="userSpaceOnUse">
         <stop stop-color="white" />
         <stop offset="1" stop-color="#003566" />
      </linearGradient>
      <linearGradient id="paint5_linear_9_276" x1="793.395" y1="167.009" x2="793.002" y2="172.683"
         gradientUnits="userSpaceOnUse">
         <stop stop-color="white" />
         <stop offset="1" stop-color="#003566" />
      </linearGradient>
      <linearGradient id="paint6_linear_9_276" x1="1191.09" y1="167.009" x2="1190.7" y2="172.683"
         gradientUnits="userSpaceOnUse">
         <stop stop-color="white" />
         <stop offset="1" stop-color="#003566" />
      </linearGradient>
      <linearGradient id="paint7_linear_9_276" x1="1173.32" y1="163.818" x2="1496.6" y2="160.137"
         gradientUnits="userSpaceOnUse">
         <stop stop-color="white" stop-opacity="0.2" />
         <stop offset="0.471" stop-color="white" stop-opacity="0.4" />
         <stop offset="1" stop-color="white" stop-opacity="0.2" />
      </linearGradient>
      <linearGradient id="paint8_linear_9_276" x1="1173.32" y1="163.403" x2="1507.34" y2="163.403"
         gradientUnits="userSpaceOnUse">
         <stop stop-color="#E2E2E2" />
         <stop offset="0.535" stop-color="#003566" />
         <stop offset="1" stop-color="white" />
      </linearGradient>
      <linearGradient id="paint9_linear_9_276" x1="255.996" y1="106.309" x2="184.951" y2="170.856"
         gradientUnits="userSpaceOnUse">
         <stop stop-color="white" />
         <stop offset="1" stop-color="#003566" />
      </linearGradient>
      <linearGradient id="paint10_linear_9_276" x1="502.888" y1="153.19" x2="260.172" y2="211.082"
         gradientUnits="userSpaceOnUse">
         <stop stop-color="white" />
         <stop offset="1" stop-color="#003566" />
      </linearGradient>
      <linearGradient id="paint11_linear_9_276" x1="0.664185" y1="163.818" x2="176.276" y2="162.732"
         gradientUnits="userSpaceOnUse">
         <stop stop-color="white" stop-opacity="0.2" />
         <stop offset="0.471" stop-color="white" stop-opacity="0.4" />
         <stop offset="1" stop-color="white" stop-opacity="0.2" />
      </linearGradient>
      <linearGradient id="paint12_linear_9_276" x1="0.664185" y1="163.403" x2="182.09" y2="163.403"
         gradientUnits="userSpaceOnUse">
         <stop stop-color="#E2E2E2" />
         <stop offset="0.535" stop-color="#003566" />
         <stop offset="1" stop-color="white" />
      </linearGradient>
      <linearGradient id="paint13_linear_9_276" x1="173.679" y1="78.5997" x2="330.685" y2="77.8824"
         gradientUnits="userSpaceOnUse">
         <stop stop-color="white" stop-opacity="0.2" />
         <stop offset="0.471" stop-color="white" stop-opacity="0.4" />
         <stop offset="1" stop-color="white" stop-opacity="0.2" />
      </linearGradient>
      <linearGradient id="paint14_linear_9_276" x1="173.679" y1="78.0972" x2="335.881" y2="78.0972"
         gradientUnits="userSpaceOnUse">
         <stop stop-color="#E2E2E2" />
         <stop offset="0.535" stop-color="#003566" />
         <stop offset="1" stop-color="white" />
      </linearGradient>
      <linearGradient id="paint15_linear_9_276" x1="1110.26" y1="106.309" x2="1039.21" y2="170.856"
         gradientUnits="userSpaceOnUse">
         <stop stop-color="white" />
         <stop offset="1" stop-color="#003566" />
      </linearGradient>
      <linearGradient id="paint16_linear_9_276" x1="1027.94" y1="78.5997" x2="1184.95" y2="77.8824"
         gradientUnits="userSpaceOnUse">
         <stop stop-color="white" stop-opacity="0.2" />
         <stop offset="0.471" stop-color="white" stop-opacity="0.4" />
         <stop offset="1" stop-color="white" stop-opacity="0.2" />
      </linearGradient>
      <linearGradient id="paint17_linear_9_276" x1="1027.94" y1="78.0972" x2="1190.14" y2="78.0972"
         gradientUnits="userSpaceOnUse">
         <stop stop-color="#E2E2E2" />
         <stop offset="0.535" stop-color="#003566" />
         <stop offset="1" stop-color="white" />
      </linearGradient>
      <linearGradient id="paint18_linear_9_276" x1="267.396" y1="247.267" x2="398.815" y2="246.567"
         gradientUnits="userSpaceOnUse">
         <stop stop-color="white" stop-opacity="0.2" />
         <stop offset="0.471" stop-color="white" stop-opacity="0.4" />
         <stop offset="1" stop-color="white" stop-opacity="0.2" />
      </linearGradient>
      <linearGradient id="paint19_linear_9_276" x1="267.396" y1="246.907" x2="403.164" y2="246.907"
         gradientUnits="userSpaceOnUse">
         <stop stop-color="#E2E2E2" />
         <stop offset="0.535" stop-color="#003566" />
         <stop offset="1" stop-color="white" />
      </linearGradient>
      <linearGradient id="paint20_linear_9_276" x1="542.537" y1="228.043" x2="673.956" y2="227.343"
         gradientUnits="userSpaceOnUse">
         <stop stop-color="white" stop-opacity="0.2" />
         <stop offset="0.471" stop-color="white" stop-opacity="0.4" />
         <stop offset="1" stop-color="white" stop-opacity="0.2" />
      </linearGradient>
      <linearGradient id="paint21_linear_9_276" x1="542.537" y1="227.683" x2="678.306" y2="227.683"
         gradientUnits="userSpaceOnUse">
         <stop stop-color="#E2E2E2" />
         <stop offset="0.535" stop-color="#003566" />
         <stop offset="1" stop-color="white" />
      </linearGradient>
      <linearGradient id="paint22_linear_9_276" x1="635.052" y1="86.2671" x2="766.471" y2="85.5666"
         gradientUnits="userSpaceOnUse">
         <stop stop-color="white" stop-opacity="0.2" />
         <stop offset="0.471" stop-color="white" stop-opacity="0.4" />
         <stop offset="1" stop-color="white" stop-opacity="0.2" />
      </linearGradient>
      <linearGradient id="paint23_linear_9_276" x1="635.052" y1="85.9067" x2="770.821" y2="85.9067"
         gradientUnits="userSpaceOnUse">
         <stop stop-color="#E2E2E2" />
         <stop offset="0.535" stop-color="#003566" />
         <stop offset="1" stop-color="white" />
      </linearGradient>
      <linearGradient id="paint24_linear_9_276" x1="422.388" y1="294.868" x2="579.394" y2="294.151"
         gradientUnits="userSpaceOnUse">
         <stop stop-color="white" stop-opacity="0.2" />
         <stop offset="0.471" stop-color="white" stop-opacity="0.4" />
         <stop offset="1" stop-color="white" stop-opacity="0.2" />
      </linearGradient>
      <linearGradient id="paint25_linear_9_276" x1="422.388" y1="294.366" x2="584.59" y2="294.366"
         gradientUnits="userSpaceOnUse">
         <stop stop-color="#E2E2E2" />
         <stop offset="0.535" stop-color="#003566" />
         <stop offset="1" stop-color="white" />
      </linearGradient>
      <linearGradient id="paint26_linear_9_276" x1="358" y1="20.3636" x2="509.001" y2="19.447"
         gradientUnits="userSpaceOnUse">
         <stop stop-color="white" stop-opacity="0.2" />
         <stop offset="0.471" stop-color="white" stop-opacity="0.4" />
         <stop offset="1" stop-color="white" stop-opacity="0.2" />
      </linearGradient>
      <linearGradient id="paint27_linear_9_276" x1="358" y1="20" x2="514" y2="20" gradientUnits="userSpaceOnUse">
         <stop stop-color="#E2E2E2" />
         <stop offset="0.535" stop-color="#003566" />
         <stop offset="1" stop-color="white" />
      </linearGradient>
   </defs>
</svg>