<svg width="345" height="579" viewBox="0 0 345 579" fill="none" xmlns="http://www.w3.org/2000/svg">
   <g filter="url(#filter0_d_16_1130)">
      <rect x="197" y="64" width="136" height="46" rx="8" fill="url(#paint0_linear_16_1130)"
         shape-rendering="crispEdges" />
      <rect x="198" y="65" width="134" height="44" rx="7" stroke="url(#paint1_linear_16_1130)"
         stroke-width="2" shape-rendering="crispEdges" />
   </g>
   <g filter="url(#filter1_d_16_1130)">
      <rect y="228" width="136" height="46" rx="8" fill="url(#paint2_linear_16_1130)"
         shape-rendering="crispEdges" />
      <rect x="1" y="229" width="134" height="44" rx="7" stroke="url(#paint3_linear_16_1130)"
         stroke-width="2" shape-rendering="crispEdges" />
   </g>
   <path d="M197 87L188 87C176.954 87 168 78.0457 168 67L168 36"
      stroke="url(#paint4_linear_16_1130)" stroke-width="2" stroke-linecap="round"
      stroke-linejoin="round" />
   <path
      d="M168.007 80L168.007 114.871C168.007 126.039 158.861 135.043 147.694 134.869L136 134.686M168.507 129L168.507 178C168.507 189.046 177.461 198 188.507 198L205 198"
      stroke="url(#paint5_linear_16_1130)" stroke-width="2" stroke-linecap="round"
      stroke-linejoin="round" />
   <path d="M168 410.075L168 350" stroke="url(#paint6_linear_16_1130)" stroke-width="2"
      stroke-linecap="round" stroke-linejoin="round" />
   <path d="M168 472L168 445" stroke="url(#paint7_linear_16_1130)" stroke-width="2"
      stroke-linecap="round" stroke-linejoin="round" />
   <path d="M168 530L168 503" stroke="url(#paint8_linear_16_1130)" stroke-width="2"
      stroke-linecap="round" stroke-linejoin="round" />
   <path
      d="M169.328 187L169.328 228.276C169.328 239.322 160.374 248.276 149.328 248.276L137 248.276"
      stroke="url(#paint9_linear_16_1130)" stroke-width="2" stroke-linecap="round"
      stroke-linejoin="round" />
   <path d="M169 242L169 274C169 283.389 176.611 291 186 291V291L203 291"
      stroke="url(#paint10_linear_16_1130)" stroke-width="2" stroke-linecap="round"
      stroke-linejoin="round" />
   <path d="M169 286L169 334C169 345.046 160.046 354 149 354L130.5 354"
      stroke="url(#paint11_linear_16_1130)" stroke-width="2" stroke-linecap="round"
      stroke-linejoin="round" />
   <g filter="url(#filter2_d_16_1130)">
      <rect x="111" width="121" height="36" rx="8" fill="url(#paint12_linear_16_1130)"
         shape-rendering="crispEdges" />
      <rect x="112" y="1" width="119" height="34" rx="7" stroke="url(#paint13_linear_16_1130)"
         stroke-width="2" shape-rendering="crispEdges" />
   </g>
   <g filter="url(#filter3_d_16_1130)">
      <rect x="75" y="410" width="193" height="36" rx="8" fill="url(#paint14_linear_16_1130)"
         shape-rendering="crispEdges" />
      <rect x="76" y="411" width="191" height="34" rx="7" stroke="url(#paint15_linear_16_1130)"
         stroke-width="2" shape-rendering="crispEdges" />
   </g>
   <g filter="url(#filter4_d_16_1130)">
      <rect x="46" y="531" width="251" height="36" rx="8" fill="url(#paint16_linear_16_1130)"
         shape-rendering="crispEdges" />
      <rect x="47" y="532" width="249" height="34" rx="7" stroke="url(#paint17_linear_16_1130)"
         stroke-width="2" shape-rendering="crispEdges" />
   </g>
   <g filter="url(#filter5_d_16_1130)">
      <rect x="20" y="343" width="111" height="30" rx="8" fill="url(#paint18_linear_16_1130)"
         shape-rendering="crispEdges" />
      <rect x="21" y="344" width="109" height="28" rx="7" stroke="url(#paint19_linear_16_1130)"
         stroke-width="2" shape-rendering="crispEdges" />
   </g>
   <g filter="url(#filter6_d_16_1130)">
      <rect x="33" y="118" width="104" height="30" rx="8" fill="url(#paint20_linear_16_1130)"
         shape-rendering="crispEdges" />
      <rect x="34" y="119" width="102" height="28" rx="7" stroke="url(#paint21_linear_16_1130)"
         stroke-width="2" shape-rendering="crispEdges" />
   </g>
   <g filter="url(#filter7_d_16_1130)">
      <rect x="206" y="180" width="124" height="30" rx="8" fill="url(#paint22_linear_16_1130)"
         shape-rendering="crispEdges" />
      <rect x="207" y="181" width="122" height="28" rx="7" stroke="url(#paint23_linear_16_1130)"
         stroke-width="2" shape-rendering="crispEdges" />
   </g>
   <g filter="url(#filter8_d_16_1130)">
      <rect x="203" y="276" width="104" height="30" rx="8" fill="url(#paint24_linear_16_1130)"
         shape-rendering="crispEdges" />
      <rect x="204" y="277" width="102" height="28" rx="7" stroke="url(#paint25_linear_16_1130)"
         stroke-width="2" shape-rendering="crispEdges" />
   </g>
   <g filter="url(#filter9_d_16_1130)">
      <rect x="89" y="471" width="160" height="30" rx="8" fill="url(#paint26_linear_16_1130)"
         shape-rendering="crispEdges" />
      <rect x="90" y="472" width="158" height="28" rx="7" stroke="url(#paint27_linear_16_1130)"
         stroke-width="2" shape-rendering="crispEdges" />
   </g>
   <path
      d="M228.524 72.0059H231.635C232.965 72.0059 233.973 72.1927 234.656 72.5664C235.34 72.9401 235.682 73.5964 235.682 74.5352C235.682 74.9134 235.62 75.2552 235.497 75.5605C235.379 75.8659 235.205 76.1165 234.978 76.3125C234.75 76.5085 234.472 76.6361 234.144 76.6953V76.7637C234.476 76.832 234.777 76.9505 235.046 77.1191C235.315 77.2832 235.529 77.5247 235.688 77.8438C235.853 78.1582 235.935 78.5775 235.935 79.1016C235.935 79.7077 235.786 80.2272 235.49 80.6602C235.194 81.0931 234.77 81.4258 234.219 81.6582C233.672 81.8861 233.02 82 232.264 82H228.524V72.0059ZM230.644 75.9639H231.874C232.489 75.9639 232.915 75.8682 233.152 75.6768C233.389 75.4808 233.508 75.1937 233.508 74.8154C233.508 74.4326 233.367 74.1592 233.084 73.9951C232.806 73.8265 232.364 73.7422 231.758 73.7422H230.644V75.9639ZM230.644 77.6455V80.25H232.024C232.662 80.25 233.107 80.127 233.357 79.8809C233.608 79.6348 233.733 79.3044 233.733 78.8896C233.733 78.6436 233.679 78.4271 233.569 78.2402C233.46 78.0534 233.275 77.9076 233.016 77.8027C232.76 77.6979 232.407 77.6455 231.956 77.6455H230.644ZM240.843 72.0059C241.75 72.0059 242.497 72.1152 243.085 72.334C243.677 72.5527 244.117 72.8831 244.404 73.3252C244.691 73.7673 244.835 74.3255 244.835 75C244.835 75.4557 244.748 75.8545 244.575 76.1963C244.402 76.5381 244.174 76.8275 243.892 77.0645C243.609 77.3014 243.304 77.4951 242.976 77.6455L245.915 82H243.563L241.178 78.165H240.05V82H237.931V72.0059H240.843ZM240.692 73.7422H240.05V76.4424H240.733C241.435 76.4424 241.937 76.3262 242.237 76.0938C242.543 75.8568 242.695 75.5104 242.695 75.0547C242.695 74.5807 242.531 74.2435 242.203 74.043C241.88 73.8424 241.376 73.7422 240.692 73.7422ZM247.173 82V72.0059H249.292V82H247.173ZM257.563 82H251.808V72.0059H257.563V73.7422H253.927V75.9365H257.311V77.6729H253.927V80.25H257.563V82ZM261.74 82H259.655V72.0059H265.384V73.7422H261.74V76.3193H265.131V78.0488H261.74V82ZM267.339 82V72.0059H269.458V82H267.339ZM280.84 82H278.146L273.799 74.4395H273.737C273.756 74.7539 273.771 75.0706 273.785 75.3896C273.799 75.7087 273.812 76.0277 273.826 76.3467C273.84 76.6611 273.854 76.9779 273.867 77.2969V82H271.974V72.0059H274.646L278.987 79.4912H279.035C279.026 79.1813 279.015 78.8737 279.001 78.5684C278.987 78.263 278.974 77.9577 278.96 77.6523C278.951 77.347 278.942 77.0417 278.933 76.7363V72.0059H280.84V82ZM287.156 76.3877H291.121V81.5693C290.597 81.7425 290.052 81.8815 289.487 81.9863C288.922 82.0866 288.282 82.1367 287.566 82.1367C286.573 82.1367 285.73 81.9408 285.037 81.5488C284.344 81.1569 283.818 80.5781 283.458 79.8125C283.098 79.0469 282.918 78.1058 282.918 76.9893C282.918 75.9411 283.118 75.0342 283.52 74.2686C283.925 73.5029 284.515 72.9105 285.29 72.4912C286.069 72.0719 287.02 71.8623 288.141 71.8623C288.669 71.8623 289.191 71.9193 289.706 72.0332C290.221 72.1471 290.688 72.2952 291.107 72.4775L290.403 74.1729C290.098 74.0179 289.749 73.888 289.357 73.7832C288.965 73.6784 288.555 73.626 288.127 73.626C287.512 73.626 286.976 73.7673 286.521 74.0498C286.069 74.3324 285.718 74.7288 285.468 75.2393C285.222 75.7451 285.099 76.3421 285.099 77.0303C285.099 77.682 285.188 78.2607 285.365 78.7666C285.543 79.2679 285.823 79.6621 286.206 79.9492C286.589 80.2318 287.088 80.373 287.703 80.373C288.004 80.373 288.257 80.3594 288.462 80.332C288.672 80.3001 288.868 80.2682 289.05 80.2363V78.1514H287.156V76.3877ZM302.899 82H297.144V72.0059H302.899V73.7422H299.263V75.9365H302.646V77.6729H299.263V80.25H302.899V82ZM212.091 101V91.0059H214.21V101H212.091ZM225.592 101H222.898L218.551 93.4395H218.489C218.507 93.7539 218.523 94.0706 218.537 94.3896C218.551 94.7087 218.564 95.0277 218.578 95.3467C218.592 95.6611 218.605 95.9779 218.619 96.2969V101H216.726V91.0059H219.398L223.739 98.4912H223.787C223.778 98.1813 223.767 97.8737 223.753 97.5684C223.739 97.263 223.726 96.9577 223.712 96.6523C223.703 96.347 223.694 96.0417 223.685 95.7363V91.0059H225.592V101ZM235.955 91.0059L232.558 101H230.247L226.856 91.0059H228.996L230.876 96.9531C230.908 97.0534 230.96 97.2425 231.033 97.5205C231.106 97.7939 231.179 98.0856 231.252 98.3955C231.329 98.7008 231.382 98.9538 231.409 99.1543C231.437 98.9538 231.484 98.7008 231.553 98.3955C231.626 98.0902 231.696 97.8008 231.765 97.5273C231.838 97.2493 231.89 97.0579 231.922 96.9531L233.815 91.0059H235.955ZM242.976 101H237.22V91.0059H242.976V92.7422H239.339V94.9365H242.723V96.6729H239.339V99.25H242.976V101ZM250.967 98.2246C250.967 98.8171 250.823 99.332 250.536 99.7695C250.249 100.207 249.83 100.544 249.278 100.781C248.731 101.018 248.066 101.137 247.282 101.137C246.936 101.137 246.596 101.114 246.264 101.068C245.936 101.023 245.619 100.957 245.313 100.87C245.013 100.779 244.726 100.667 244.452 100.535V98.5664C244.926 98.776 245.418 98.9652 245.929 99.1338C246.439 99.3024 246.945 99.3867 247.446 99.3867C247.793 99.3867 248.071 99.3411 248.28 99.25C248.494 99.1589 248.649 99.0335 248.745 98.874C248.841 98.7145 248.889 98.5322 248.889 98.3271C248.889 98.0765 248.804 97.8623 248.636 97.6846C248.467 97.5068 248.235 97.3405 247.938 97.1855C247.647 97.0306 247.316 96.8643 246.947 96.6865C246.715 96.5771 246.462 96.445 246.188 96.29C245.915 96.1305 245.655 95.9368 245.409 95.709C245.163 95.4811 244.96 95.2054 244.801 94.8818C244.646 94.5537 244.568 94.1618 244.568 93.7061C244.568 93.109 244.705 92.5986 244.979 92.1748C245.252 91.751 245.642 91.4274 246.147 91.2041C246.658 90.9762 247.259 90.8623 247.952 90.8623C248.472 90.8623 248.966 90.9238 249.436 91.0469C249.91 91.1654 250.404 91.3385 250.919 91.5664L250.235 93.2139C249.775 93.027 249.363 92.8835 248.998 92.7832C248.633 92.6784 248.262 92.626 247.884 92.626C247.619 92.626 247.394 92.6693 247.207 92.7559C247.02 92.8379 246.879 92.9564 246.783 93.1113C246.688 93.2617 246.64 93.4372 246.64 93.6377C246.64 93.8747 246.708 94.0752 246.845 94.2393C246.986 94.3988 247.196 94.5537 247.474 94.7041C247.756 94.8545 248.107 95.0299 248.526 95.2305C249.037 95.472 249.472 95.7249 249.832 95.9893C250.197 96.249 250.477 96.5566 250.673 96.9121C250.869 97.263 250.967 97.7005 250.967 98.2246ZM256.634 101H254.515V92.7695H251.801V91.0059H259.348V92.7695H256.634V101ZM260.886 101V91.0059H263.005V101H260.886ZM269.314 95.3877H273.279V100.569C272.755 100.743 272.211 100.882 271.646 100.986C271.08 101.087 270.44 101.137 269.725 101.137C268.731 101.137 267.888 100.941 267.195 100.549C266.503 100.157 265.976 99.5781 265.616 98.8125C265.256 98.0469 265.076 97.1058 265.076 95.9893C265.076 94.9411 265.277 94.0342 265.678 93.2686C266.083 92.5029 266.674 91.9105 267.448 91.4912C268.228 91.0719 269.178 90.8623 270.299 90.8623C270.827 90.8623 271.349 90.9193 271.864 91.0332C272.379 91.1471 272.846 91.2952 273.266 91.4775L272.562 93.1729C272.256 93.0179 271.908 92.888 271.516 92.7832C271.124 92.6784 270.714 92.626 270.285 92.626C269.67 92.626 269.134 92.7673 268.679 93.0498C268.228 93.3324 267.877 93.7288 267.626 94.2393C267.38 94.7451 267.257 95.3421 267.257 96.0303C267.257 96.682 267.346 97.2607 267.523 97.7666C267.701 98.2679 267.981 98.6621 268.364 98.9492C268.747 99.2318 269.246 99.373 269.861 99.373C270.162 99.373 270.415 99.3594 270.62 99.332C270.83 99.3001 271.026 99.2682 271.208 99.2363V97.1514H269.314V95.3877ZM281.783 101L281.059 98.6211H277.415L276.69 101H274.407L277.935 90.9648H280.525L284.066 101H281.783ZM280.553 96.8438L279.828 94.5195C279.783 94.3646 279.721 94.1663 279.644 93.9248C279.571 93.6787 279.495 93.4303 279.418 93.1797C279.345 92.9245 279.286 92.7035 279.24 92.5166C279.195 92.7035 279.131 92.9359 279.049 93.2139C278.971 93.4873 278.896 93.7471 278.823 93.9932C278.75 94.2393 278.698 94.4147 278.666 94.5195L277.948 96.8438H280.553ZM289.576 92.626C289.171 92.626 288.811 92.7057 288.496 92.8652C288.186 93.0202 287.924 93.2458 287.71 93.542C287.5 93.8382 287.341 94.196 287.231 94.6152C287.122 95.0345 287.067 95.5062 287.067 96.0303C287.067 96.7367 287.154 97.3405 287.327 97.8418C287.505 98.3385 287.778 98.7191 288.147 98.9834C288.517 99.2432 288.993 99.373 289.576 99.373C289.982 99.373 290.387 99.3275 290.793 99.2363C291.203 99.1452 291.647 99.0153 292.126 98.8467V100.624C291.684 100.806 291.249 100.936 290.82 101.014C290.392 101.096 289.911 101.137 289.378 101.137C288.348 101.137 287.5 100.925 286.835 100.501C286.174 100.073 285.684 99.4756 285.365 98.71C285.046 97.9398 284.887 97.042 284.887 96.0166C284.887 95.2601 284.989 94.5674 285.194 93.9385C285.399 93.3096 285.7 92.765 286.097 92.3047C286.493 91.8444 286.983 91.4889 287.566 91.2383C288.15 90.9876 288.82 90.8623 289.576 90.8623C290.073 90.8623 290.57 90.9261 291.066 91.0537C291.568 91.1768 292.046 91.3477 292.502 91.5664L291.818 93.2891C291.445 93.1113 291.069 92.9564 290.69 92.8242C290.312 92.6921 289.941 92.626 289.576 92.626ZM294.259 101V91.0059H296.378V101H294.259ZM307.965 95.9893C307.965 96.7594 307.869 97.4613 307.678 98.0947C307.486 98.7236 307.195 99.266 306.803 99.7217C306.415 100.177 305.923 100.528 305.326 100.774C304.729 101.016 304.023 101.137 303.207 101.137C302.391 101.137 301.685 101.016 301.088 100.774C300.491 100.528 299.996 100.177 299.604 99.7217C299.217 99.266 298.928 98.7214 298.736 98.0879C298.545 97.4544 298.449 96.7503 298.449 95.9756C298.449 94.9411 298.618 94.041 298.955 93.2754C299.297 92.5052 299.821 91.9082 300.527 91.4844C301.234 91.0605 302.132 90.8486 303.221 90.8486C304.305 90.8486 305.196 91.0605 305.894 91.4844C306.595 91.9082 307.115 92.5052 307.452 93.2754C307.794 94.0456 307.965 94.9502 307.965 95.9893ZM300.671 95.9893C300.671 96.6865 300.757 97.2881 300.931 97.7939C301.108 98.2952 301.384 98.6826 301.758 98.9561C302.132 99.2249 302.615 99.3594 303.207 99.3594C303.809 99.3594 304.296 99.2249 304.67 98.9561C305.044 98.6826 305.315 98.2952 305.483 97.7939C305.657 97.2881 305.743 96.6865 305.743 95.9893C305.743 94.9411 305.547 94.1162 305.155 93.5146C304.763 92.9131 304.118 92.6123 303.221 92.6123C302.624 92.6123 302.136 92.749 301.758 93.0225C301.384 93.2913 301.108 93.6787 300.931 94.1846C300.757 94.6859 300.671 95.2874 300.671 95.9893ZM305.894 87.9229V88.0664C305.761 88.194 305.588 88.3512 305.374 88.5381C305.16 88.7249 304.93 88.9209 304.684 89.126C304.438 89.3265 304.196 89.5202 303.959 89.707C303.722 89.8893 303.515 90.042 303.337 90.165H301.949V89.9805C302.1 89.8073 302.273 89.6022 302.469 89.3652C302.669 89.1237 302.868 88.8753 303.063 88.6201C303.259 88.3649 303.424 88.1325 303.556 87.9229H305.894ZM318.902 101H316.209L311.861 93.4395H311.8C311.818 93.7539 311.834 94.0706 311.848 94.3896C311.861 94.7087 311.875 95.0277 311.889 95.3467C311.902 95.6611 311.916 95.9779 311.93 96.2969V101H310.036V91.0059H312.709L317.05 98.4912H317.098C317.089 98.1813 317.077 97.8737 317.063 97.5684C317.05 97.263 317.036 96.9577 317.022 96.6523C317.013 96.347 317.004 96.0417 316.995 95.7363V91.0059H318.902V101Z"
      fill="white" />
   <path
      d="M135.943 14.46C134.356 14.38 133.183 14.3333 132.423 14.32V21.16C133.196 21.1467 134.369 21.1 135.943 21.02V25H124.323V21.02C125.856 21.1 127.023 21.1467 127.823 21.16V14.32C127.023 14.3333 125.856 14.38 124.323 14.46V10.48H135.943V14.46ZM154.325 10.5C154.232 12.7533 154.185 15.1667 154.185 17.74C154.185 20.3267 154.232 22.7467 154.325 25H147.165L142.325 14.08L142.685 25H137.545C137.652 22.4133 137.705 19.9933 137.705 17.74C137.705 15.5 137.652 13.0867 137.545 10.5H144.905L149.765 21.72L149.425 10.5H154.325ZM167.544 14.46C165.957 14.38 164.784 14.3333 164.024 14.32V21.16C164.797 21.1467 165.971 21.1 167.544 21.02V25H155.924V21.02C157.457 21.1 158.624 21.1467 159.424 21.16V14.32C158.624 14.3333 157.457 14.38 155.924 14.46V10.48H167.544V14.46ZM177.947 25.2C174.933 25.2 172.713 24.56 171.287 23.28C169.86 22 169.147 20.1733 169.147 17.8C169.147 15.4133 169.86 13.5267 171.287 12.14C172.713 10.7533 174.933 10.06 177.947 10.06C182.16 10.06 184.98 11.5067 186.407 14.4C185.207 14.8133 183.8 15.4333 182.187 16.26C181.8 15.5133 181.187 14.96 180.347 14.6C179.52 14.24 178.673 14.06 177.807 14.06C176.527 14.06 175.573 14.4 174.947 15.08C174.32 15.7467 174.007 16.5733 174.007 17.56C174.007 18.6267 174.34 19.5 175.007 20.18C175.687 20.8467 176.72 21.18 178.107 21.18C179.213 21.18 180.093 21 180.747 20.64C181.4 20.2667 181.88 19.68 182.187 18.88C183.28 19.4667 184.68 20.1267 186.387 20.86C185.72 22.4733 184.607 23.6 183.047 24.24C181.487 24.88 179.787 25.2 177.947 25.2ZM199.634 14.46C198.047 14.38 196.874 14.3333 196.114 14.32V21.16C196.887 21.1467 198.061 21.1 199.634 21.02V25H188.014V21.02C189.547 21.1 190.714 21.1467 191.514 21.16V14.32C190.714 14.3333 189.547 14.38 188.014 14.46V10.48H199.634V14.46ZM210.137 25.2C207.083 25.2 204.837 24.54 203.397 23.22C201.957 21.8867 201.237 20.02 201.237 17.62C201.237 15.2467 201.95 13.3933 203.377 12.06C204.817 10.7267 207.07 10.06 210.137 10.06C213.217 10.06 215.47 10.7267 216.897 12.06C218.337 13.3933 219.057 15.2467 219.057 17.62C219.057 20.0333 218.343 21.9 216.917 23.22C215.49 24.54 213.23 25.2 210.137 25.2ZM210.137 21.12C211.617 21.12 212.683 20.84 213.337 20.28C213.99 19.7067 214.317 18.82 214.317 17.62C214.317 16.4467 213.99 15.5733 213.337 15C212.683 14.4267 211.617 14.14 210.137 14.14C208.67 14.14 207.61 14.4267 206.957 15C206.303 15.5733 205.977 16.4467 205.977 17.62C205.977 18.8067 206.303 19.6867 206.957 20.26C207.61 20.8333 208.67 21.12 210.137 21.12Z"
      fill="white" />
   <path
      d="M101.849 421.5C104.502 421.5 106.349 421.973 107.389 422.92C108.429 423.853 108.949 425.173 108.949 426.88C108.949 428.053 108.742 429.053 108.329 429.88C107.915 430.693 107.189 431.333 106.149 431.8C105.109 432.253 103.675 432.48 101.849 432.48H97.6888V436H92.7688C92.8754 433.413 92.9288 430.993 92.9288 428.74C92.9288 426.487 92.8754 424.067 92.7688 421.48H97.6888V421.5H101.849ZM100.449 428.62C101.555 428.62 102.382 428.58 102.929 428.5C103.489 428.407 103.875 428.247 104.089 428.02C104.315 427.793 104.429 427.46 104.429 427.02C104.429 426.58 104.322 426.253 104.109 426.04C103.909 425.813 103.529 425.66 102.969 425.58C102.422 425.5 101.582 425.46 100.449 425.46H97.6888V428.62H100.449ZM126.602 426.32C126.602 427.48 126.316 428.46 125.742 429.26C125.182 430.06 124.216 430.64 122.842 431C123.002 431.213 123.116 431.38 123.182 431.5L126.422 436H120.982C120.396 434.907 119.469 433.36 118.202 431.36H115.262V436H110.542C110.649 433.413 110.702 430.993 110.702 428.74C110.702 426.487 110.649 424.067 110.542 421.48H115.262V421.5H119.362C122.056 421.5 123.936 421.933 125.002 422.8C126.069 423.667 126.602 424.84 126.602 426.32ZM115.262 425.34V427.62H117.962C119.096 427.62 119.949 427.587 120.522 427.52C121.109 427.44 121.516 427.32 121.742 427.16C121.969 427 122.082 426.767 122.082 426.46C122.082 426.167 121.976 425.94 121.762 425.78C121.549 425.62 121.149 425.507 120.562 425.44C119.976 425.373 119.109 425.34 117.962 425.34H115.262ZM137.098 436.2C134.045 436.2 131.798 435.54 130.358 434.22C128.918 432.887 128.198 431.02 128.198 428.62C128.198 426.247 128.912 424.393 130.338 423.06C131.778 421.727 134.032 421.06 137.098 421.06C140.178 421.06 142.432 421.727 143.858 423.06C145.298 424.393 146.018 426.247 146.018 428.62C146.018 431.033 145.305 432.9 143.878 434.22C142.452 435.54 140.192 436.2 137.098 436.2ZM137.098 432.12C138.578 432.12 139.645 431.84 140.298 431.28C140.952 430.707 141.278 429.82 141.278 428.62C141.278 427.447 140.952 426.573 140.298 426C139.645 425.427 138.578 425.14 137.098 425.14C135.632 425.14 134.572 425.427 133.918 426C133.265 426.573 132.938 427.447 132.938 428.62C132.938 429.807 133.265 430.687 133.918 431.26C134.572 431.833 135.632 432.12 137.098 432.12ZM163.796 425.68C161.703 425.613 159.67 425.573 157.696 425.56V436H152.696V425.56C150.71 425.573 148.683 425.613 146.616 425.68V421.48H163.796V425.68ZM173.114 436.2C170.061 436.2 167.814 435.54 166.374 434.22C164.934 432.887 164.214 431.02 164.214 428.62C164.214 426.247 164.927 424.393 166.354 423.06C167.794 421.727 170.047 421.06 173.114 421.06C176.194 421.06 178.447 421.727 179.874 423.06C181.314 424.393 182.034 426.247 182.034 428.62C182.034 431.033 181.321 432.9 179.894 434.22C178.467 435.54 176.207 436.2 173.114 436.2ZM173.114 432.12C174.594 432.12 175.661 431.84 176.314 431.28C176.967 430.707 177.294 429.82 177.294 428.62C177.294 427.447 176.967 426.573 176.314 426C175.661 425.427 174.594 425.14 173.114 425.14C171.647 425.14 170.587 425.427 169.934 426C169.281 426.573 168.954 427.447 168.954 428.62C168.954 429.807 169.281 430.687 169.934 431.26C170.587 431.833 171.647 432.12 173.114 432.12ZM199.812 425.68C197.719 425.613 195.685 425.573 193.712 425.56V436H188.712V425.56C186.725 425.573 184.699 425.613 182.632 425.68V421.48H199.812V425.68ZM213.041 425.46C211.454 425.38 210.281 425.333 209.521 425.32V432.16C210.294 432.147 211.468 432.1 213.041 432.02V436H201.421V432.02C202.954 432.1 204.121 432.147 204.921 432.16V425.32C204.121 425.333 202.954 425.38 201.421 425.46V421.48H213.041V425.46ZM223.724 421.5C226.377 421.5 228.224 421.973 229.264 422.92C230.304 423.853 230.824 425.173 230.824 426.88C230.824 428.053 230.617 429.053 230.204 429.88C229.79 430.693 229.064 431.333 228.024 431.8C226.984 432.253 225.55 432.48 223.724 432.48H219.564V436H214.644C214.75 433.413 214.804 430.993 214.804 428.74C214.804 426.487 214.75 424.067 214.644 421.48H219.564V421.5H223.724ZM222.324 428.62C223.43 428.62 224.257 428.58 224.804 428.5C225.364 428.407 225.75 428.247 225.964 428.02C226.19 427.793 226.304 427.46 226.304 427.02C226.304 426.58 226.197 426.253 225.984 426.04C225.784 425.813 225.404 425.66 224.844 425.58C224.297 425.5 223.457 425.46 222.324 425.46H219.564V428.62H222.324ZM241.317 436.2C238.264 436.2 236.017 435.54 234.577 434.22C233.137 432.887 232.417 431.02 232.417 428.62C232.417 426.247 233.131 424.393 234.557 423.06C235.997 421.727 238.251 421.06 241.317 421.06C244.397 421.06 246.651 421.727 248.077 423.06C249.517 424.393 250.237 426.247 250.237 428.62C250.237 431.033 249.524 432.9 248.097 434.22C246.671 435.54 244.411 436.2 241.317 436.2ZM241.317 432.12C242.797 432.12 243.864 431.84 244.517 431.28C245.171 430.707 245.497 429.82 245.497 428.62C245.497 427.447 245.171 426.573 244.517 426C243.864 425.427 242.797 425.14 241.317 425.14C239.851 425.14 238.791 425.427 238.137 426C237.484 426.573 237.157 427.447 237.157 428.62C237.157 429.807 237.484 430.687 238.137 431.26C238.791 431.833 239.851 432.12 241.317 432.12Z"
      fill="white" />
   <path
      d="M104.762 492H102.649V487.687H98.6914V492H96.5723V482.006H98.6914V485.923H102.649V482.006H104.762V492ZM116.362 486.989C116.362 487.759 116.267 488.461 116.075 489.095C115.884 489.724 115.592 490.266 115.2 490.722C114.813 491.177 114.321 491.528 113.724 491.774C113.127 492.016 112.42 492.137 111.604 492.137C110.789 492.137 110.082 492.016 109.485 491.774C108.888 491.528 108.394 491.177 108.002 490.722C107.615 490.266 107.325 489.721 107.134 489.088C106.942 488.454 106.847 487.75 106.847 486.976C106.847 485.941 107.015 485.041 107.353 484.275C107.694 483.505 108.218 482.908 108.925 482.484C109.631 482.061 110.529 481.849 111.618 481.849C112.703 481.849 113.594 482.061 114.291 482.484C114.993 482.908 115.512 483.505 115.85 484.275C116.191 485.046 116.362 485.95 116.362 486.989ZM109.068 486.989C109.068 487.687 109.155 488.288 109.328 488.794C109.506 489.295 109.782 489.683 110.155 489.956C110.529 490.225 111.012 490.359 111.604 490.359C112.206 490.359 112.694 490.225 113.067 489.956C113.441 489.683 113.712 489.295 113.881 488.794C114.054 488.288 114.141 487.687 114.141 486.989C114.141 485.941 113.945 485.116 113.553 484.515C113.161 483.913 112.516 483.612 111.618 483.612C111.021 483.612 110.534 483.749 110.155 484.022C109.782 484.291 109.506 484.679 109.328 485.185C109.155 485.686 109.068 486.287 109.068 486.989ZM124.333 489.225C124.333 489.817 124.189 490.332 123.902 490.77C123.615 491.207 123.196 491.544 122.645 491.781C122.098 492.018 121.432 492.137 120.648 492.137C120.302 492.137 119.963 492.114 119.63 492.068C119.302 492.023 118.985 491.957 118.68 491.87C118.379 491.779 118.092 491.667 117.818 491.535V489.566C118.292 489.776 118.785 489.965 119.295 490.134C119.805 490.302 120.311 490.387 120.812 490.387C121.159 490.387 121.437 490.341 121.646 490.25C121.861 490.159 122.016 490.034 122.111 489.874C122.207 489.715 122.255 489.532 122.255 489.327C122.255 489.076 122.171 488.862 122.002 488.685C121.833 488.507 121.601 488.34 121.305 488.186C121.013 488.031 120.683 487.864 120.313 487.687C120.081 487.577 119.828 487.445 119.555 487.29C119.281 487.131 119.021 486.937 118.775 486.709C118.529 486.481 118.326 486.205 118.167 485.882C118.012 485.554 117.935 485.162 117.935 484.706C117.935 484.109 118.071 483.599 118.345 483.175C118.618 482.751 119.008 482.427 119.514 482.204C120.024 481.976 120.626 481.862 121.318 481.862C121.838 481.862 122.332 481.924 122.802 482.047C123.276 482.165 123.77 482.339 124.285 482.566L123.602 484.214C123.141 484.027 122.729 483.883 122.364 483.783C122 483.678 121.628 483.626 121.25 483.626C120.986 483.626 120.76 483.669 120.573 483.756C120.386 483.838 120.245 483.956 120.149 484.111C120.054 484.262 120.006 484.437 120.006 484.638C120.006 484.875 120.074 485.075 120.211 485.239C120.352 485.399 120.562 485.554 120.84 485.704C121.122 485.854 121.473 486.03 121.893 486.23C122.403 486.472 122.838 486.725 123.198 486.989C123.563 487.249 123.843 487.557 124.039 487.912C124.235 488.263 124.333 488.701 124.333 489.225ZM130 492H127.881V483.77H125.167V482.006H132.714V483.77H130V492ZM134.252 492V482.006H136.371V492H134.252ZM147.753 492H145.06L140.712 484.439H140.65C140.669 484.754 140.685 485.071 140.698 485.39C140.712 485.709 140.726 486.028 140.739 486.347C140.753 486.661 140.767 486.978 140.78 487.297V492H138.887V482.006H141.56L145.9 489.491H145.948C145.939 489.181 145.928 488.874 145.914 488.568C145.9 488.263 145.887 487.958 145.873 487.652C145.864 487.347 145.855 487.042 145.846 486.736V482.006H147.753V492ZM154.069 486.388H158.034V491.569C157.51 491.743 156.965 491.882 156.4 491.986C155.835 492.087 155.195 492.137 154.479 492.137C153.486 492.137 152.643 491.941 151.95 491.549C151.257 491.157 150.731 490.578 150.371 489.812C150.011 489.047 149.831 488.106 149.831 486.989C149.831 485.941 150.032 485.034 150.433 484.269C150.838 483.503 151.428 482.91 152.203 482.491C152.982 482.072 153.933 481.862 155.054 481.862C155.582 481.862 156.104 481.919 156.619 482.033C157.134 482.147 157.601 482.295 158.021 482.478L157.316 484.173C157.011 484.018 156.662 483.888 156.271 483.783C155.879 483.678 155.468 483.626 155.04 483.626C154.425 483.626 153.889 483.767 153.434 484.05C152.982 484.332 152.632 484.729 152.381 485.239C152.135 485.745 152.012 486.342 152.012 487.03C152.012 487.682 152.101 488.261 152.278 488.767C152.456 489.268 152.736 489.662 153.119 489.949C153.502 490.232 154.001 490.373 154.616 490.373C154.917 490.373 155.17 490.359 155.375 490.332C155.585 490.3 155.781 490.268 155.963 490.236V488.151H154.069V486.388ZM167.167 486.121L169.252 482.006H171.535L168.22 488.11V492H166.114V488.179L162.799 482.006H165.096L167.167 486.121ZM184.722 486.907C184.722 488.033 184.505 488.974 184.072 489.73C183.644 490.482 183.022 491.05 182.206 491.433C181.39 491.811 180.408 492 179.26 492H176.43V482.006H179.567C180.616 482.006 181.525 482.193 182.295 482.566C183.065 482.936 183.662 483.485 184.086 484.214C184.51 484.938 184.722 485.836 184.722 486.907ZM182.521 486.962C182.521 486.224 182.411 485.618 182.192 485.144C181.978 484.665 181.659 484.312 181.235 484.084C180.816 483.856 180.297 483.742 179.677 483.742H178.549V490.25H179.458C180.493 490.25 181.26 489.974 181.762 489.423C182.268 488.871 182.521 488.051 182.521 486.962ZM195.864 486.989C195.864 487.759 195.769 488.461 195.577 489.095C195.386 489.724 195.094 490.266 194.702 490.722C194.315 491.177 193.823 491.528 193.226 491.774C192.629 492.016 191.922 492.137 191.106 492.137C190.291 492.137 189.584 492.016 188.987 491.774C188.39 491.528 187.896 491.177 187.504 490.722C187.117 490.266 186.827 489.721 186.636 489.088C186.444 488.454 186.349 487.75 186.349 486.976C186.349 485.941 186.517 485.041 186.854 484.275C187.196 483.505 187.72 482.908 188.427 482.484C189.133 482.061 190.031 481.849 191.12 481.849C192.205 481.849 193.096 482.061 193.793 482.484C194.495 482.908 195.014 483.505 195.352 484.275C195.693 485.046 195.864 485.95 195.864 486.989ZM188.57 486.989C188.57 487.687 188.657 488.288 188.83 488.794C189.008 489.295 189.284 489.683 189.657 489.956C190.031 490.225 190.514 490.359 191.106 490.359C191.708 490.359 192.196 490.225 192.569 489.956C192.943 489.683 193.214 489.295 193.383 488.794C193.556 488.288 193.643 487.687 193.643 486.989C193.643 485.941 193.447 485.116 193.055 484.515C192.663 483.913 192.018 483.612 191.12 483.612C190.523 483.612 190.035 483.749 189.657 484.022C189.284 484.291 189.008 484.679 188.83 485.185C188.657 485.686 188.57 486.287 188.57 486.989ZM202.167 492L199.761 484.159H199.699C199.708 484.346 199.722 484.629 199.74 485.007C199.763 485.381 199.784 485.779 199.802 486.203C199.82 486.627 199.829 487.01 199.829 487.352V492H197.936V482.006H200.82L203.186 489.648H203.227L205.735 482.006H208.62V492H206.645V487.27C206.645 486.955 206.649 486.593 206.658 486.183C206.672 485.772 206.688 485.383 206.706 485.014C206.724 484.64 206.738 484.36 206.747 484.173H206.686L204.108 492H202.167ZM211.143 492V482.006H213.262V492H211.143ZM224.644 492H221.95L217.603 484.439H217.541C217.559 484.754 217.575 485.071 217.589 485.39C217.603 485.709 217.616 486.028 217.63 486.347C217.644 486.661 217.657 486.978 217.671 487.297V492H215.777V482.006H218.45L222.791 489.491H222.839C222.83 489.181 222.818 488.874 222.805 488.568C222.791 488.263 222.777 487.958 222.764 487.652C222.755 487.347 222.745 487.042 222.736 486.736V482.006H224.644V492ZM227.166 492V482.006H229.285V492H227.166ZM240.872 486.989C240.872 487.759 240.776 488.461 240.585 489.095C240.394 489.724 240.102 490.266 239.71 490.722C239.323 491.177 238.83 491.528 238.233 491.774C237.636 492.016 236.93 492.137 236.114 492.137C235.299 492.137 234.592 492.016 233.995 491.774C233.398 491.528 232.904 491.177 232.512 490.722C232.124 490.266 231.835 489.721 231.644 489.088C231.452 488.454 231.356 487.75 231.356 486.976C231.356 485.941 231.525 485.041 231.862 484.275C232.204 483.505 232.728 482.908 233.435 482.484C234.141 482.061 235.039 481.849 236.128 481.849C237.213 481.849 238.104 482.061 238.801 482.484C239.503 482.908 240.022 483.505 240.359 484.275C240.701 485.046 240.872 485.95 240.872 486.989ZM233.578 486.989C233.578 487.687 233.665 488.288 233.838 488.794C234.016 489.295 234.291 489.683 234.665 489.956C235.039 490.225 235.522 490.359 236.114 490.359C236.716 490.359 237.203 490.225 237.577 489.956C237.951 489.683 238.222 489.295 238.391 488.794C238.564 488.288 238.65 487.687 238.65 486.989C238.65 485.941 238.454 485.116 238.062 484.515C237.671 483.913 237.026 483.612 236.128 483.612C235.531 483.612 235.043 483.749 234.665 484.022C234.291 484.291 234.016 484.679 233.838 485.185C233.665 485.686 233.578 486.287 233.578 486.989Z"
      fill="white" />
   <path
      d="M68.8512 552.34C73.9179 552.313 77.5912 552.24 79.8712 552.12C79.7779 552.667 79.7179 553.233 79.6912 553.82C79.6779 554.393 79.6712 555.12 79.6712 556H64.1312C64.2379 553.413 64.2912 550.993 64.2912 548.74C64.2912 546.487 64.2379 544.067 64.1312 541.48H79.6712V545.1H68.8512V547.02C69.4912 547.033 70.4379 547.04 71.6912 547.04C73.8112 547.04 76.0046 547 78.2712 546.92V550.36C76.0046 550.28 73.8112 550.24 71.6912 550.24C70.4379 550.24 69.4912 550.247 68.8512 550.26V552.34ZM98.255 541.5C98.1617 543.753 98.115 546.167 98.115 548.74C98.115 551.327 98.1617 553.747 98.255 556H91.095L86.255 545.08L86.615 556H81.475C81.5817 553.413 81.635 550.993 81.635 548.74C81.635 546.5 81.5817 544.087 81.475 541.5H88.835L93.695 552.72L93.355 541.5H98.255ZM117.034 545.68C114.941 545.613 112.907 545.573 110.934 545.56V556H105.934V545.56C103.947 545.573 101.921 545.613 99.8539 545.68V541.48H117.034V545.68ZM134.703 546.32C134.703 547.48 134.416 548.46 133.843 549.26C133.283 550.06 132.316 550.64 130.943 551C131.103 551.213 131.216 551.38 131.283 551.5L134.523 556H129.083C128.496 554.907 127.57 553.36 126.303 551.36H123.363V556H118.643C118.75 553.413 118.803 550.993 118.803 548.74C118.803 546.487 118.75 544.067 118.643 541.48H123.363V541.5H127.463C130.156 541.5 132.036 541.933 133.103 542.8C134.17 543.667 134.703 544.84 134.703 546.32ZM123.363 545.34V547.62H126.063C127.196 547.62 128.05 547.587 128.623 547.52C129.21 547.44 129.616 547.32 129.843 547.16C130.07 547 130.183 546.767 130.183 546.46C130.183 546.167 130.076 545.94 129.863 545.78C129.65 545.62 129.25 545.507 128.663 545.44C128.076 545.373 127.21 545.34 126.063 545.34H123.363ZM141.019 552.34C146.086 552.313 149.759 552.24 152.039 552.12C151.946 552.667 151.886 553.233 151.859 553.82C151.846 554.393 151.839 555.12 151.839 556H136.299C136.406 553.413 136.459 550.993 136.459 548.74C136.459 546.487 136.406 544.067 136.299 541.48H151.839V545.1H141.019V547.02C141.659 547.033 142.606 547.04 143.859 547.04C145.979 547.04 148.173 547 150.439 546.92V550.36C148.173 550.28 145.979 550.24 143.859 550.24C142.606 550.24 141.659 550.247 141.019 550.26V552.34ZM161.883 547.72H170.423V556H166.903L166.483 552.46C166.083 553.727 165.37 554.667 164.343 555.28C163.316 555.893 162.063 556.2 160.583 556.2C159.236 556.2 158.036 555.9 156.983 555.3C155.943 554.7 155.123 553.84 154.523 552.72C153.936 551.6 153.643 550.293 153.643 548.8C153.643 546.413 154.356 544.527 155.783 543.14C157.21 541.753 159.43 541.06 162.443 541.06C164.163 541.06 165.676 541.34 166.983 541.9C168.303 542.46 169.423 543.327 170.343 544.5C169.743 544.807 168.57 545.42 166.823 546.34L166.323 546.62C165.803 546.1 165.196 545.713 164.503 545.46C163.81 545.193 163.076 545.06 162.303 545.06C161.023 545.06 160.07 545.4 159.443 546.08C158.816 546.747 158.503 547.573 158.503 548.56C158.503 549.627 158.836 550.487 159.503 551.14C160.183 551.793 161.216 552.12 162.603 552.12C163.203 552.12 163.783 552.033 164.343 551.86C164.916 551.687 165.396 551.387 165.783 550.96H161.883V547.72ZM184.642 556C184.389 555.24 184.049 554.287 183.622 553.14H177.242L176.242 556H171.222L176.822 541.48H184.182L189.822 556H184.642ZM182.482 550.02C181.975 548.62 181.455 547.22 180.922 545.82L180.442 544.52C179.975 545.733 179.289 547.567 178.382 550.02H182.482ZM210.493 545.22H199.613V547.32C200.293 547.333 201.313 547.34 202.673 547.34C205.02 547.34 207.406 547.3 209.833 547.22V551.14C207.406 551.047 204.846 551 202.153 551C201.033 551 200.186 551.007 199.613 551.02V556H194.893C195 553.413 195.053 550.993 195.053 548.74C195.053 546.487 195 544.067 194.893 541.48H210.493V545.22ZM223.72 545.46C222.133 545.38 220.96 545.333 220.2 545.32V552.16C220.973 552.147 222.147 552.1 223.72 552.02V556H212.1V552.02C213.633 552.1 214.8 552.147 215.6 552.16V545.32C214.8 545.333 213.633 545.38 212.1 545.46V541.48H223.72V545.46ZM242.103 541.5C242.009 543.753 241.963 546.167 241.963 548.74C241.963 551.327 242.009 553.747 242.103 556H234.943L230.103 545.08L230.463 556H225.323C225.429 553.413 225.483 550.993 225.483 548.74C225.483 546.5 225.429 544.087 225.323 541.5H232.683L237.543 552.72L237.203 541.5H242.103ZM256.322 556C256.068 555.24 255.728 554.287 255.302 553.14H248.922L247.922 556H242.902L248.502 541.48H255.862L261.502 556H256.322ZM254.162 550.02C253.655 548.62 253.135 547.22 252.602 545.82L252.122 544.52C251.655 545.733 250.968 547.567 250.062 550.02H254.162ZM267.058 551.96C270.925 551.933 274.125 551.867 276.658 551.76C276.485 552.44 276.378 553.093 276.338 553.72C276.298 554.347 276.278 555.107 276.278 556H262.178C262.285 553.413 262.338 550.993 262.338 548.74C262.338 546.487 262.285 544.067 262.178 541.48H267.058V551.96Z"
      fill="white" />
   <path
      d="M36.7276 353.006C37.6345 353.006 38.3819 353.115 38.9698 353.334C39.5623 353.553 40.0021 353.883 40.2892 354.325C40.5763 354.767 40.7198 355.326 40.7198 356C40.7198 356.456 40.6332 356.854 40.4601 357.196C40.2869 357.538 40.059 357.827 39.7765 358.064C39.4939 358.301 39.1886 358.495 38.8605 358.646L41.7999 363H39.4483L37.0626 359.165H35.9347V363H33.8155V353.006H36.7276ZM36.5773 354.742H35.9347V357.442H36.6183C37.3201 357.442 37.8214 357.326 38.1222 357.094C38.4275 356.857 38.5802 356.51 38.5802 356.055C38.5802 355.581 38.4161 355.243 38.088 355.043C37.7644 354.842 37.2608 354.742 36.5773 354.742ZM48.8136 363H43.0577V353.006H48.8136V354.742H45.1769V356.937H48.5606V358.673H45.1769V361.25H48.8136V363ZM56.8048 360.225C56.8048 360.817 56.6612 361.332 56.3741 361.77C56.087 362.207 55.6677 362.544 55.1163 362.781C54.5694 363.018 53.9041 363.137 53.1202 363.137C52.7739 363.137 52.4343 363.114 52.1017 363.068C51.7735 363.023 51.4568 362.957 51.1515 362.87C50.8507 362.779 50.5636 362.667 50.2901 362.535V360.566C50.7641 360.776 51.2563 360.965 51.7667 361.134C52.2771 361.302 52.783 361.387 53.2843 361.387C53.6306 361.387 53.9086 361.341 54.1183 361.25C54.3325 361.159 54.4874 361.034 54.5831 360.874C54.6788 360.715 54.7267 360.532 54.7267 360.327C54.7267 360.076 54.6424 359.862 54.4737 359.685C54.3051 359.507 54.0727 359.34 53.7765 359.186C53.4848 359.031 53.1544 358.864 52.7853 358.687C52.5528 358.577 52.2999 358.445 52.0265 358.29C51.753 358.131 51.4933 357.937 51.2472 357.709C51.0011 357.481 50.7983 357.205 50.6388 356.882C50.4838 356.554 50.4064 356.162 50.4064 355.706C50.4064 355.109 50.5431 354.599 50.8165 354.175C51.0899 353.751 51.4796 353.427 51.9855 353.204C52.4959 352.976 53.0974 352.862 53.7901 352.862C54.3097 352.862 54.8041 352.924 55.2735 353.047C55.7475 353.165 56.242 353.339 56.7569 353.566L56.0733 355.214C55.6131 355.027 55.2006 354.883 54.836 354.783C54.4715 354.678 54.1 354.626 53.7218 354.626C53.4575 354.626 53.2319 354.669 53.045 354.756C52.8582 354.838 52.7169 354.956 52.6212 355.111C52.5255 355.262 52.4776 355.437 52.4776 355.638C52.4776 355.875 52.546 356.075 52.6827 356.239C52.824 356.399 53.0336 356.554 53.3116 356.704C53.5942 356.854 53.9451 357.03 54.3644 357.23C54.8748 357.472 55.31 357.725 55.67 357.989C56.0346 358.249 56.3149 358.557 56.5108 358.912C56.7068 359.263 56.8048 359.701 56.8048 360.225ZM61.8087 353.006C63.0984 353.006 64.0395 353.284 64.6319 353.84C65.2244 354.391 65.5206 355.152 65.5206 356.123C65.5206 356.561 65.4545 356.98 65.3224 357.381C65.1902 357.777 64.9737 358.131 64.673 358.44C64.3767 358.75 63.9802 358.996 63.4835 359.179C62.9868 359.356 62.3738 359.445 61.6446 359.445H60.7355V363H58.6163V353.006H61.8087ZM61.6993 354.742H60.7355V357.709H61.4327C61.8292 357.709 62.1733 357.657 62.4649 357.552C62.7566 357.447 62.9822 357.283 63.1417 357.06C63.3012 356.836 63.381 356.549 63.381 356.198C63.381 355.706 63.2442 355.341 62.9708 355.104C62.6974 354.863 62.2735 354.742 61.6993 354.742ZM76.4786 357.989C76.4786 358.759 76.3829 359.461 76.1915 360.095C76.0001 360.724 75.7084 361.266 75.3165 361.722C74.9291 362.177 74.437 362.528 73.8399 362.774C73.2429 363.016 72.5366 363.137 71.7208 363.137C70.9051 363.137 70.1987 363.016 69.6017 362.774C69.0047 362.528 68.5102 362.177 68.1183 361.722C67.7309 361.266 67.4415 360.721 67.2501 360.088C67.0587 359.454 66.963 358.75 66.963 357.976C66.963 356.941 67.1316 356.041 67.4689 355.275C67.8106 354.505 68.3347 353.908 69.0411 353.484C69.7475 353.061 70.6453 352.849 71.7345 352.849C72.8191 352.849 73.7101 353.061 74.4073 353.484C75.1092 353.908 75.6287 354.505 75.9659 355.275C76.3077 356.046 76.4786 356.95 76.4786 357.989ZM69.1847 357.989C69.1847 358.687 69.2713 359.288 69.4444 359.794C69.6222 360.295 69.8979 360.683 70.2716 360.956C70.6453 361.225 71.1284 361.359 71.7208 361.359C72.3224 361.359 72.81 361.225 73.1837 360.956C73.5574 360.683 73.8286 360.295 73.9972 359.794C74.1704 359.288 74.2569 358.687 74.2569 357.989C74.2569 356.941 74.061 356.116 73.669 355.515C73.2771 354.913 72.6323 354.612 71.7345 354.612C71.1375 354.612 70.6498 354.749 70.2716 355.022C69.8979 355.291 69.6222 355.679 69.4444 356.185C69.2713 356.686 69.1847 357.287 69.1847 357.989ZM87.4161 363H84.7228L80.3751 355.439H80.3136C80.3318 355.754 80.3478 356.071 80.3614 356.39C80.3751 356.709 80.3888 357.028 80.4024 357.347C80.4161 357.661 80.4298 357.978 80.4435 358.297V363H78.5499V353.006H81.2228L85.5636 360.491H85.6114C85.6023 360.181 85.5909 359.874 85.5773 359.568C85.5636 359.263 85.5499 358.958 85.5362 358.652C85.5271 358.347 85.518 358.042 85.5089 357.736V353.006H87.4161V363ZM95.838 360.225C95.838 360.817 95.6944 361.332 95.4073 361.77C95.1202 362.207 94.701 362.544 94.1495 362.781C93.6026 363.018 92.9373 363.137 92.1534 363.137C91.8071 363.137 91.4676 363.114 91.1349 363.068C90.8067 363.023 90.49 362.957 90.1847 362.87C89.8839 362.779 89.5968 362.667 89.3233 362.535V360.566C89.7973 360.776 90.2895 360.965 90.7999 361.134C91.3103 361.302 91.8162 361.387 92.3175 361.387C92.6638 361.387 92.9418 361.341 93.1515 361.25C93.3657 361.159 93.5206 361.034 93.6163 360.874C93.712 360.715 93.7599 360.532 93.7599 360.327C93.7599 360.076 93.6756 359.862 93.5069 359.685C93.3383 359.507 93.1059 359.34 92.8097 359.186C92.518 359.031 92.1876 358.864 91.8185 358.687C91.586 358.577 91.3331 358.445 91.0597 358.29C90.7862 358.131 90.5265 357.937 90.2804 357.709C90.0343 357.481 89.8315 357.205 89.672 356.882C89.517 356.554 89.4396 356.162 89.4396 355.706C89.4396 355.109 89.5763 354.599 89.8497 354.175C90.1232 353.751 90.5128 353.427 91.0187 353.204C91.5291 352.976 92.1306 352.862 92.8233 352.862C93.3429 352.862 93.8373 352.924 94.3067 353.047C94.7807 353.165 95.2752 353.339 95.7901 353.566L95.1066 355.214C94.6463 355.027 94.2338 354.883 93.8692 354.783C93.5047 354.678 93.1332 354.626 92.755 354.626C92.4907 354.626 92.2651 354.669 92.0782 354.756C91.8914 354.838 91.7501 354.956 91.6544 355.111C91.5587 355.262 91.5108 355.437 91.5108 355.638C91.5108 355.875 91.5792 356.075 91.7159 356.239C91.8572 356.399 92.0668 356.554 92.3448 356.704C92.6274 356.854 92.9783 357.03 93.3976 357.23C93.908 357.472 94.3432 357.725 94.7032 357.989C95.0678 358.249 95.3481 358.557 95.5441 358.912C95.74 359.263 95.838 359.701 95.838 360.225ZM97.6495 363V353.006H99.7687V363H97.6495ZM110.125 353.006L106.728 363H104.417L101.026 353.006H103.166L105.046 358.953C105.078 359.053 105.13 359.243 105.203 359.521C105.276 359.794 105.349 360.086 105.422 360.396C105.499 360.701 105.552 360.954 105.579 361.154C105.607 360.954 105.654 360.701 105.723 360.396C105.796 360.09 105.866 359.801 105.935 359.527C106.008 359.249 106.06 359.058 106.092 358.953L107.985 353.006H110.125ZM117.146 363H111.39V353.006H117.146V354.742H113.509V356.937H116.893V358.673H113.509V361.25H117.146V363Z"
      fill="white" />
   <path
      d="M54.8317 127.006H57.942C59.2727 127.006 60.2799 127.193 60.9635 127.566C61.6471 127.94 61.9889 128.596 61.9889 129.535C61.9889 129.913 61.9274 130.255 61.8043 130.561C61.6858 130.866 61.5127 131.117 61.2848 131.312C61.0569 131.508 60.7789 131.636 60.4508 131.695V131.764C60.7835 131.832 61.0843 131.951 61.3531 132.119C61.622 132.283 61.8362 132.525 61.9957 132.844C62.1598 133.158 62.2418 133.577 62.2418 134.102C62.2418 134.708 62.0937 135.227 61.7975 135.66C61.5013 136.093 61.0774 136.426 60.526 136.658C59.9791 136.886 59.3274 137 58.5709 137H54.8317V127.006ZM56.9508 130.964H58.1813C58.7965 130.964 59.2226 130.868 59.4596 130.677C59.6966 130.481 59.8151 130.194 59.8151 129.815C59.8151 129.433 59.6738 129.159 59.3912 128.995C59.1132 128.826 58.6712 128.742 58.0651 128.742H56.9508V130.964ZM56.9508 132.646V135.25H58.3317C58.9697 135.25 59.414 135.127 59.6647 134.881C59.9153 134.635 60.0406 134.304 60.0406 133.89C60.0406 133.644 59.986 133.427 59.8766 133.24C59.7672 133.053 59.5826 132.908 59.3229 132.803C59.0677 132.698 58.7145 132.646 58.2633 132.646H56.9508ZM73.3092 131.989C73.3092 132.759 73.2135 133.461 73.0221 134.095C72.8307 134.724 72.539 135.266 72.1471 135.722C71.7597 136.177 71.2675 136.528 70.6705 136.774C70.0735 137.016 69.3671 137.137 68.5514 137.137C67.7356 137.137 67.0293 137.016 66.4323 136.774C65.8352 136.528 65.3408 136.177 64.9489 135.722C64.5615 135.266 64.2721 134.721 64.0807 134.088C63.8893 133.454 63.7936 132.75 63.7936 131.976C63.7936 130.941 63.9622 130.041 64.2994 129.275C64.6412 128.505 65.1653 127.908 65.8717 127.484C66.5781 127.061 67.4759 126.849 68.5651 126.849C69.6497 126.849 70.5406 127.061 71.2379 127.484C71.9397 127.908 72.4593 128.505 72.7965 129.275C73.1383 130.046 73.3092 130.95 73.3092 131.989ZM66.0153 131.989C66.0153 132.687 66.1018 133.288 66.275 133.794C66.4528 134.295 66.7285 134.683 67.1022 134.956C67.4759 135.225 67.9589 135.359 68.5514 135.359C69.153 135.359 69.6406 135.225 70.0143 134.956C70.388 134.683 70.6591 134.295 70.8278 133.794C71.0009 133.288 71.0875 132.687 71.0875 131.989C71.0875 130.941 70.8916 130.116 70.4996 129.515C70.1077 128.913 69.4628 128.612 68.5651 128.612C67.9681 128.612 67.4804 128.749 67.1022 129.022C66.7285 129.291 66.4528 129.679 66.275 130.185C66.1018 130.686 66.0153 131.287 66.0153 131.989ZM79.6256 128.626C79.22 128.626 78.86 128.706 78.5455 128.865C78.2356 129.02 77.9736 129.246 77.7594 129.542C77.5498 129.838 77.3903 130.196 77.2809 130.615C77.1715 131.035 77.1168 131.506 77.1168 132.03C77.1168 132.737 77.2034 133.34 77.3766 133.842C77.5543 134.339 77.8278 134.719 78.1969 134.983C78.566 135.243 79.0423 135.373 79.6256 135.373C80.0312 135.373 80.4368 135.327 80.8424 135.236C81.2526 135.145 81.6969 135.015 82.1754 134.847V136.624C81.7334 136.806 81.2981 136.936 80.8698 137.014C80.4414 137.096 79.9606 137.137 79.4274 137.137C78.3974 137.137 77.5498 136.925 76.8844 136.501C76.2236 136.073 75.7337 135.476 75.4147 134.71C75.0957 133.94 74.9362 133.042 74.9362 132.017C74.9362 131.26 75.0387 130.567 75.2438 129.938C75.4489 129.31 75.7496 128.765 76.1461 128.305C76.5426 127.844 77.0325 127.489 77.6158 127.238C78.1992 126.988 78.8691 126.862 79.6256 126.862C80.1224 126.862 80.6191 126.926 81.1158 127.054C81.6171 127.177 82.0957 127.348 82.5514 127.566L81.8678 129.289C81.4941 129.111 81.1181 128.956 80.7399 128.824C80.3616 128.692 79.9902 128.626 79.6256 128.626ZM90.0641 137H84.3082V127.006H90.0641V128.742H86.4274V130.937H89.8112V132.673H86.4274V135.25H90.0641V137ZM96.0114 137H93.8922V128.77H91.1783V127.006H98.7252V128.77H96.0114V137ZM109.335 131.989C109.335 132.759 109.239 133.461 109.047 134.095C108.856 134.724 108.564 135.266 108.172 135.722C107.785 136.177 107.293 136.528 106.696 136.774C106.099 137.016 105.393 137.137 104.577 137.137C103.761 137.137 103.055 137.016 102.458 136.774C101.861 136.528 101.366 136.177 100.974 135.722C100.587 135.266 100.297 134.721 100.106 134.088C99.9147 133.454 99.819 132.75 99.819 131.976C99.819 130.941 99.9876 130.041 100.325 129.275C100.667 128.505 101.191 127.908 101.897 127.484C102.603 127.061 103.501 126.849 104.59 126.849C105.675 126.849 106.566 127.061 107.263 127.484C107.965 127.908 108.485 128.505 108.822 129.275C109.164 130.046 109.335 130.95 109.335 131.989ZM102.041 131.989C102.041 132.687 102.127 133.288 102.3 133.794C102.478 134.295 102.754 134.683 103.128 134.956C103.501 135.225 103.984 135.359 104.577 135.359C105.178 135.359 105.666 135.225 106.04 134.956C106.413 134.683 106.685 134.295 106.853 133.794C107.026 133.288 107.113 132.687 107.113 131.989C107.113 130.941 106.917 130.116 106.525 129.515C106.133 128.913 105.488 128.612 104.59 128.612C103.993 128.612 103.506 128.749 103.128 129.022C102.754 129.291 102.478 129.679 102.3 130.185C102.127 130.686 102.041 131.287 102.041 131.989ZM117.305 134.225C117.305 134.817 117.162 135.332 116.875 135.77C116.588 136.207 116.168 136.544 115.617 136.781C115.07 137.018 114.405 137.137 113.621 137.137C113.274 137.137 112.935 137.114 112.602 137.068C112.274 137.023 111.957 136.957 111.652 136.87C111.351 136.779 111.064 136.667 110.791 136.535V134.566C111.265 134.776 111.757 134.965 112.267 135.134C112.778 135.302 113.283 135.387 113.785 135.387C114.131 135.387 114.409 135.341 114.619 135.25C114.833 135.159 114.988 135.034 115.084 134.874C115.179 134.715 115.227 134.532 115.227 134.327C115.227 134.076 115.143 133.862 114.974 133.685C114.806 133.507 114.573 133.34 114.277 133.186C113.985 133.031 113.655 132.864 113.286 132.687C113.053 132.577 112.8 132.445 112.527 132.29C112.254 132.131 111.994 131.937 111.748 131.709C111.502 131.481 111.299 131.205 111.139 130.882C110.984 130.554 110.907 130.162 110.907 129.706C110.907 129.109 111.044 128.599 111.317 128.175C111.59 127.751 111.98 127.427 112.486 127.204C112.996 126.976 113.598 126.862 114.291 126.862C114.81 126.862 115.305 126.924 115.774 127.047C116.248 127.165 116.742 127.339 117.257 127.566L116.574 129.214C116.114 129.027 115.701 128.883 115.337 128.783C114.972 128.678 114.601 128.626 114.222 128.626C113.958 128.626 113.732 128.669 113.546 128.756C113.359 128.838 113.217 128.956 113.122 129.111C113.026 129.262 112.978 129.437 112.978 129.638C112.978 129.875 113.047 130.075 113.183 130.239C113.325 130.399 113.534 130.554 113.812 130.704C114.095 130.854 114.446 131.03 114.865 131.23C115.375 131.472 115.811 131.725 116.171 131.989C116.535 132.249 116.815 132.557 117.011 132.912C117.207 133.263 117.305 133.701 117.305 134.225Z"
      fill="white" />
   <path
      d="M229.19 286.006V292.473C229.19 293.161 229.037 293.783 228.732 294.339C228.431 294.89 227.973 295.328 227.358 295.651C226.747 295.975 225.977 296.137 225.047 296.137C223.725 296.137 222.718 295.799 222.025 295.125C221.333 294.451 220.986 293.557 220.986 292.445V286.006H223.099V292.124C223.099 292.949 223.267 293.528 223.605 293.86C223.942 294.193 224.441 294.359 225.102 294.359C225.567 294.359 225.942 294.28 226.23 294.12C226.521 293.961 226.735 293.715 226.872 293.382C227.009 293.049 227.077 292.625 227.077 292.11V286.006H229.19ZM231.637 296V286.006H233.756V296H231.637ZM248.2 290.907C248.2 292.033 247.984 292.974 247.551 293.73C247.122 294.482 246.5 295.05 245.685 295.433C244.869 295.811 243.887 296 242.738 296H239.908V286.006H243.046C244.094 286.006 245.003 286.193 245.774 286.566C246.544 286.936 247.141 287.485 247.565 288.214C247.988 288.938 248.2 289.836 248.2 290.907ZM245.999 290.962C245.999 290.224 245.89 289.618 245.671 289.144C245.457 288.665 245.138 288.312 244.714 288.084C244.295 287.856 243.775 287.742 243.155 287.742H242.027V294.25H242.937C243.971 294.25 244.739 293.974 245.24 293.423C245.746 292.871 245.999 292.051 245.999 290.962ZM256.027 296H250.272V286.006H256.027V287.742H252.391V289.937H255.775V291.673H252.391V294.25H256.027V296ZM264.019 293.225C264.019 293.817 263.875 294.332 263.588 294.77C263.301 295.207 262.882 295.544 262.33 295.781C261.783 296.018 261.118 296.137 260.334 296.137C259.988 296.137 259.648 296.114 259.316 296.068C258.987 296.023 258.671 295.957 258.365 295.87C258.065 295.779 257.777 295.667 257.504 295.535V293.566C257.978 293.776 258.47 293.965 258.981 294.134C259.491 294.302 259.997 294.387 260.498 294.387C260.845 294.387 261.122 294.341 261.332 294.25C261.546 294.159 261.701 294.034 261.797 293.874C261.893 293.715 261.941 293.532 261.941 293.327C261.941 293.076 261.856 292.862 261.688 292.685C261.519 292.507 261.287 292.34 260.99 292.186C260.699 292.031 260.368 291.864 259.999 291.687C259.767 291.577 259.514 291.445 259.24 291.29C258.967 291.131 258.707 290.937 258.461 290.709C258.215 290.481 258.012 290.205 257.853 289.882C257.698 289.554 257.62 289.162 257.62 288.706C257.62 288.109 257.757 287.599 258.03 287.175C258.304 286.751 258.693 286.427 259.199 286.204C259.71 285.976 260.311 285.862 261.004 285.862C261.524 285.862 262.018 285.924 262.487 286.047C262.961 286.165 263.456 286.339 263.971 286.566L263.287 288.214C262.827 288.027 262.414 287.883 262.05 287.783C261.685 287.678 261.314 287.626 260.936 287.626C260.671 287.626 260.446 287.669 260.259 287.756C260.072 287.838 259.931 287.956 259.835 288.111C259.739 288.262 259.692 288.437 259.692 288.638C259.692 288.875 259.76 289.075 259.897 289.239C260.038 289.399 260.247 289.554 260.525 289.704C260.808 289.854 261.159 290.03 261.578 290.23C262.089 290.472 262.524 290.725 262.884 290.989C263.248 291.249 263.529 291.557 263.725 291.912C263.921 292.263 264.019 292.701 264.019 293.225ZM265.83 296V286.006H267.949V296H265.83ZM274.259 290.388H278.224V295.569C277.7 295.743 277.155 295.882 276.59 295.986C276.025 296.087 275.385 296.137 274.669 296.137C273.676 296.137 272.832 295.941 272.14 295.549C271.447 295.157 270.921 294.578 270.561 293.812C270.201 293.047 270.021 292.106 270.021 290.989C270.021 289.941 270.221 289.034 270.622 288.269C271.028 287.503 271.618 286.91 272.393 286.491C273.172 286.072 274.122 285.862 275.243 285.862C275.772 285.862 276.294 285.919 276.809 286.033C277.324 286.147 277.791 286.295 278.21 286.478L277.506 288.173C277.201 288.018 276.852 287.888 276.46 287.783C276.068 287.678 275.658 287.626 275.23 287.626C274.614 287.626 274.079 287.767 273.623 288.05C273.172 288.332 272.821 288.729 272.57 289.239C272.324 289.745 272.201 290.342 272.201 291.03C272.201 291.682 272.29 292.261 272.468 292.767C272.646 293.268 272.926 293.662 273.309 293.949C273.692 294.232 274.191 294.373 274.806 294.373C275.107 294.373 275.359 294.359 275.565 294.332C275.774 294.3 275.97 294.268 276.152 294.236V292.151H274.259V290.388ZM289.476 296H286.782L282.435 288.439H282.373C282.391 288.754 282.407 289.071 282.421 289.39C282.435 289.709 282.448 290.028 282.462 290.347C282.476 290.661 282.489 290.978 282.503 291.297V296H280.609V286.006H283.282L287.623 293.491H287.671C287.662 293.181 287.65 292.874 287.637 292.568C287.623 292.263 287.609 291.958 287.596 291.652C287.587 291.347 287.578 291.042 287.568 290.736V286.006H289.476V296Z"
      fill="white" />
   <path
      d="M32.5404 247H30.4213V238.77H27.7074V237.006H35.2543V238.77H32.5404V247ZM36.7924 247V237.006H38.9115V247H36.7924ZM44.6195 237.006C45.9092 237.006 46.8503 237.284 47.4428 237.84C48.0352 238.391 48.3314 239.152 48.3314 240.123C48.3314 240.561 48.2654 240.98 48.1332 241.381C48.001 241.777 47.7846 242.131 47.4838 242.44C47.1876 242.75 46.7911 242.996 46.2943 243.179C45.7976 243.356 45.1846 243.445 44.4555 243.445H43.5463V247H41.4271V237.006H44.6195ZM44.5101 238.742H43.5463V241.709H44.2435C44.64 241.709 44.9841 241.657 45.2758 241.552C45.5674 241.447 45.793 241.283 45.9525 241.06C46.112 240.836 46.1918 240.549 46.1918 240.198C46.1918 239.706 46.0551 239.341 45.7816 239.104C45.5082 238.863 45.0844 238.742 44.5101 238.742ZM59.2894 241.989C59.2894 242.759 59.1937 243.461 59.0023 244.095C58.8109 244.724 58.5193 245.266 58.1273 245.722C57.74 246.177 57.2478 246.528 56.6508 246.774C56.0538 247.016 55.3474 247.137 54.5316 247.137C53.7159 247.137 53.0095 247.016 52.4125 246.774C51.8155 246.528 51.321 246.177 50.9291 245.722C50.5417 245.266 50.2523 244.721 50.0609 244.088C49.8695 243.454 49.7738 242.75 49.7738 241.976C49.7738 240.941 49.9424 240.041 50.2797 239.275C50.6215 238.505 51.1456 237.908 51.8519 237.484C52.5583 237.061 53.4561 236.849 54.5453 236.849C55.6299 236.849 56.5209 237.061 57.2182 237.484C57.92 237.908 58.4395 238.505 58.7767 239.275C59.1185 240.046 59.2894 240.95 59.2894 241.989ZM51.9955 241.989C51.9955 242.687 52.0821 243.288 52.2553 243.794C52.433 244.295 52.7087 244.683 53.0824 244.956C53.4561 245.225 53.9392 245.359 54.5316 245.359C55.1332 245.359 55.6208 245.225 55.9945 244.956C56.3682 244.683 56.6394 244.295 56.808 243.794C56.9812 243.288 57.0678 242.687 57.0678 241.989C57.0678 240.941 56.8718 240.116 56.4799 239.515C56.0879 238.913 55.4431 238.612 54.5453 238.612C53.9483 238.612 53.4607 238.749 53.0824 239.022C52.7087 239.291 52.433 239.679 52.2553 240.185C52.0821 240.686 51.9955 241.287 51.9955 241.989ZM65.1547 241.388H69.1195V246.569C68.5954 246.743 68.0508 246.882 67.4857 246.986C66.9206 247.087 66.2803 247.137 65.5648 247.137C64.5713 247.137 63.7282 246.941 63.0355 246.549C62.3428 246.157 61.8165 245.578 61.4564 244.812C61.0964 244.047 60.9164 243.106 60.9164 241.989C60.9164 240.941 61.1169 240.034 61.518 239.269C61.9236 238.503 62.5137 237.91 63.2885 237.491C64.0678 237.072 65.018 236.862 66.1391 236.862C66.6677 236.862 67.1895 236.919 67.7045 237.033C68.2195 237.147 68.6866 237.295 69.1059 237.478L68.4017 239.173C68.0964 239.018 67.7478 238.888 67.3559 238.783C66.9639 238.678 66.5538 238.626 66.1254 238.626C65.5101 238.626 64.9747 238.767 64.5189 239.05C64.0678 239.332 63.7169 239.729 63.4662 240.239C63.2201 240.745 63.0971 241.342 63.0971 242.03C63.0971 242.682 63.1859 243.261 63.3637 243.767C63.5414 244.268 63.8217 244.662 64.2045 244.949C64.5873 245.232 65.0863 245.373 65.7016 245.373C66.0023 245.373 66.2553 245.359 66.4603 245.332C66.67 245.3 66.8659 245.268 67.0482 245.236V243.151H65.1547V241.388ZM74.4174 237.006C75.3243 237.006 76.0717 237.115 76.6596 237.334C77.252 237.553 77.6918 237.883 77.9789 238.325C78.266 238.767 78.4096 239.326 78.4096 240C78.4096 240.456 78.323 240.854 78.1498 241.196C77.9766 241.538 77.7488 241.827 77.4662 242.064C77.1836 242.301 76.8783 242.495 76.5502 242.646L79.4896 247H77.1381L74.7523 243.165H73.6244V247H71.5053V237.006H74.4174ZM74.267 238.742H73.6244V241.442H74.308C75.0098 241.442 75.5111 241.326 75.8119 241.094C76.1172 240.857 76.2699 240.51 76.2699 240.055C76.2699 239.581 76.1059 239.243 75.7777 239.043C75.4542 238.842 74.9506 238.742 74.267 238.742ZM86.8656 247L86.141 244.621H82.4975L81.7728 247H79.4896L83.017 236.965H85.6078L89.1488 247H86.8656ZM85.6351 242.844L84.9105 240.52C84.865 240.365 84.8034 240.166 84.726 239.925C84.6531 239.679 84.5779 239.43 84.5004 239.18C84.4275 238.924 84.3682 238.703 84.3226 238.517C84.2771 238.703 84.2133 238.936 84.1312 239.214C84.0538 239.487 83.9786 239.747 83.9057 239.993C83.8327 240.239 83.7803 240.415 83.7484 240.52L83.0307 242.844H85.6351ZM92.4984 247H90.4135V237.006H96.142V238.742H92.4984V241.319H95.8891V243.049H92.4984V247ZM98.0971 247V237.006H100.216V247H98.0971ZM102.11 233.923V234.066C101.978 234.194 101.804 234.351 101.59 234.538C101.376 234.725 101.146 234.921 100.9 235.126C100.654 235.326 100.412 235.52 100.175 235.707C99.9382 235.889 99.7309 236.042 99.5531 236.165H98.1654V235.98C98.3158 235.807 98.489 235.602 98.685 235.365C98.8855 235.124 99.0837 234.875 99.2797 234.62C99.4756 234.365 99.6397 234.132 99.7719 233.923H102.11ZM108.85 247L108.125 244.621H104.482L103.757 247H101.474L105.001 236.965H107.592L111.133 247H108.85ZM107.62 242.844L106.895 240.52C106.849 240.365 106.788 240.166 106.71 239.925C106.637 239.679 106.562 239.43 106.485 239.18C106.412 238.924 106.353 238.703 106.307 238.517C106.261 238.703 106.198 238.936 106.116 239.214C106.038 239.487 105.963 239.747 105.89 239.993C105.817 240.239 105.765 240.415 105.733 240.52L105.015 242.844H107.62ZM35.5004 260.121L37.5853 256.006H39.8685L36.5531 262.11V266H34.4476V262.179L31.1322 256.006H33.4291L35.5004 260.121ZM49.0082 257.626C48.6026 257.626 48.2426 257.706 47.9281 257.865C47.6182 258.02 47.3562 258.246 47.142 258.542C46.9323 258.838 46.7728 259.196 46.6635 259.615C46.5541 260.035 46.4994 260.506 46.4994 261.03C46.4994 261.737 46.586 262.34 46.7592 262.842C46.9369 263.339 47.2103 263.719 47.5795 263.983C47.9486 264.243 48.4249 264.373 49.0082 264.373C49.4138 264.373 49.8194 264.327 50.225 264.236C50.6351 264.145 51.0795 264.015 51.558 263.847V265.624C51.1159 265.806 50.6807 265.936 50.2523 266.014C49.8239 266.096 49.3432 266.137 48.81 266.137C47.78 266.137 46.9323 265.925 46.267 265.501C45.6062 265.073 45.1163 264.476 44.7973 263.71C44.4782 262.94 44.3187 262.042 44.3187 261.017C44.3187 260.26 44.4213 259.567 44.6264 258.938C44.8314 258.31 45.1322 257.765 45.5287 257.305C45.9252 256.844 46.4151 256.489 46.9984 256.238C47.5818 255.988 48.2517 255.862 49.0082 255.862C49.5049 255.862 50.0017 255.926 50.4984 256.054C50.9997 256.177 51.4782 256.348 51.934 256.566L51.2504 258.289C50.8767 258.111 50.5007 257.956 50.1225 257.824C49.7442 257.692 49.3728 257.626 49.0082 257.626ZM62.7621 260.989C62.7621 261.759 62.6664 262.461 62.475 263.095C62.2836 263.724 61.9919 264.266 61.6 264.722C61.2126 265.177 60.7204 265.528 60.1234 265.774C59.5264 266.016 58.82 266.137 58.0043 266.137C57.1885 266.137 56.4822 266.016 55.8851 265.774C55.2881 265.528 54.7937 265.177 54.4017 264.722C54.0144 264.266 53.725 263.721 53.5336 263.088C53.3422 262.454 53.2465 261.75 53.2465 260.976C53.2465 259.941 53.4151 259.041 53.7523 258.275C54.0941 257.505 54.6182 256.908 55.3246 256.484C56.031 256.061 56.9288 255.849 58.018 255.849C59.1026 255.849 59.9935 256.061 60.6908 256.484C61.3926 256.908 61.9122 257.505 62.2494 258.275C62.5912 259.046 62.7621 259.95 62.7621 260.989ZM55.4682 260.989C55.4682 261.687 55.5547 262.288 55.7279 262.794C55.9057 263.295 56.1814 263.683 56.5551 263.956C56.9288 264.225 57.4118 264.359 58.0043 264.359C58.6059 264.359 59.0935 264.225 59.4672 263.956C59.8409 263.683 60.112 263.295 60.2807 262.794C60.4538 262.288 60.5404 261.687 60.5404 260.989C60.5404 259.941 60.3445 259.116 59.9525 258.515C59.5606 257.913 58.9157 257.612 58.018 257.612C57.421 257.612 56.9333 257.749 56.5551 258.022C56.1814 258.291 55.9057 258.679 55.7279 259.185C55.5547 259.686 55.4682 260.287 55.4682 260.989ZM64.8334 266V256.006H66.9525V264.25H71.0062V266H64.8334ZM81.8207 260.989C81.8207 261.759 81.725 262.461 81.5336 263.095C81.3422 263.724 81.0505 264.266 80.6586 264.722C80.2712 265.177 79.779 265.528 79.182 265.774C78.585 266.016 77.8786 266.137 77.0629 266.137C76.2471 266.137 75.5407 266.016 74.9437 265.774C74.3467 265.528 73.8523 265.177 73.4603 264.722C73.073 264.266 72.7836 263.721 72.5922 263.088C72.4008 262.454 72.3051 261.75 72.3051 260.976C72.3051 259.941 72.4737 259.041 72.8109 258.275C73.1527 257.505 73.6768 256.908 74.3832 256.484C75.0896 256.061 75.9874 255.849 77.0766 255.849C78.1612 255.849 79.0521 256.061 79.7494 256.484C80.4512 256.908 80.9708 257.505 81.308 258.275C81.6498 259.046 81.8207 259.95 81.8207 260.989ZM74.5267 260.989C74.5267 261.687 74.6133 262.288 74.7865 262.794C74.9642 263.295 75.24 263.683 75.6137 263.956C75.9874 264.225 76.4704 264.359 77.0629 264.359C77.6644 264.359 78.1521 264.225 78.5258 263.956C78.8995 263.683 79.1706 263.295 79.3392 262.794C79.5124 262.288 79.599 261.687 79.599 260.989C79.599 259.941 79.4031 259.116 79.0111 258.515C78.6192 257.913 77.9743 257.612 77.0766 257.612C76.4795 257.612 75.9919 257.749 75.6137 258.022C75.24 258.291 74.9642 258.679 74.7865 259.185C74.6133 259.686 74.5267 260.287 74.5267 260.989ZM86.8041 256.006C87.711 256.006 88.4584 256.115 89.0463 256.334C89.6387 256.553 90.0785 256.883 90.3656 257.325C90.6527 257.767 90.7963 258.326 90.7963 259C90.7963 259.456 90.7097 259.854 90.5365 260.196C90.3633 260.538 90.1355 260.827 89.8529 261.064C89.5704 261.301 89.265 261.495 88.9369 261.646L91.8764 266H89.5248L87.1391 262.165H86.0111V266H83.892V256.006H86.8041ZM86.6537 257.742H86.0111V260.442H86.6947C87.3965 260.442 87.8978 260.326 88.1986 260.094C88.504 259.857 88.6566 259.51 88.6566 259.055C88.6566 258.581 88.4926 258.243 88.1644 258.043C87.8409 257.842 87.3373 257.742 86.6537 257.742ZM98.89 266H93.1342V256.006H98.89V257.742H95.2533V259.937H98.6371V261.673H95.2533V264.25H98.89V266ZM106.881 263.225C106.881 263.817 106.738 264.332 106.451 264.77C106.163 265.207 105.744 265.544 105.193 265.781C104.646 266.018 103.981 266.137 103.197 266.137C102.85 266.137 102.511 266.114 102.178 266.068C101.85 266.023 101.533 265.957 101.228 265.87C100.927 265.779 100.64 265.667 100.367 265.535V263.566C100.841 263.776 101.333 263.965 101.843 264.134C102.354 264.302 102.859 264.387 103.361 264.387C103.707 264.387 103.985 264.341 104.195 264.25C104.409 264.159 104.564 264.034 104.66 263.874C104.755 263.715 104.803 263.532 104.803 263.327C104.803 263.076 104.719 262.862 104.55 262.685C104.382 262.507 104.149 262.34 103.853 262.186C103.561 262.031 103.231 261.864 102.862 261.687C102.629 261.577 102.376 261.445 102.103 261.29C101.829 261.131 101.57 260.937 101.324 260.709C101.078 260.481 100.875 260.205 100.715 259.882C100.56 259.554 100.483 259.162 100.483 258.706C100.483 258.109 100.62 257.599 100.893 257.175C101.166 256.751 101.556 256.427 102.062 256.204C102.572 255.976 103.174 255.862 103.867 255.862C104.386 255.862 104.881 255.924 105.35 256.047C105.824 256.165 106.318 256.339 106.833 256.566L106.15 258.214C105.69 258.027 105.277 257.883 104.912 257.783C104.548 257.678 104.176 257.626 103.798 257.626C103.534 257.626 103.308 257.669 103.121 257.756C102.935 257.838 102.793 257.956 102.698 258.111C102.602 258.262 102.554 258.437 102.554 258.638C102.554 258.875 102.622 259.075 102.759 259.239C102.9 259.399 103.11 259.554 103.388 259.704C103.671 259.854 104.022 260.03 104.441 260.23C104.951 260.472 105.386 260.725 105.746 260.989C106.111 261.249 106.391 261.557 106.587 261.912C106.783 262.263 106.881 262.701 106.881 263.225Z"
      fill="white" />
   <path
      d="M231.922 190.006L229.379 200H226.966L225.612 194.75C225.585 194.65 225.549 194.497 225.503 194.292C225.457 194.087 225.41 193.864 225.359 193.622C225.309 193.376 225.264 193.146 225.223 192.932C225.186 192.713 225.161 192.54 225.147 192.412C225.134 192.54 225.106 192.711 225.065 192.925C225.029 193.139 224.986 193.367 224.936 193.608C224.89 193.85 224.844 194.076 224.799 194.285C224.753 194.495 224.717 194.654 224.689 194.764L223.343 200H220.937L218.387 190.006H220.472L221.75 195.461C221.786 195.625 221.827 195.821 221.873 196.049C221.923 196.277 221.971 196.516 222.017 196.767C222.067 197.013 222.11 197.252 222.146 197.484C222.188 197.712 222.217 197.91 222.235 198.079C222.258 197.906 222.288 197.705 222.324 197.478C222.361 197.245 222.399 197.01 222.44 196.773C222.486 196.532 222.532 196.309 222.577 196.104C222.623 195.898 222.664 195.732 222.7 195.604L224.156 190.006H226.159L227.615 195.604C227.647 195.728 227.684 195.894 227.725 196.104C227.77 196.309 227.816 196.532 227.861 196.773C227.907 197.015 227.948 197.252 227.984 197.484C228.025 197.712 228.055 197.91 228.073 198.079C228.105 197.851 228.148 197.576 228.203 197.252C228.262 196.924 228.324 196.598 228.388 196.274C228.456 195.951 228.515 195.68 228.565 195.461L229.837 190.006H231.922ZM233.18 200V190.006H235.299V200H233.18ZM240.727 190.006C241.633 190.006 242.381 190.115 242.969 190.334C243.561 190.553 244.001 190.883 244.288 191.325C244.575 191.767 244.719 192.326 244.719 193C244.719 193.456 244.632 193.854 244.459 194.196C244.286 194.538 244.058 194.827 243.775 195.064C243.493 195.301 243.188 195.495 242.859 195.646L245.799 200H243.447L241.062 196.165H239.934V200H237.814V190.006H240.727ZM240.576 191.742H239.934V194.442H240.617C241.319 194.442 241.82 194.326 242.121 194.094C242.426 193.857 242.579 193.51 242.579 193.055C242.579 192.581 242.415 192.243 242.087 192.043C241.763 191.842 241.26 191.742 240.576 191.742ZM252.812 200H247.057V190.006H252.812V191.742H249.176V193.937H252.56V195.673H249.176V198.25H252.812V200ZM256.989 200H254.904V190.006H260.633V191.742H256.989V194.319H260.38V196.049H256.989V200ZM265.5 190.006C266.407 190.006 267.154 190.115 267.742 190.334C268.335 190.553 268.774 190.883 269.062 191.325C269.349 191.767 269.492 192.326 269.492 193C269.492 193.456 269.406 193.854 269.232 194.196C269.059 194.538 268.831 194.827 268.549 195.064C268.266 195.301 267.961 195.495 267.633 195.646L270.572 200H268.221L265.835 196.165H264.707V200H262.588V190.006H265.5ZM265.35 191.742H264.707V194.442H265.391C266.092 194.442 266.594 194.326 266.895 194.094C267.2 193.857 267.353 193.51 267.353 193.055C267.353 192.581 267.188 192.243 266.86 192.043C266.537 191.842 266.033 191.742 265.35 191.742ZM277.948 200L277.224 197.621H273.58L272.855 200H270.572L274.1 189.965H276.69L280.231 200H277.948ZM276.718 195.844L275.993 193.52C275.948 193.365 275.886 193.166 275.809 192.925C275.736 192.679 275.66 192.43 275.583 192.18C275.51 191.924 275.451 191.703 275.405 191.517C275.36 191.703 275.296 191.936 275.214 192.214C275.136 192.487 275.061 192.747 274.988 192.993C274.915 193.239 274.863 193.415 274.831 193.52L274.113 195.844H276.718ZM285.728 200L283.321 192.159H283.26C283.269 192.346 283.283 192.629 283.301 193.007C283.324 193.381 283.344 193.779 283.362 194.203C283.381 194.627 283.39 195.01 283.39 195.352V200H281.496V190.006H284.381L286.746 197.648H286.787L289.296 190.006H292.181V200H290.205V195.27C290.205 194.955 290.21 194.593 290.219 194.183C290.232 193.772 290.248 193.383 290.267 193.014C290.285 192.64 290.299 192.36 290.308 192.173H290.246L287.669 200H285.728ZM294.703 200V190.006H296.822V200H294.703ZM308.204 200H305.511L301.163 192.439H301.102C301.12 192.754 301.136 193.071 301.149 193.39C301.163 193.709 301.177 194.028 301.19 194.347C301.204 194.661 301.218 194.978 301.231 195.297V200H299.338V190.006H302.011L306.352 197.491H306.399C306.39 197.181 306.379 196.874 306.365 196.568C306.352 196.263 306.338 195.958 306.324 195.652C306.315 195.347 306.306 195.042 306.297 194.736V190.006H308.204V200ZM314.521 194.388H318.485V199.569C317.961 199.743 317.417 199.882 316.852 199.986C316.286 200.087 315.646 200.137 314.931 200.137C313.937 200.137 313.094 199.941 312.401 199.549C311.709 199.157 311.182 198.578 310.822 197.812C310.462 197.047 310.282 196.106 310.282 194.989C310.282 193.941 310.483 193.034 310.884 192.269C311.289 191.503 311.88 190.91 312.654 190.491C313.434 190.072 314.384 189.862 315.505 189.862C316.034 189.862 316.555 189.919 317.07 190.033C317.585 190.147 318.052 190.295 318.472 190.478L317.768 192.173C317.462 192.018 317.114 191.888 316.722 191.783C316.33 191.678 315.92 191.626 315.491 191.626C314.876 191.626 314.34 191.767 313.885 192.05C313.434 192.332 313.083 192.729 312.832 193.239C312.586 193.745 312.463 194.342 312.463 195.03C312.463 195.682 312.552 196.261 312.729 196.767C312.907 197.268 313.188 197.662 313.57 197.949C313.953 198.232 314.452 198.373 315.067 198.373C315.368 198.373 315.621 198.359 315.826 198.332C316.036 198.3 316.232 198.268 316.414 198.236V196.151H314.521V194.388Z"
      fill="white" />
   <defs>
      <filter id="filter0_d_16_1130" x="197" y="64" width="147.7" height="57.7"
         filterUnits="userSpaceOnUse" color-interpolation-filters="sRGB">
         <feFlood flood-opacity="0" result="BackgroundImageFix" />
         <feColorMatrix in="SourceAlpha" type="matrix"
            values="0 0 0 0 0 0 0 0 0 0 0 0 0 0 0 0 0 0 127 0" result="hardAlpha" />
         <feOffset dx="6" dy="6" />
         <feGaussianBlur stdDeviation="2.85" />
         <feComposite in2="hardAlpha" operator="out" />
         <feColorMatrix type="matrix" values="0 0 0 0 0 0 0 0 0 0 0 0 0 0 0 0 0 0 0.25 0" />
         <feBlend mode="normal" in2="BackgroundImageFix" result="effect1_dropShadow_16_1130" />
         <feBlend mode="normal" in="SourceGraphic" in2="effect1_dropShadow_16_1130" result="shape" />
      </filter>
      <filter id="filter1_d_16_1130" x="0" y="228" width="147.7" height="57.7"
         filterUnits="userSpaceOnUse" color-interpolation-filters="sRGB">
         <feFlood flood-opacity="0" result="BackgroundImageFix" />
         <feColorMatrix in="SourceAlpha" type="matrix"
            values="0 0 0 0 0 0 0 0 0 0 0 0 0 0 0 0 0 0 127 0" result="hardAlpha" />
         <feOffset dx="6" dy="6" />
         <feGaussianBlur stdDeviation="2.85" />
         <feComposite in2="hardAlpha" operator="out" />
         <feColorMatrix type="matrix" values="0 0 0 0 0 0 0 0 0 0 0 0 0 0 0 0 0 0 0.25 0" />
         <feBlend mode="normal" in2="BackgroundImageFix" result="effect1_dropShadow_16_1130" />
         <feBlend mode="normal" in="SourceGraphic" in2="effect1_dropShadow_16_1130" result="shape" />
      </filter>
      <filter id="filter2_d_16_1130" x="111" y="0" width="132.7" height="47.7"
         filterUnits="userSpaceOnUse" color-interpolation-filters="sRGB">
         <feFlood flood-opacity="0" result="BackgroundImageFix" />
         <feColorMatrix in="SourceAlpha" type="matrix"
            values="0 0 0 0 0 0 0 0 0 0 0 0 0 0 0 0 0 0 127 0" result="hardAlpha" />
         <feOffset dx="6" dy="6" />
         <feGaussianBlur stdDeviation="2.85" />
         <feComposite in2="hardAlpha" operator="out" />
         <feColorMatrix type="matrix" values="0 0 0 0 0 0 0 0 0 0 0 0 0 0 0 0 0 0 0.25 0" />
         <feBlend mode="normal" in2="BackgroundImageFix" result="effect1_dropShadow_16_1130" />
         <feBlend mode="normal" in="SourceGraphic" in2="effect1_dropShadow_16_1130" result="shape" />
      </filter>
      <filter id="filter3_d_16_1130" x="75" y="410" width="204.7" height="47.7"
         filterUnits="userSpaceOnUse" color-interpolation-filters="sRGB">
         <feFlood flood-opacity="0" result="BackgroundImageFix" />
         <feColorMatrix in="SourceAlpha" type="matrix"
            values="0 0 0 0 0 0 0 0 0 0 0 0 0 0 0 0 0 0 127 0" result="hardAlpha" />
         <feOffset dx="6" dy="6" />
         <feGaussianBlur stdDeviation="2.85" />
         <feComposite in2="hardAlpha" operator="out" />
         <feColorMatrix type="matrix" values="0 0 0 0 0 0 0 0 0 0 0 0 0 0 0 0 0 0 0.25 0" />
         <feBlend mode="normal" in2="BackgroundImageFix" result="effect1_dropShadow_16_1130" />
         <feBlend mode="normal" in="SourceGraphic" in2="effect1_dropShadow_16_1130" result="shape" />
      </filter>
      <filter id="filter4_d_16_1130" x="46" y="531" width="262.7" height="47.7"
         filterUnits="userSpaceOnUse" color-interpolation-filters="sRGB">
         <feFlood flood-opacity="0" result="BackgroundImageFix" />
         <feColorMatrix in="SourceAlpha" type="matrix"
            values="0 0 0 0 0 0 0 0 0 0 0 0 0 0 0 0 0 0 127 0" result="hardAlpha" />
         <feOffset dx="6" dy="6" />
         <feGaussianBlur stdDeviation="2.85" />
         <feComposite in2="hardAlpha" operator="out" />
         <feColorMatrix type="matrix" values="0 0 0 0 0 0 0 0 0 0 0 0 0 0 0 0 0 0 0.25 0" />
         <feBlend mode="normal" in2="BackgroundImageFix" result="effect1_dropShadow_16_1130" />
         <feBlend mode="normal" in="SourceGraphic" in2="effect1_dropShadow_16_1130" result="shape" />
      </filter>
      <filter id="filter5_d_16_1130" x="20" y="343" width="122.7" height="41.7"
         filterUnits="userSpaceOnUse" color-interpolation-filters="sRGB">
         <feFlood flood-opacity="0" result="BackgroundImageFix" />
         <feColorMatrix in="SourceAlpha" type="matrix"
            values="0 0 0 0 0 0 0 0 0 0 0 0 0 0 0 0 0 0 127 0" result="hardAlpha" />
         <feOffset dx="6" dy="6" />
         <feGaussianBlur stdDeviation="2.85" />
         <feComposite in2="hardAlpha" operator="out" />
         <feColorMatrix type="matrix" values="0 0 0 0 0 0 0 0 0 0 0 0 0 0 0 0 0 0 0.25 0" />
         <feBlend mode="normal" in2="BackgroundImageFix" result="effect1_dropShadow_16_1130" />
         <feBlend mode="normal" in="SourceGraphic" in2="effect1_dropShadow_16_1130" result="shape" />
      </filter>
      <filter id="filter6_d_16_1130" x="33" y="118" width="115.7" height="41.7"
         filterUnits="userSpaceOnUse" color-interpolation-filters="sRGB">
         <feFlood flood-opacity="0" result="BackgroundImageFix" />
         <feColorMatrix in="SourceAlpha" type="matrix"
            values="0 0 0 0 0 0 0 0 0 0 0 0 0 0 0 0 0 0 127 0" result="hardAlpha" />
         <feOffset dx="6" dy="6" />
         <feGaussianBlur stdDeviation="2.85" />
         <feComposite in2="hardAlpha" operator="out" />
         <feColorMatrix type="matrix" values="0 0 0 0 0 0 0 0 0 0 0 0 0 0 0 0 0 0 0.25 0" />
         <feBlend mode="normal" in2="BackgroundImageFix" result="effect1_dropShadow_16_1130" />
         <feBlend mode="normal" in="SourceGraphic" in2="effect1_dropShadow_16_1130" result="shape" />
      </filter>
      <filter id="filter7_d_16_1130" x="206" y="180" width="135.7" height="41.7"
         filterUnits="userSpaceOnUse" color-interpolation-filters="sRGB">
         <feFlood flood-opacity="0" result="BackgroundImageFix" />
         <feColorMatrix in="SourceAlpha" type="matrix"
            values="0 0 0 0 0 0 0 0 0 0 0 0 0 0 0 0 0 0 127 0" result="hardAlpha" />
         <feOffset dx="6" dy="6" />
         <feGaussianBlur stdDeviation="2.85" />
         <feComposite in2="hardAlpha" operator="out" />
         <feColorMatrix type="matrix" values="0 0 0 0 0 0 0 0 0 0 0 0 0 0 0 0 0 0 0.25 0" />
         <feBlend mode="normal" in2="BackgroundImageFix" result="effect1_dropShadow_16_1130" />
         <feBlend mode="normal" in="SourceGraphic" in2="effect1_dropShadow_16_1130" result="shape" />
      </filter>
      <filter id="filter8_d_16_1130" x="203" y="276" width="115.7" height="41.7"
         filterUnits="userSpaceOnUse" color-interpolation-filters="sRGB">
         <feFlood flood-opacity="0" result="BackgroundImageFix" />
         <feColorMatrix in="SourceAlpha" type="matrix"
            values="0 0 0 0 0 0 0 0 0 0 0 0 0 0 0 0 0 0 127 0" result="hardAlpha" />
         <feOffset dx="6" dy="6" />
         <feGaussianBlur stdDeviation="2.85" />
         <feComposite in2="hardAlpha" operator="out" />
         <feColorMatrix type="matrix" values="0 0 0 0 0 0 0 0 0 0 0 0 0 0 0 0 0 0 0.25 0" />
         <feBlend mode="normal" in2="BackgroundImageFix" result="effect1_dropShadow_16_1130" />
         <feBlend mode="normal" in="SourceGraphic" in2="effect1_dropShadow_16_1130" result="shape" />
      </filter>
      <filter id="filter9_d_16_1130" x="89" y="471" width="171.7" height="41.7"
         filterUnits="userSpaceOnUse" color-interpolation-filters="sRGB">
         <feFlood flood-opacity="0" result="BackgroundImageFix" />
         <feColorMatrix in="SourceAlpha" type="matrix"
            values="0 0 0 0 0 0 0 0 0 0 0 0 0 0 0 0 0 0 127 0" result="hardAlpha" />
         <feOffset dx="6" dy="6" />
         <feGaussianBlur stdDeviation="2.85" />
         <feComposite in2="hardAlpha" operator="out" />
         <feColorMatrix type="matrix" values="0 0 0 0 0 0 0 0 0 0 0 0 0 0 0 0 0 0 0.25 0" />
         <feBlend mode="normal" in2="BackgroundImageFix" result="effect1_dropShadow_16_1130" />
         <feBlend mode="normal" in="SourceGraphic" in2="effect1_dropShadow_16_1130" result="shape" />
      </filter>
      <linearGradient id="paint0_linear_16_1130" x1="197" y1="87.4182" x2="328.644" y2="86.8124"
         gradientUnits="userSpaceOnUse">
         <stop stop-color="white" stop-opacity="0.2" />
         <stop offset="0.471" stop-color="white" stop-opacity="0.4" />
         <stop offset="1" stop-color="white" stop-opacity="0.2" />
      </linearGradient>
      <linearGradient id="paint1_linear_16_1130" x1="197" y1="87" x2="333" y2="87"
         gradientUnits="userSpaceOnUse">
         <stop stop-color="#E2E2E2" />
         <stop offset="0.535" stop-color="#003566" />
         <stop offset="1" stop-color="white" />
      </linearGradient>
      <linearGradient id="paint2_linear_16_1130" x1="2.43924e-07" y1="251.418" x2="131.644"
         y2="250.812" gradientUnits="userSpaceOnUse">
         <stop stop-color="white" stop-opacity="0.2" />
         <stop offset="0.471" stop-color="white" stop-opacity="0.4" />
         <stop offset="1" stop-color="white" stop-opacity="0.2" />
      </linearGradient>
      <linearGradient id="paint3_linear_16_1130" x1="0" y1="251" x2="136" y2="251"
         gradientUnits="userSpaceOnUse">
         <stop stop-color="#E2E2E2" />
         <stop offset="0.535" stop-color="#003566" />
         <stop offset="1" stop-color="white" />
      </linearGradient>
      <linearGradient id="paint4_linear_16_1130" x1="228.493" y1="87.4215" x2="188.967" y2="22.8135"
         gradientUnits="userSpaceOnUse">
         <stop stop-color="white" />
         <stop offset="1" stop-color="#003566" />
      </linearGradient>
      <linearGradient id="paint5_linear_16_1130" x1="180.942" y1="240.337" x2="156.498" y2="81.2263"
         gradientUnits="userSpaceOnUse">
         <stop stop-color="white" />
         <stop offset="1" stop-color="#003566" />
      </linearGradient>
      <linearGradient id="paint6_linear_16_1130" x1="168.602" y1="328.627" x2="174.276" y2="329.021"
         gradientUnits="userSpaceOnUse">
         <stop stop-color="white" />
         <stop offset="1" stop-color="#003566" />
      </linearGradient>
      <linearGradient id="paint7_linear_16_1130" x1="168.602" y1="435.394" x2="174.171" y2="436.253"
         gradientUnits="userSpaceOnUse">
         <stop stop-color="white" />
         <stop offset="1" stop-color="#003566" />
      </linearGradient>
      <linearGradient id="paint8_linear_16_1130" x1="168.602" y1="493.394" x2="174.171" y2="494.253"
         gradientUnits="userSpaceOnUse">
         <stop stop-color="white" />
         <stop offset="1" stop-color="#003566" />
      </linearGradient>
      <linearGradient id="paint9_linear_16_1130" x1="107.134" y1="270.076" x2="164.327" y2="184.267"
         gradientUnits="userSpaceOnUse">
         <stop stop-color="white" />
         <stop offset="1" stop-color="#003566" />
      </linearGradient>
      <linearGradient id="paint10_linear_16_1130" x1="189.465" y1="318.183" x2="233.16" y2="237.183"
         gradientUnits="userSpaceOnUse">
         <stop stop-color="white" />
         <stop offset="1" stop-color="#003566" />
      </linearGradient>
      <linearGradient id="paint11_linear_16_1130" x1="149.096" y1="378.192" x2="176.552" y2="294.09"
         gradientUnits="userSpaceOnUse">
         <stop stop-color="white" />
         <stop offset="1" stop-color="#003566" />
      </linearGradient>
      <linearGradient id="paint12_linear_16_1130" x1="111" y1="18.3273" x2="228.124" y2="17.7145"
         gradientUnits="userSpaceOnUse">
         <stop stop-color="white" stop-opacity="0.2" />
         <stop offset="0.471" stop-color="white" stop-opacity="0.4" />
         <stop offset="1" stop-color="white" stop-opacity="0.2" />
      </linearGradient>
      <linearGradient id="paint13_linear_16_1130" x1="111" y1="18" x2="232" y2="18"
         gradientUnits="userSpaceOnUse">
         <stop stop-color="#E2E2E2" />
         <stop offset="0.535" stop-color="#003566" />
         <stop offset="1" stop-color="white" />
      </linearGradient>
      <linearGradient id="paint14_linear_16_1130" x1="75" y1="428.327" x2="261.809" y2="426.768"
         gradientUnits="userSpaceOnUse">
         <stop stop-color="white" stop-opacity="0.2" />
         <stop offset="0.471" stop-color="white" stop-opacity="0.4" />
         <stop offset="1" stop-color="white" stop-opacity="0.2" />
      </linearGradient>
      <linearGradient id="paint15_linear_16_1130" x1="75" y1="428" x2="268" y2="428"
         gradientUnits="userSpaceOnUse">
         <stop stop-color="#E2E2E2" />
         <stop offset="0.535" stop-color="#003566" />
         <stop offset="1" stop-color="white" />
      </linearGradient>
      <linearGradient id="paint16_linear_16_1130" x1="46" y1="549.327" x2="288.937" y2="546.691"
         gradientUnits="userSpaceOnUse">
         <stop stop-color="white" stop-opacity="0.2" />
         <stop offset="0.471" stop-color="white" stop-opacity="0.4" />
         <stop offset="1" stop-color="white" stop-opacity="0.2" />
      </linearGradient>
      <linearGradient id="paint17_linear_16_1130" x1="46" y1="549" x2="297" y2="549"
         gradientUnits="userSpaceOnUse">
         <stop stop-color="#E2E2E2" />
         <stop offset="0.535" stop-color="#003566" />
         <stop offset="1" stop-color="white" />
      </linearGradient>
      <linearGradient id="paint18_linear_16_1130" x1="20" y1="358.273" x2="127.443" y2="357.654"
         gradientUnits="userSpaceOnUse">
         <stop stop-color="white" stop-opacity="0.2" />
         <stop offset="0.471" stop-color="white" stop-opacity="0.4" />
         <stop offset="1" stop-color="white" stop-opacity="0.2" />
      </linearGradient>
      <linearGradient id="paint19_linear_16_1130" x1="20" y1="358" x2="131" y2="358"
         gradientUnits="userSpaceOnUse">
         <stop stop-color="#E2E2E2" />
         <stop offset="0.535" stop-color="#003566" />
         <stop offset="1" stop-color="white" />
      </linearGradient>
      <linearGradient id="paint20_linear_16_1130" x1="33" y1="133.273" x2="133.668" y2="132.73"
         gradientUnits="userSpaceOnUse">
         <stop stop-color="white" stop-opacity="0.2" />
         <stop offset="0.471" stop-color="white" stop-opacity="0.4" />
         <stop offset="1" stop-color="white" stop-opacity="0.2" />
      </linearGradient>
      <linearGradient id="paint21_linear_16_1130" x1="33" y1="133" x2="137" y2="133"
         gradientUnits="userSpaceOnUse">
         <stop stop-color="#E2E2E2" />
         <stop offset="0.535" stop-color="#003566" />
         <stop offset="1" stop-color="white" />
      </linearGradient>
      <linearGradient id="paint22_linear_16_1130" x1="206" y1="195.273" x2="326.026" y2="194.501"
         gradientUnits="userSpaceOnUse">
         <stop stop-color="white" stop-opacity="0.2" />
         <stop offset="0.471" stop-color="white" stop-opacity="0.4" />
         <stop offset="1" stop-color="white" stop-opacity="0.2" />
      </linearGradient>
      <linearGradient id="paint23_linear_16_1130" x1="206" y1="195" x2="330" y2="195"
         gradientUnits="userSpaceOnUse">
         <stop stop-color="#E2E2E2" />
         <stop offset="0.535" stop-color="#003566" />
         <stop offset="1" stop-color="white" />
      </linearGradient>
      <linearGradient id="paint24_linear_16_1130" x1="203" y1="291.273" x2="303.668" y2="290.73"
         gradientUnits="userSpaceOnUse">
         <stop stop-color="white" stop-opacity="0.2" />
         <stop offset="0.471" stop-color="white" stop-opacity="0.4" />
         <stop offset="1" stop-color="white" stop-opacity="0.2" />
      </linearGradient>
      <linearGradient id="paint25_linear_16_1130" x1="203" y1="291" x2="307" y2="291"
         gradientUnits="userSpaceOnUse">
         <stop stop-color="#E2E2E2" />
         <stop offset="0.535" stop-color="#003566" />
         <stop offset="1" stop-color="white" />
      </linearGradient>
      <linearGradient id="paint26_linear_16_1130" x1="89" y1="486.273" x2="243.868" y2="484.987"
         gradientUnits="userSpaceOnUse">
         <stop stop-color="white" stop-opacity="0.2" />
         <stop offset="0.471" stop-color="white" stop-opacity="0.4" />
         <stop offset="1" stop-color="white" stop-opacity="0.2" />
      </linearGradient>
      <linearGradient id="paint27_linear_16_1130" x1="89" y1="486" x2="249" y2="486"
         gradientUnits="userSpaceOnUse">
         <stop stop-color="#E2E2E2" />
         <stop offset="0.535" stop-color="#003566" />
         <stop offset="1" stop-color="white" />
      </linearGradient>
   </defs>
</svg>