<?xml version="1.0" encoding="UTF-8"?>
<svg id="Capa_2" data-name="Capa 2" xmlns="http://www.w3.org/2000/svg" viewBox="0 0 27.7 27.7">
  <defs>
    <style>
      .cls-1 {
        fill: #fff;
      }

      .cls-2 {
        fill: #25d066;
      }
    </style>
  </defs>
  <g id="Capa_1-2" data-name="Capa 1">
    <g>
      <rect class="cls-2" width="27.7" height="27.7" rx="1.61" ry="1.61"/>
      <path class="cls-1" d="m23.3,13.77c0,5.16-4.29,9.37-9.45,9.37h0c-1.57,0-3.11-.39-4.48-1.14l-4.97,1.3,1.33-4.85c-.82-1.42-1.25-3.03-1.25-4.68,0-5.16,4.2-9.37,9.37-9.37,2.5,0,4.86.97,6.62,2.75,1.77,1.77,2.83,4.12,2.83,6.62Zm-1.58,0c0-2.08-.9-4.03-2.37-5.51s-3.42-2.28-5.5-2.28c-4.29,0-7.79,3.49-7.79,7.78,0,1.47.41,2.9,1.19,4.14l.19.3-.78,2.87,2.94-.77.28.17c1.19.71,2.57,1.08,3.97,1.08,4.29,0,7.87-3.49,7.87-7.79Zm-3.16,2.24c.06.1.06.57-.14,1.11s-1.13,1.05-1.58,1.11c-.74.11-1.32.05-2.81-.59-2.35-1.02-3.88-3.38-4-3.54-.11-.16-.95-1.27-.95-2.42s.6-1.72.82-1.95c.22-.23.47-.29.62-.29s.31,0,.45,0c.14,0,.34-.05.53.4.19.47.66,1.62.72,1.74s.1.25.02.41c-.45.89-.93.86-.69,1.28.91,1.56,1.81,2.1,3.19,2.78.23.12.37.1.51-.06.14-.16.59-.68.74-.92s.31-.2.53-.12c.22.08,1.37.64,1.6.76.23.11.39.17.44.28Z"/>
    </g>
  </g>
</svg>