<?xml version="1.0" encoding="UTF-8"?>
<svg id="Capa_2" data-name="Capa 2" xmlns="http://www.w3.org/2000/svg" viewBox="0 0 60.2 50.9">
  <defs>
    <style>
      .cls-1 {
        fill: #fff;
      }
    </style>
  </defs>
  <g id="Capa_1-2" data-name="Capa 1">
    <path class="cls-1" d="m18.49,20.24c-.12-.39.09-.81.49-.94.3-.09.58-.2.85-.3.38-.15.82.04.97.42.15.38-.04.82-.42.97-.3.12-.62.23-.95.34-.07.02-.15.03-.23.03-.32,0-.61-.2-.71-.52h0Zm-6.52,1.51c1.81,0,3.54-.15,5.16-.46.41-.08.67-.47.6-.87s-.47-.67-.87-.6c-1.52.29-3.16.43-4.88.43-.41,0-.75.34-.75.75s.34.75.75.75h0Zm7.86,5.88c-.27.11-.56.21-.85.3-.39.12-.61.54-.49.94.1.32.4.52.71.52.07,0,.15-.01.23-.03.33-.1.65-.22.95-.34.38-.15.57-.59.42-.97-.15-.39-.59-.57-.97-.42h0Zm-2.98.83c-1.52.29-3.16.43-4.88.43-.41,0-.75.34-.75.75s.34.75.75.75c1.81,0,3.54-.15,5.16-.46.41-.08.67-.47.6-.87-.08-.4-.47-.67-.87-.6h0Zm0,8.64c-1.52.29-3.16.43-4.88.43-.41,0-.75.34-.75.75s.34.75.75.75c1.81,0,3.54-.15,5.16-.46.41-.08.67-.47.6-.87s-.47-.67-.87-.6h0Zm2.98-.83c-.27.11-.55.21-.85.3-.39.12-.61.54-.49.94.1.32.4.52.71.52.07,0,.15-.01.23-.03.33-.1.65-.22.95-.34.38-.15.57-.59.42-.97-.15-.39-.59-.57-.97-.42h0Zm18.92-22.97v-4.62h-5.23v16.01h5.23v-4.62c0-1.42,1.16-2.58,2.58-2.58h5.72c.77,0,1.44.31,1.89.88l.35.44h8.56s.08,0,.12,0c1.27.17,2.23,1.27,2.23,2.56v11.13c0,.48-.39.87-.87.87h-18c-1.42,0-2.58-1.16-2.58-2.58v-4.62h-5.23v16.01h5.23v-4.62c0-1.42,1.16-2.58,2.58-2.58h5.72c.77,0,1.44.31,1.89.88l.35.44h8.56s.08,0,.12,0c1.27.17,2.23,1.27,2.23,2.56v11.13c0,.48-.39.87-.87.87h-18c-1.42,0-2.58-1.16-2.58-2.58v-4.62h-5.97c-.41,0-.75-.34-.75-.75v-16.76h-8.08v11.92c0,3.23-6.17,4.97-11.97,4.97s-11.97-1.74-11.97-4.97V12.78c0-3.23,6.17-4.97,11.97-4.97s11.97,1.74,11.97,4.97h0v11.92h8.08V7.94c0-.41.34-.75.75-.75h5.97V2.58c0-1.42,1.16-2.58,2.58-2.58h5.72c.77,0,1.44.31,1.89.88l.35.44h8.56s.08,0,.12,0c1.28.17,2.24,1.27,2.24,2.55v11.13c0,.48-.39.87-.87.87h-18c-1.42,0-2.58-1.16-2.58-2.58h0ZM1.5,12.78c0,1.45,3.99,3.47,10.48,3.47s10.48-2.02,10.48-3.47h0c0-1.45-3.99-3.48-10.48-3.48S1.5,11.33,1.5,12.78Zm0,8.44c0,1.45,3.99,3.47,10.48,3.47s10.48-2.02,10.48-3.47v-5.94c-2.18,1.62-6.42,2.47-10.48,2.47s-8.3-.85-10.48-2.47v5.94Zm20.96,16.89v-5.94c-2.18,1.62-6.42,2.47-10.48,2.47s-8.3-.85-10.48-2.47v5.94c0,1.45,3.99,3.47,10.48,3.47s10.48-2.02,10.48-3.47Zm0-8.44v-5.94c-2.18,1.62-6.42,2.47-10.48,2.47s-8.3-.85-10.48-2.47v5.94c0,1.45,3.99,3.47,10.48,3.47s10.48-2.02,10.48-3.47Zm28.23,8.41l.83,1.05h6.95v-.23c0-.4-.29-.74-.67-.82h-7.11Zm-10.18,10.24c0,.46.37.83.83.83h17.13v-8.28h-7.37c-.27,0-.52-.12-.68-.33l-2.83-3.56c-.04-.05-.18-.22-.53-.22h-5.72c-.46,0-.83.37-.83.83v10.73Zm10.18-27.75l.83,1.05h6.95v-.23c0-.4-.29-.74-.67-.82h-7.11Zm-10.18,10.24c0,.46.37.83.83.83h17.13v-8.28h-7.37c-.27,0-.52-.12-.68-.33l-2.83-3.56c-.04-.05-.18-.22-.53-.22h-5.72c-.46,0-.83.37-.83.83v10.73ZM50.68,3.06l.83,1.05h6.95v-.23c0-.4-.29-.74-.67-.82h-7.11Zm-10.18,10.24c0,.46.37.83.83.83h17.13V5.85h-7.37c-.27,0-.52-.12-.68-.33l-2.83-3.56c-.04-.05-.18-.22-.53-.22h-5.72c-.46,0-.83.37-.83.83v10.73Zm2.08-7.56h3.77c.41,0,.75-.34.75-.75s-.34-.75-.75-.75h-3.77c-.41,0-.75.34-.75.75s.34.75.75.75Zm0,3.39h6.43c.41,0,.75-.34.75-.75s-.34-.75-.75-.75h-6.43c-.41,0-.75.34-.75.75s.34.75.75.75Zm0,14.12h3.77c.41,0,.75-.34.75-.75s-.34-.75-.75-.75h-3.77c-.41,0-.75.34-.75.75s.34.75.75.75Zm0,3.39h6.43c.41,0,.75-.34.75-.75s-.34-.75-.75-.75h-6.43c-.41,0-.75.34-.75.75s.34.75.75.75Zm0,14.12h3.77c.41,0,.75-.34.75-.75s-.34-.75-.75-.75h-3.77c-.41,0-.75.34-.75.75s.34.75.75.75Zm0,3.39h6.43c.41,0,.75-.34.75-.75s-.34-.75-.75-.75h-6.43c-.41,0-.75.34-.75.75s.34.75.75.75Z"/>
  </g>
</svg>