<?xml version="1.0" encoding="UTF-8"?>
<svg id="Capa_2" data-name="Capa 2" xmlns="http://www.w3.org/2000/svg" viewBox="0 0 52.96 52.96">
  <defs>
    <style>
      .cls-1 {
        fill: #fff;
      }
    </style>
  </defs>
  <g id="Capa_1-2" data-name="Capa 1">
    <g id="Github">
      <g>
        <path class="cls-1" d="m18.35,51.51c-.3,0-.6-.05-.89-.16C6.52,47.39-.48,36.92.03,25.3c.02-.49.41-.86.92-.84.49.02.87.43.84.92-.47,10.84,6.06,20.62,16.27,24.31.27.1.56.06.8-.11.25-.17.38-.44.38-.74v-2.78c-6.95.99-8.59-4.19-8.61-4.25-.97-2.48-2.37-3.21-2.38-3.22-.6-.4-1.76-1.19-1.43-2.23.29-.93,1.5-.99,2.01-1.01,3.06.22,4.62,2.99,4.68,3.11,1.69,2.9,4.26,2.55,5.89,1.93.16-.8.42-1.52.78-2.15-5.07-.86-10.9-3.48-10.9-13.36,0-2.7.85-5.08,2.51-7.09-.37-1.19-.83-3.73.43-6.93.1-.25.3-.44.55-.52.25-.08,2.6-.7,7.47,2.52,1.98-.51,4.08-.78,6.25-.79,2.18.01,4.28.28,6.26.79,4.87-3.21,7.2-2.6,7.46-2.52.25.08.45.27.55.52,1.26,3.2.81,5.74.44,6.93,1.67,2,2.51,4.38,2.51,7.09,0,9.88-5.84,12.5-10.92,13.35.62,1.1.97,2.52.97,4.1,0,1.79,0,4.35-.02,6.52,0,.29.14.56.38.73.24.17.54.21.82.11,9.74-3.54,16.28-12.87,16.28-23.21,0-6.82-2.72-13.17-7.65-17.88-4.93-4.71-11.41-7.13-18.25-6.81-.49.04-.9-.35-.92-.84-.02-.49.35-.9.84-.92,7.33-.34,14.27,2.25,19.55,7.29,5.29,5.05,8.2,11.85,8.2,19.16,0,11.08-7.01,21.07-17.44,24.87-.82.29-1.73.17-2.44-.33-.71-.5-1.13-1.31-1.13-2.18,0-2.16.02-4.72.02-6.51,0-2.58-1-3.72-1.43-4.09-.26-.23-.37-.59-.27-.93.1-.34.4-.58.75-.62,5.39-.6,10.9-2.47,10.9-11.8,0-2.44-.81-4.56-2.4-6.3-.23-.25-.29-.61-.17-.93.25-.6.93-2.71-.07-5.65-.75.02-2.65.33-5.9,2.54-.22.15-.48.19-.73.12-1.91-.53-4.05-.82-6.18-.83-2.15.01-4.23.29-6.17.83-.25.07-.52.03-.73-.12-3.23-2.2-5.14-2.52-5.91-2.54-.99,2.93-.31,5.04-.07,5.64.13.32.06.68-.17.93-1.6,1.75-2.4,3.87-2.4,6.3,0,9.33,5.5,11.21,10.88,11.82.35.04.64.28.74.61.1.33,0,.7-.26.93-.4.35-1.1,1.19-1.33,2.9-.04.3-.23.56-.51.68-1.32.6-5.85,2.18-8.58-2.49-.02-.03-.93-1.63-2.55-2.09.58.38,1.9,1.5,2.88,4,.08.23,1.43,4.25,7.61,2.91.26-.05.53,0,.74.17.21.17.33.42.33.68l.02,3.83c0,.87-.42,1.69-1.13,2.19-.45.32-.99.49-1.52.49Z"/>
        <path class="cls-1" d="m26.02,52.96C11.43,52.96,0,41.33,0,26.48c0-6.41,2.19-12.55,6.15-17.31.31-.37.87-.43,1.24-.11.37.31.43.87.11,1.24C3.8,14.74,1.77,20.49,1.77,26.48c0,13.86,10.65,24.72,24.25,24.72s25.18-11.09,25.18-24.72S39.9,1.77,26.02,1.77c-4.31,0-8.5,1.09-12.11,3.16-.42.24-.96.09-1.2-.33-.24-.42-.1-.96.33-1.21,3.88-2.22,8.37-3.4,12.99-3.4,14.86,0,26.95,11.88,26.95,26.48s-12.09,26.48-26.95,26.48Z"/>
        <circle class="cls-1" cx="10.67" cy="6.27" r=".88"/>
      </g>
    </g>
  </g>
</svg>