<?xml version="1.0" encoding="UTF-8"?>
<svg id="Capa_2" data-name="Capa 2" xmlns="http://www.w3.org/2000/svg" xmlns:xlink="http://www.w3.org/1999/xlink" viewBox="0 0 363.95 366.71">
  <defs>
    <style>
      .cls-1 {
        fill: url(#Degradado_sin_nombre_39);
      }

      .cls-2 {
        fill: url(#Degradado_sin_nombre_22);
      }

      .cls-3 {
        fill: url(#Degradado_sin_nombre_23);
      }
    </style>
    <linearGradient id="Degradado_sin_nombre_23" data-name="Degradado sin nombre 23" x1="27.49" y1="143.99" x2="357.59" y2="24.77" gradientUnits="userSpaceOnUse">
      <stop offset="0" stop-color="#001d3d"/>
      <stop offset="1" stop-color="#003566"/>
    </linearGradient>
    <linearGradient id="Degradado_sin_nombre_22" data-name="Degradado sin nombre 22" x1="293.56" y1="240.4" x2="2.94" y2="336.27" gradientUnits="userSpaceOnUse">
      <stop offset="0" stop-color="#001d3d"/>
      <stop offset="1" stop-color="#003566"/>
    </linearGradient>
    <linearGradient id="Degradado_sin_nombre_39" data-name="Degradado sin nombre 39" x1="2.33" y1="128.4" x2="354.09" y2="234.41" gradientUnits="userSpaceOnUse">
      <stop offset="0" stop-color="#00244a"/>
      <stop offset=".51" stop-color="#003566"/>
      <stop offset="1" stop-color="#002348"/>
    </linearGradient>
  </defs>
  <g id="Capa_1-2" data-name="Capa 1">
    <g>
      <path class="cls-3" d="m363.95,15.19c0-9.88-9.28-17.13-18.87-14.73L0,86.48l182.52,48.9,181.43-45.48V15.19Z"/>
      <path class="cls-2" d="m0,275.59v79.46c0,7.58,7.13,13.14,14.48,11.3l349.47-87.53v-3.3l-181.3-45.41L0,275.59Z"/>
      <path class="cls-1" d="m0,167.99c0,9.37,6.38,17.54,15.47,19.82l348.48,90.96v-81.69c0-9.38-6.39-17.55-15.49-19.82L0,86.48v81.51Z"/>
    </g>
  </g>
</svg>